<?xml version="1.0" standalone="no"?>
<!DOCTYPE svg PUBLIC "-//W3C//DTD SVG 1.1//EN" "http://www.w3.org/Graphics/SVG/1.1/DTD/svg11.dtd" >
<svg xmlns="http://www.w3.org/2000/svg" xmlns:xlink="http://www.w3.org/1999/xlink" version="1.1">
<metadata>
Created by FontForge 20201107 at Mon Apr 27 01:47:18 2015
 By Jimmy Wärting
Copyright (URW)++, copyright 1999 by (URW)++ Design &#38; Development; Cyrillic glyphs added by Valek Filippov, copyright 2001-2002; Vietnamese characters were added by Han The Thanh; copyright 2006, 2008 for TeX Gyre extensions by B. Jackowski and J.M. Nowacki (on behalf of TeX users groups). This work is released under the GUST Font License --  see http://tug.org/fonts/licenses/GUST-FONT-LICENSE.txt for details.
Modified by Robert Jablonski and Mew Too, Cannot Into Space Fonts.
</metadata>
<defs>
<font id="HappyTime" horiz-adv-x="500" >
  <font-face 
    font-family="Happy Time"
    font-weight="400"
    font-style="italic"
    font-stretch="normal"
    units-per-em="1000"
    panose-1="0 0 6 0 0 0 0 0 0 0"
    ascent="783"
    descent="-217"
    x-height="450"
    cap-height="662"
    bbox="-457 -435 2360 1087"
    underline-thickness="50"
    underline-position="-100"
    slope="-19.9"
    stemh="19"
    stemv="84"
    unicode-range="U+0020-FFEC"
  />
<missing-glyph horiz-adv-x="280" 
 />
    <glyph glyph-name="I_J" unicode="IJ" horiz-adv-x="722" 
d="M937 643c-83 -6 -98 -17 -125 -90l-134 -370c-45 -125 -133 -197 -241 -197c-58 0 -88 30 -73 72c10 27 40 50 67 50c26 0 37 -16 34 -51c-2 -25 1 -33 15 -33c26 0 46 21 62 66l168 463c27 73 20 84 -60 90l7 19h287zM315 0h-297l7 19c85 3 103 15 130 90l161 444
c27 74 19 85 -64 90l7 19h297l-7 -19c-85 -4 -104 -17 -131 -90l-161 -444c-27 -73 -16 -87 65 -90z" />
    <glyph glyph-name="i_j" unicode="ij" horiz-adv-x="556" 
d="M688 571c-11 -29 -41 -51 -70 -51c-28 0 -43 22 -32 51c10 28 41 51 69 51c29 0 43 -23 33 -51zM498 394c-10 0 -30 -1 -46 -4l6 16c66 18 108 31 175 54l4 -3l-166 -457c-52 -142 -138 -218 -249 -218c-54 0 -85 23 -73 55c8 22 32 39 55 39c16 0 26 -9 36 -32
c9 -21 17 -28 32 -28c14 0 31 8 41 18c18 20 30 45 58 121l138 379c16 43 12 60 -11 60zM396 571c-11 -29 -41 -51 -70 -51c-28 0 -43 22 -32 51c10 28 41 51 69 51c29 0 43 -23 33 -51zM217 334c7 19 18 55 21 65c1 7 -8 15 -16 15c-10 0 -29 -10 -45 -27l-47 -51l-13 11
c67 84 108 114 157 114c59 0 52 -58 24 -134l-77 -211c-7 -19 -18 -55 -21 -65c-1 -7 7 -15 15 -15c10 0 30 10 46 27l47 51l13 -11c-67 -84 -108 -114 -157 -114c-59 0 -52 58 -24 134z" />
    <glyph glyph-name="f_k" unicode="fk" horiz-adv-x="833" 
d="M671 282c33.6943 -79.3057 66.8613 -159.138 100.999 -238c2 -5 5 -13 11 -13c8 0 27 8 39 21l53 57l10 -11c-63 -80 -107 -109 -151 -109c-18 0 -33 2 -46 15c-35.6797 79.3203 -65.4316 164.568 -98 247c-26.6562 -73.3438 -53.4697 -146.53 -80 -220l-95 -31
c68.6338 187.7 136.635 376.032 205 564c17 48 12 61 -21 61c-10 0 -19 -1 -32 -2l6 16c57 14 114 29 171 44l3 -2l-153 -420c93.5986 63.0684 187.083 126.251 281.001 189c12 8 22 11 35 11c29 0 46 -15 44 -40c-2 -18 -16 -32 -33 -32c-7 0 -19 3 -31 10
c-10 6 -21 9 -27 9c-4 0 -8 -2 -15 -6c-58.9824 -40.0176 -119.46 -78.54 -177 -120zM608.999 621c-8 -23 -32.999 -41 -56.999 -41c-17 0 -26 9 -32 36c-7 29 -17 39 -39 39c-38 0 -68 -30 -89 -89l-42 -116h123l-12 -32h-122
c-48.667 -133.999 -97.2754 -268.058 -146 -402c-30 -80 -52 -116 -94 -161s-104 -72 -167 -72c-60 0 -94 26 -81 62c8 23 33 41 57 41c17 0 25 -9 31 -36c7 -29 17 -39 39 -39c38 0 69 30 89 89c62.625 172.708 125.315 345.351 187.999 518h-82l12 32h82
c30 80 51 116 93 161s105 72 168 72c60 0 94 -26 81 -62z" />
    <glyph glyph-name="f_f" unicode="ff" horiz-adv-x="666" 
d="M942 621c-8 -23 -32.999 -41 -56.999 -41c-17 0 -26 9 -32 36c-7 29 -17 39 -39 39c-38 0 -68 -30 -89 -89l-42 -116h123l-12 -32h-122c-48.667 -133.999 -97.2754 -268.058 -146 -402c-30 -80 -52 -116 -94 -161s-104 -72 -167 -72c-60 0 -94 26 -81 62
c8 23 33 41 57 41c17 0 25 -9 31 -36c7 -29 17 -39 39 -39c38 0 69 30 89 89c62.625 172.708 125.315 345.351 187.999 518h-82l12 32h82c30 80 51 116 93 161s105 72 168 72c60 0 94 -26 81 -62zM609.001 621c-8 -23 -32.999 -41 -56.999 -41c-17 0 -26 9 -32 36
c-7 29 -17 39 -39 39c-38 0 -68 -30 -89 -89l-42 -116h123l-12 -32h-122c-48.667 -133.999 -97.2754 -268.058 -146 -402c-30 -80 -52 -116 -94 -161s-104 -72 -167 -72c-60 0 -94 26 -81 62c8 23 33 41 57 41c17 0 25 -9 31 -36c7 -29 17 -39 39 -39c38 0 69 30 89 89
c62.625 172.708 125.315 345.351 187.999 518h-82l12 32h82c30 80 51 116 93 161s105 72 168 72c60 0 94 -26 81 -62z" />
    <glyph glyph-name="f_i" unicode="fi" horiz-adv-x="611" 
d="M729 571c-11 -29 -41 -51 -70 -51c-28 0 -43 22 -32 51c10 28 41 51 69 51c29 0 43 -23 33 -51zM550 334c7 19 18 55 21 65c1 7 -8 15 -16 15c-10 0 -29 -10 -45 -27l-47 -51l-13 11c67 84 108 114 157 114c59 0 52 -58 24 -134l-77 -211c-7 -19 -18 -55 -21 -65
c-1 -7 7 -15 15 -15c10 0 30 10 46 27l47 51l13 -11c-67 -84 -108 -114 -157 -114c-59 0 -52 58 -24 134zM609 621c-8 -23 -32.999 -41 -56.999 -41c-17 0 -26 9 -32 36c-7 29 -17 39 -39 39c-38 0 -68 -30 -89 -89l-42 -116h123l-12 -32h-122
c-48.667 -133.999 -97.2754 -268.058 -146 -402c-30 -80 -52 -116 -94 -161s-104 -72 -167 -72c-60 0 -94 26 -81 62c8 23 33 41 57 41c17 0 25 -9 31 -36c7 -29 17 -39 39 -39c38 0 69 30 89 89c62.625 172.708 125.315 345.351 187.999 518h-82l12 32h82
c30 80 51 116 93 161s105 72 168 72c60 0 94 -26 81 -62z" />
    <glyph glyph-name="f_l" unicode="fl" horiz-adv-x="611" 
d="M763 681l-206 -565c-7 -19 -18 -55 -21 -65c-1 -7 7 -15 15 -15c10 0 30 10 46 27l47 51l13 -11c-67 -84 -108 -114 -157 -114c-59 0 -52 58 -24 134l160 441c17 47 12 61 -20 61c-8 0 -20 -1 -31 -2h-6l6 16c75 17 117 27 175 44zM609 621
c-8 -23 -32.999 -41 -56.999 -41c-17 0 -26 9 -32 36c-7 29 -17 39 -39 39c-38 0 -68 -30 -89 -89l-42 -116h123l-12 -32h-122c-48.667 -133.999 -97.2754 -268.058 -146 -402c-30 -80 -52 -116 -94 -161s-104 -72 -167 -72c-60 0 -94 26 -81 62c8 23 33 41 57 41
c17 0 25 -9 31 -36c7 -29 17 -39 39 -39c38 0 69 30 89 89c62.625 172.708 125.315 345.351 187.999 518h-82l12 32h82c30 80 51 116 93 161s105 72 168 72c60 0 94 -26 81 -62z" />
    <glyph glyph-name="f_f_i" unicode="ffi" horiz-adv-x="944" 
d="M1062 571c-11 -29 -41 -51 -70 -51c-28 0 -43 22 -32 51c10 28 41 51 69 51c29 0 43 -23 33 -51zM883 334c7 19 18 55 21 65c1 7 -8 15 -16 15c-10 0 -29 -10 -45 -27l-47 -51l-13 11c67 84 108 114 157 114c59 0 52 -58 24 -134l-77 -211c-7 -19 -18 -55 -21 -65
c-1 -7 7 -15 15 -15c10 0 30 10 46 27l47 51l13 -11c-67 -84 -108 -114 -157 -114c-59 0 -52 58 -24 134zM942 621c-8 -23 -32.999 -41 -56.999 -41c-17 0 -26 9 -32 36c-7 29 -17 39 -39 39c-38 0 -68 -30 -89 -89l-42 -116h123l-12 -32h-122
c-48.667 -133.999 -97.2754 -268.058 -146 -402c-30 -80 -52 -116 -94 -161s-104 -72 -167 -72c-60 0 -94 26 -81 62c8 23 33 41 57 41c17 0 25 -9 31 -36c7 -29 17 -39 39 -39c38 0 69 30 89 89c62.625 172.708 125.315 345.351 187.999 518h-82l12 32h82
c30 80 51 116 93 161s105 72 168 72c60 0 94 -26 81 -62zM609.001 621c-8 -23 -32.999 -41 -56.999 -41c-17 0 -26 9 -32 36c-7 29 -17 39 -39 39c-38 0 -68 -30 -89 -89l-42 -116h123l-12 -32h-122c-48.667 -133.999 -97.2754 -268.058 -146 -402
c-30 -80 -52 -116 -94 -161s-104 -72 -167 -72c-60 0 -94 26 -81 62c8 23 33 41 57 41c17 0 25 -9 31 -36c7 -29 17 -39 39 -39c38 0 69 30 89 89c62.625 172.708 125.315 345.351 187.999 518h-82l12 32h82c30 80 51 116 93 161s105 72 168 72c60 0 94 -26 81 -62z" />
    <glyph glyph-name="f_f_l" unicode="ffl" horiz-adv-x="944" 
d="M1096 681l-206 -565c-7 -19 -18 -55 -21 -65c-1 -7 7 -15 15 -15c10 0 30 10 46 27l47 51l13 -11c-67 -84 -108 -114 -157 -114c-59 0 -52 58 -24 134l160 441c17 47 12 61 -20 61c-8 0 -20 -1 -31 -2h-6l6 16c75 17 117 27 175 44zM942 621
c-8 -23 -32.999 -41 -56.999 -41c-17 0 -26 9 -32 36c-7 29 -17 39 -39 39c-38 0 -68 -30 -89 -89l-42 -116h123l-12 -32h-122c-48.667 -133.999 -97.2754 -268.058 -146 -402c-30 -80 -52 -116 -94 -161s-104 -72 -167 -72c-60 0 -94 26 -81 62c8 23 33 41 57 41
c17 0 25 -9 31 -36c7 -29 17 -39 39 -39c38 0 69 30 89 89c62.625 172.708 125.315 345.351 187.999 518h-82l12 32h82c30 80 51 116 93 161s105 72 168 72c60 0 94 -26 81 -62zM609.001 621c-8 -23 -32.999 -41 -56.999 -41c-17 0 -26 9 -32 36c-7 29 -17 39 -39 39
c-38 0 -68 -30 -89 -89l-42 -116h123l-12 -32h-122c-48.667 -133.999 -97.2754 -268.058 -146 -402c-30 -80 -52 -116 -94 -161s-104 -72 -167 -72c-60 0 -94 26 -81 62c8 23 33 41 57 41c17 0 25 -9 31 -36c7 -29 17 -39 39 -39c38 0 69 30 89 89
c62.625 172.708 125.315 345.351 187.999 518h-82l12 32h82c30 80 51 116 93 161s105 72 168 72c60 0 94 -26 81 -62z" />
    <glyph glyph-name=".notdef" horiz-adv-x="280" 
 />
    <glyph glyph-name="space" unicode=" " horiz-adv-x="250" 
 />
    <glyph glyph-name="exclam" unicode="!" horiz-adv-x="333" 
d="M453 596c-5 -14 -11 -25 -16 -37l-184 -383h-13l30 108c16 54 62 271 78 315c17 47 48 77 81 77c34 0 43 -28 24 -80zM253 43c-11 -30 -42 -52 -74 -52c-30 0 -44 22 -33 52c11 31 43 55 73 55s45 -25 34 -55z" />
    <glyph glyph-name="quotedbl" unicode="&#x22;" horiz-adv-x="408" 
d="M562 636c-11 -29 -41 -89 -85 -165l-21 -40h-21c16 90 36 188 42 204c8 23 34 41 58 41c23 0 35 -18 27 -40zM393 636c-11 -29 -41 -89 -85 -165l-21 -40h-21c16 90 36 188 42 204c8 23 34 41 58 41c23 0 35 -18 27 -40z" />
    <glyph glyph-name="numbersign" unicode="#" 
d="M643 405h-105l-68 -134h100l-20 -55h-109l-110 -216h-58l110 216h-134l-112 -216h-58l112 216h-107l20 55h116l69 134h-110l20 55h118l105 202h58l-105 -202h133l104 202h58l-104 -202h97zM480 405h-133l-69 -134h134z" />
    <glyph glyph-name="dollar" unicode="$" 
d="M519 170c-17 -48 -52 -89 -95 -117c-47 -29 -82 -41 -160 -53l-32 -87h-34l32 87c-83 3 -120 14 -167 51l47 130h15c-14 -105 21 -152 115 -153l103 282c-56 40 -73 55 -92 83c-27 37 -30 72 -13 119c16 43 50 83 94 110c42 26 74 35 140 42l23 63h34l-23 -63
c80 -10 117 -25 141 -53l-40 -111h-15c14 85 -16 127 -96 137l-90 -246c96 -70 116 -90 126 -131c5 -20 -1 -56 -13 -90zM377 407l84 230c-74 -14 -121 -48 -141 -103c-17 -46 -6 -71 57 -127zM431 146c23 62 12 89 -60 147l-97 -265c83 15 133 52 157 118z" />
    <glyph glyph-name="percent" unicode="%" horiz-adv-x="833" 
d="M868 264c-42 -115 -173 -264 -299 -264c-72 0 -101 51 -73 129c45 125 195 242 308 242c65 0 89 -39 64 -107zM597 30c92 0 211 141 243 229c16 44 -3 80 -41 80c-88 0 -212 -168 -240 -245c-14 -38 2 -64 38 -64zM584 549c-41 -112 -177 -260 -300 -260
c-65 0 -97 57 -72 127c46 127 197 246 311 246c31 0 42 -5 60 -27c17 -20 37 -27 77 -27c62 0 108 17 181 68h39l-636 -689h-48l579 626c-48 -23 -77 -30 -121 -30c-29 0 -46 3 -61 10c-2 -18 -4 -30 -9 -44zM512 632c-74 0 -206 -169 -235 -248c-13 -36 2 -61 37 -61
c81 0 205 115 246 228c5 14 7 29 8 49c-26 8 -36 13 -45 26c-4 5 -6 6 -11 6z" />
    <glyph glyph-name="ampersand" unicode="&#x26;" horiz-adv-x="778" 
d="M786 100c-56 -71 -128 -113 -192 -113c-58 0 -98 26 -137 91c-99 -66 -168 -91 -249 -91c-106 0 -150 57 -115 152c31 84 107 155 235 216l46 22c0 75 4 107 18 145c31 86 124 154 210 154c79 0 117 -50 91 -121c-12 -33 -38 -68 -67 -91c-39 -31 -70 -48 -150 -80
c13 -86 26 -137 57 -206c95 85 141 139 157 182c11 30 0 40 -48 45l8 21h216l-8 -21c-52 -6 -76 -18 -115 -59l-43 -46c-51 -54 -89 -91 -154 -150c24 -61 64 -92 120 -92c36 0 62 13 109 53zM641 559c18 49 -3 85 -49 85s-89 -34 -106 -82c-16 -45 -21 -83 -14 -146
c98 44 149 87 169 143zM442 104c-32 70 -46 125 -65 239c-107 -56 -154 -99 -177 -163c-28 -77 7 -141 77 -141c42 0 89 18 165 65z" />
    <glyph glyph-name="quotesingle" unicode="'" horiz-adv-x="180" 
d="M364 636c-11 -29 -41 -89 -85 -165l-21 -40h-21c16 90 36 188 42 204c8 23 34 41 58 41c23 0 35 -18 27 -40z" />
    <glyph glyph-name="parenleft" unicode="(" horiz-adv-x="333" 
d="M245 -161l-17 -16c-40 32 -58 54 -82 102c-51 102 -52 200 -6 327c43 117 113 217 216 304c54 46 94 72 185 120l3 -16c-93 -58 -136 -94 -187 -156c-50 -62 -92 -144 -130 -249c-36 -100 -54 -176 -54 -243c0 -75 15 -110 72 -173z" />
    <glyph glyph-name="parenright" unicode=")" horiz-adv-x="333" 
d="M375 247c-43 -117 -114 -217 -217 -304c-54 -46 -93 -72 -184 -120l-4 16c93 58 137 94 188 157c49 61 92 144 130 248c36 100 53 176 53 243c-1 75 -15 110 -72 173l18 16c40 -32 58 -54 82 -102c51 -102 53 -199 6 -327z" />
    <glyph glyph-name="asterisk" unicode="*" 
d="M426 456c-16.0625 -37.4805 -23 -82.7939 -23 -119c0 -13 -2 -26 -4 -32c-8 -21 -33 -40 -54 -40c-19 0 -28 17 -21 37c4 11 14 28 28 46c25 34 41 63 47 84l5 17l3 7c-43 -22 -52 -27 -65 -36c-11 -7 -18 -12 -59 -45c-24 -19 -34 -24 -50 -24c-22 0 -32 13 -24 35
c9 25 31 37 79 45c49 9 67 15 117 40l-8 7c-14 13 -41 23 -75 30c-45 9 -60 23 -51 47c7 20 28 36 47 36c16 0 25 -8 36 -32c20 -36 34 -52 64 -73l5 13c10 27 16 58 18 91c2 21 4 39 8 51c7 20 28 35 48 35s31 -16 23 -37c-4 -11 -14 -27 -27 -46c-22 -31 -38 -59 -47 -83
l-10 -26c32 15 64 34 104 68c34 28 56 41 71 41c21 0 30 -16 22 -39c-9 -25 -27 -36 -67 -42c-47 -7 -68 -14 -127 -42c22 -18 50 -32 91 -39s52 -18 43 -44c-8 -22 -28 -37 -49 -37c-18 0 -30 12 -44 43c-17 37 -30 51 -54 63z" />
    <glyph glyph-name="plus" unicode="+" horiz-adv-x="564" 
d="M603 217h-209l-76 -209h-66l76 209h-209l24 66h209l76 209h66l-76 -209h209z" />
    <glyph glyph-name="comma" unicode="," horiz-adv-x="250" 
d="M141 -2c-4 0 -21 -4 -28 -4c-36 0 -53 19 -41 51c12 34 45 57 80 57c45 0 66 -39 48 -89c-22 -60 -89 -121 -168 -154l-2 19c67 37 108 74 120 106c3 8 -1 14 -9 14z" />
    <glyph glyph-name="hyphen" unicode="-" horiz-adv-x="333" 
d="M356 194h-246l23 63h246z" />
    <glyph glyph-name="period" unicode="." horiz-adv-x="250" 
d="M197 43c-11 -29 -46 -54 -77 -54c-29 0 -45 25 -34 54c11 31 45 57 75 57s47 -26 36 -57z" />
    <glyph glyph-name="slash" unicode="/" horiz-adv-x="278" 
d="M533 676l-479 -690h-68l480 690h67z" />
    <glyph glyph-name="zero" unicode="0" 
d="M596 330c-44 -121 -124 -237 -202 -292c-49 -35 -98 -52 -149 -52c-58 0 -100 24 -121 68c-27 56 -18 173 22 282c43 117 123 232 201 288c50 35 98 52 153 52c131 0 171 -141 96 -346zM499 328c76 209 73 322 -11 322c-86 0 -172 -111 -249 -323
c-76 -208 -71 -315 15 -315s169 107 245 316z" />
    <glyph glyph-name="one" unicode="1" 
d="M399 593c-21 0 -53 -12 -80 -22l5 14l213 91l7 -2l-218 -600c-17 -48 -6 -58 73 -59l-5 -15h-276l5 15c42 1 58 4 76 13c19 9 36 32 48 65l165 453c12 32 8 47 -13 47z" />
    <glyph glyph-name="two" unicode="2" 
d="M525 137l-105 -137h-390l4 12l247 189c116 89 197 182 225 260c31 84 -6 141 -90 141c-69 0 -116 -32 -192 -130l-19 5c43 71 69 103 113 137c52 40 112 62 167 62c104 0 157 -77 121 -177c-28 -78 -95 -154 -218 -247l-232 -176h239c45 0 61 9 119 66z" />
    <glyph glyph-name="three" unicode="3" 
d="M512 219c-46.5 -129.813 -190.583 -233 -361 -233c-70 0 -105 22 -92 57c8 21 27 35 50 35c17 0 32 -7 55 -25c28 -24 46 -31 73 -31c74 0 154 65 185 149c25 69 7 126 -47 148c-21 9 -43 11 -102 11l5 13c77 24 110 39 151 69c34 25 62 61 75 97c23 63 -6 107 -71 107
c-63 0 -119 -33 -187 -106l-14 4c44 60 68 86 108 113c48 32 98 49 148 49c92 0 135 -56 106 -137c-20 -54 -58 -91 -144 -138c37 -19 52 -31 64 -53c18 -31 17 -78 -2 -129z" />
    <glyph glyph-name="four" unicode="4" 
d="M533 167h-102l-61 -167h-77l61 167h-281l23 64l476 445h44l-162 -445h102zM376 231l125 343l-365 -343h240z" />
    <glyph glyph-name="five" unicode="5" 
d="M686 681l-71 -89c-6 -7 -10 -9 -26 -9h-196l-73 -85c110 -21 159 -44 187 -88c32 -50 34 -96 8 -168c-28 -76 -70 -133 -132 -178c-69 -51 -150 -78 -234 -78c-75 0 -114 24 -100 62c9 25 28 37 57 37c21 0 40 -10 64 -33c22 -22 36 -29 56 -29c78 0 167 75 202 171
c36 99 6 161 -96 198c-36 13 -74 20 -106 20c-8 0 -11 3 -9 8c0 0 1 3 3 5l195 237h209c21 0 32 5 55 26z" />
    <glyph glyph-name="six" unicode="6" 
d="M253 -14c-151 0 -174 137 -117 293c49 134 149 248 285 325c92 51 156 70 274 80l-4 -16c-166 -26 -318 -134 -400 -285c77 38 101 45 145 45c115 0 159 -81 112 -209c-50 -138 -171 -233 -295 -233zM445 185c45 125 22 197 -64 197c-35 0 -69 -9 -96 -25
c-25 -15 -43 -43 -62 -94c-56 -155 -37 -249 51 -249c70 0 131 61 171 171z" />
    <glyph glyph-name="seven" unicode="7" 
d="M684 646l-450 -654h-65l415 596h-217c-55 0 -77 -13 -145 -81l-15 8l113 147h370z" />
    <glyph glyph-name="eight" unicode="8" 
d="M501 155c-37 -103 -138 -169 -258 -169c-113 0 -167 68 -132 165c25 68 58 99 196 181c-72 92 -80 121 -56 186c33 91 138 158 247 158c100 0 150 -60 120 -142c-25 -68 -75 -110 -193 -163c88 -90 104 -139 76 -216zM414 124c20 56 10 92 -44 144l-44 44
c-75 -47 -113 -89 -136 -153c-32 -87 -2 -145 74 -145c65 0 126 45 150 110zM550 535c25 69 -2 113 -70 113c-63 0 -123 -41 -144 -99c-20 -56 -1 -102 67 -160c5 3 5 3 11 6c71 38 115 83 136 140z" />
    <glyph glyph-name="nine" unicode="9" 
d="M602 394c-49 -135 -155 -259 -287 -335c-86 -49 -147 -68 -264 -81l4 20c161 26 312 133 412 296c-68 -41 -116 -57 -171 -57c-108 0 -150 81 -106 203c49 135 175 236 294 236c129 0 178 -117 118 -282zM491 355l14 39c61 168 48 254 -39 254c-29 0 -58 -11 -82 -31
c-30 -26 -68 -86 -89 -143c-43 -119 -23 -194 53 -194c36 0 77 13 114 37c14 9 22 18 29 38z" />
    <glyph glyph-name="colon" unicode=":" horiz-adv-x="278" 
d="M338 402c-11 -29 -45 -54 -76 -54c-29 0 -46 25 -35 54c11 31 46 57 76 57s46 -26 35 -57zM208 43c-11 -29 -46 -54 -77 -54c-29 0 -45 25 -34 54c11 31 45 57 75 57s47 -26 36 -57z" />
    <glyph glyph-name="semicolon" unicode=";" horiz-adv-x="278" 
d="M165 -2c-4 0 -21 -4 -28 -4c-37 0 -52 19 -40 52c12 34 44 56 79 56c45 0 66 -39 48 -89c-22 -60 -87 -120 -168 -154l-2 19c67 37 108 74 120 106c3 8 -1 14 -9 14zM338 402c-11 -29 -45 -54 -76 -54c-29 0 -46 25 -35 54c11 31 46 57 76 57s46 -26 35 -57z" />
    <glyph glyph-name="less" unicode="&#x3c;" horiz-adv-x="564" 
d="M489 13l-344 207l22 60l494 207l-27 -74l-389 -163l271 -163z" />
    <glyph glyph-name="equal" unicode="=" horiz-adv-x="564" 
d="M633 300h-484l24 66h484zM573 134h-484l24 66h484z" />
    <glyph glyph-name="greater" unicode="&#x3e;" horiz-adv-x="564" 
d="M564 220l-494 -207l27 74l389 163l-271 163l27 74l344 -207z" />
    <glyph glyph-name="question" unicode="?" horiz-adv-x="444" 
d="M604 521c-15 -41 -41 -77 -91 -126c-22 -21 -22 -21 -88 -77c-54 -47 -86 -87 -121 -154h-17c17 44 44 93 81 142l52 64c44 55 76 110 93 156c24 67 -4 120 -64 120c-49 0 -105 -30 -117 -62c-3 -8 -2 -17 5 -31c9 -17 11 -29 6 -43c-9 -24 -32 -41 -56 -41
c-31 0 -41 22 -26 62c30 83 123 145 215 145c54 0 105 -23 127 -58c15 -23 15 -59 1 -97zM307 44c-11 -30 -42 -52 -74 -52c-30 0 -44 22 -33 51c12 32 43 56 73 56c29 0 45 -25 34 -55z" />
    <glyph glyph-name="at" unicode="@" horiz-adv-x="921" 
d="M414 256c39 107 169 252 288 252c35 0 46 -11 53 -52l24 38h69l-158 -254c-3 -6 -5 -11 -8 -18c-11 -31 -4 -46 22 -46c66 0 165 97 201 197c54 149 -31 272 -188 272c-73 0 -150 -27 -217 -76c-78 -59 -148 -153 -182 -246c-63 -174 13 -298 183 -298
c67 0 123 13 214 48l1 -30c-113 -44 -168 -57 -238 -57c-207 0 -313 148 -243 340c71 195 289 350 492 350c185 0 281 -128 221 -293c-47 -129 -172 -240 -271 -240c-48 0 -74 29 -64 73c-50 -45 -108 -72 -152 -72c-49 0 -70 49 -47 112zM520 187c75 0 169 143 197 212
c16 39 10 63 -17 65c-23 2 -65 -18 -105 -50c-48 -38 -84 -88 -104 -142c-19 -52 -8 -85 29 -85z" />
    <glyph glyph-name="A" unicode="A" horiz-adv-x="722" 
d="M458 19c76.543 0 93.4668 24.4658 88 101l-6 96h-262l-89 -117c-10 -13 -18 -27 -22 -39c-10 -28 5 -41 53 -41l-7 -19h-198l7 19c49 3 67 18 184 164l386 491h20l43 -568c8 -74 14 -84 58 -87l-7 -19h-255zM541 257l-16 275l-215 -275h231z" />
    <glyph glyph-name="B" unicode="B" horiz-adv-x="667" 
d="M659 180c-38.46 -108.594 -156.647 -180 -308 -180h-334l7 19c84 3 102 16 129 90l161 444c27 74 19 85 -63 90l7 19h280c173 0 241 -58 200 -170c-15 -41 -43 -78 -76 -100c-32 -21 -56 -31 -113 -44c59 -16 82 -28 102 -55c20 -29 24 -69 8 -113zM543 179
c23 63 10 103 -38 127c-31 15 -74 20 -171 20l-91 -248c-12 -32 -1 -41 48 -41c66 0 110 8 149 26c48 23 83 62 103 116zM635 488c32 89 -12 137 -127 137h-44c-15 0 -24 -9 -32 -30l-84 -229h95c94 0 164 44 192 122z" />
    <glyph glyph-name="C" unicode="C" horiz-adv-x="667" 
d="M674 113c-90 -81 -206 -127 -319 -127c-199 0 -283 136 -209 339c41 114 117 209 216 272c79 50 169 79 246 79c49 0 95 -8 138 -24c14 -6 27 -9 37 -9c19 0 39 12 53 33h21l-73 -226h-23c5 65 -1 93 -21 125c-25 40 -69 61 -127 61c-145 0 -280 -117 -346 -298
c-68.5654 -189.372 -26.376 -308 136 -308c83 0 160 30 260 101z" />
    <glyph glyph-name="D" unicode="D" horiz-adv-x="722" 
d="M807 334c-35 -97 -106 -186 -192 -245c-82 -56 -199 -89 -315 -89h-284l7 19c78 5 95 18 121 90l161 444c27 74 21 83 -55 90l7 19h270c137 0 233 -36 276 -105c35 -55 37 -133 4 -223zM695 327c39 108 29 194 -29 248c-36 34 -95 50 -181 50c-41 0 -55 -8 -66 -39
l-185 -508c-12 -32 -3 -41 37 -41c87 0 149 12 211 41c98 47 170 131 213 249z" />
    <glyph glyph-name="E" unicode="E" horiz-adv-x="611" 
d="M659 169l-107 -169h-540l7 19c75 5 94 19 120 90l161 444c26 71 18 84 -54 90l7 19h531l-49 -143h-25c16 90 -1 105 -114 105h-135c-27 0 -35 -6 -45 -34l-81 -222h154c81 0 102 13 145 95h23l-85 -232h-23c17 83 7 96 -75 96h-154l-90 -247c-7 -19 -9 -28 -4 -32
c6 -7 45 -11 93 -11h27c143 0 196 24 285 132h28z" />
    <glyph glyph-name="F" unicode="F" horiz-adv-x="556" 
d="M735 519h-25c16 90 -1 105 -114 105h-136c-27 0 -34 -6 -44 -34l-81 -222h145c80 0 104 15 145 95h23l-85 -232h-23c17 81 6 96 -75 96h-145l-79 -218c-26 -72 -18 -86 58 -90l-7 -19h-280l7 19c78 5 94 18 124 101l157 433c25 70 18 84 -54 90l7 19h531z" />
    <glyph glyph-name="G" unicode="G" horiz-adv-x="722" 
d="M831 336c-60 -5 -77 -18 -98 -77l-74 -203c-53 -35 -190 -70 -276 -70c-110 0 -192 38 -234 107c-35 59 -35 134 1 232c74 204 271 351 471 351c45 0 88 -8 128 -23c15 -7 30 -10 40 -10c21 0 44 14 57 33h22l-69 -211h-23c-3 61 -9 88 -29 116c-26 36 -68 55 -124 55
c-68 0 -139 -27 -201 -76s-123 -140 -157 -234c-68 -186 -10 -300 153 -300c72 0 143 27 155 59l59 162c16 43 18 66 6 75c-9 8 -20 11 -62 14l7 18h255z" />
    <glyph glyph-name="H" unicode="H" horiz-adv-x="722" 
d="M702 0h-278l7 19c80 5 94 17 125 101l71 195h-303l-75 -206c-26 -71 -18 -84 55 -90l-7 -19h-278l7 19c80 5 94 17 125 101l157 433c26 72 19 83 -55 90l7 19h278l-7 -19c-80 -7 -95 -18 -121 -90l-70 -194h303l70 194c26 72 19 83 -55 90l7 19h278l-7 -19
c-80 -7 -95 -18 -121 -90l-161 -444c-26 -71 -18 -84 55 -90z" />
    <glyph glyph-name="I" unicode="I" horiz-adv-x="333" 
d="M315 0h-297l7 19c85 3 103 15 130 90l161 444c27 74 19 85 -64 90l7 19h297l-7 -19c-85 -4 -104 -17 -131 -90l-161 -444c-27 -73 -16 -87 65 -90z" />
    <glyph glyph-name="J" unicode="J" horiz-adv-x="389" 
d="M604 643c-83 -6 -98 -17 -125 -90l-134 -370c-45 -125 -133 -197 -241 -197c-58 0 -88 30 -73 72c10 27 40 50 67 50c26 0 37 -16 34 -51c-2 -25 1 -33 15 -33c26 0 46 21 62 66l168 463c27 73 20 84 -60 90l7 19h287z" />
    <glyph glyph-name="K" unicode="K" horiz-adv-x="722" 
d="M723 0h-305l7 19c12 1 23 1 28 1c28 1 45 8 50 22c9 24 -19 95 -68 170l-68 105l-33 -21l-68 -187c-27 -73 -19 -85 57 -90l-7 -19h-282l7 19c81 5 97 18 127 101l157 433c26 71 19 84 -57 90l7 19h284l-7 -19c-83 -6 -98 -17 -125 -90l-74 -205l235 161
c74 51 108 81 116 103c7 20 -2 28 -31 30c-4 0 -14 0 -26 1l7 19h262l-7 -19c-70 -5 -88 -13 -180 -78l-259 -188l142 -250c56 -97 66 -107 118 -108z" />
    <glyph glyph-name="L" unicode="L" horiz-adv-x="611" 
d="M368 39c135 0 193 43 268 135h25l-111 -174h-538l7 19c75 5 94 19 120 90l161 444c26 71 18 84 -54 90l7 19h282l-7 -19c-81 -5 -100 -19 -126 -90l-172 -473c-13 -35 -2 -41 71 -41h67z" />
    <glyph glyph-name="M" unicode="M" horiz-adv-x="889" 
d="M863 0h-280l7 19c81 5 98 18 128 101l165 453l-465 -573h-14l-51 550l-146 -403c-37 -101 -29 -124 47 -128l-7 -19h-235l7 19c85 6 107 25 144 128l147 406c27 73 18 85 -62 90l7 19h198l47 -505l405 505h199l-7 -19c-76 -6 -94 -19 -120 -90l-161 -444
c-26 -71 -17 -85 54 -90z" />
    <glyph glyph-name="N" unicode="N" horiz-adv-x="722" 
d="M941 643c-39 -4 -55 -8 -73 -18c-24 -13 -47 -50 -69 -110l-191 -526h-17l-242 550l-142 -392c-37 -101 -29 -124 47 -128l-7 -19h-235l7 19c85 6 107 25 144 128l160 441c-23 47 -34 55 -77 55l7 19h171l209 -484l122 337c23 62 27 98 12 112c-12 9 -24 13 -61 16l7 19
h235z" />
    <glyph glyph-name="O" unicode="O" horiz-adv-x="722" 
d="M807 327c-73 -201 -260 -341 -457 -341c-88 0 -163 39 -198 102c-33 58 -32 149 2 243c73 201 262 345 453 345c96 0 167 -36 205 -105c33 -60 31 -145 -5 -244zM693 328c43 119 47 213 11 262c-24 32 -64 50 -110 50c-55 0 -112 -22 -167 -65
c-59 -47 -122 -144 -159 -246c-40 -111 -44 -212 -9 -258c24 -31 62 -49 108 -49c53 0 104 18 152 53c31 23 58 48 76 73c39 52 77 121 98 180z" />
    <glyph glyph-name="P" unicode="P" horiz-adv-x="556" 
d="M717 481c-24 -66 -82 -127 -154 -159c-52 -24 -109 -34 -187 -34c-26 0 -43 1 -68 3l-66 -182c-27 -73 -17 -87 61 -90l-7 -19h-280l7 19c79 7 90 17 121 101l157 433c26 72 20 82 -51 90l7 19h264c94 0 171 -28 195 -72c16 -29 16 -67 1 -109zM606 475
c37 103 -8 150 -143 150c-27 0 -36 -7 -46 -34l-95 -260c22 -2 36 -3 56 -3c115 0 193 50 228 147z" />
    <glyph glyph-name="Q" unicode="Q" horiz-adv-x="722" 
d="M637 -177h-6c-11 -1 -21 -1 -36 -1c-159 0 -264 43 -303 122l-27 55c-62 24 -87 44 -111 86c-36 64 -36 146 0 244c74 203 262 347 453 347s274 -144 201 -345c-40 -111 -111 -202 -209 -268c-61 -40 -103 -57 -176 -70c43 -105 106 -152 220 -152zM695 333
c41 113 45 209 8 257c-24 31 -63 50 -106 50c-58 0 -113 -21 -170 -65c-58 -46 -122 -144 -157 -240c-43 -117 -47 -217 -11 -264c24 -32 62 -49 110 -49c55 0 115 23 167 64c57 46 123 148 159 247z" />
    <glyph glyph-name="R" unicode="R" horiz-adv-x="667" 
d="M659 0h-161l-126 308l-57 -2l-71 -197c-26 -72 -18 -85 57 -90l-7 -19h-277l7 19c77 6 92 18 122 101l157 433c26 71 20 82 -52 90l7 19h276c94 0 168 -26 191 -67c15 -29 15 -66 -1 -109c-17 -47 -52 -89 -93 -115c-43 -27 -77 -39 -149 -52l114 -253
c17 -34 33 -44 70 -47zM616 488c34 94 -9 137 -134 137c-40 0 -54 -8 -64 -36l-89 -246c97 2 134 8 189 34c43 19 80 61 98 111z" />
    <glyph glyph-name="S" unicode="S" horiz-adv-x="556" 
d="M552 168c-37 -103 -154 -182 -270 -182c-40 0 -77 8 -110 23c-16 7 -32 11 -43 11c-15 0 -32 -14 -40 -33h-22l47 212h23c6 -122 48 -177 138 -177c73 0 140 46 164 112c9 25 11 45 7 59c-11 38 -48 78 -106 117c-91 59 -115 115 -86 194c20 55 55 98 106 130
c41 26 89 42 128 42c35 0 68 -8 100 -22c15 -8 30 -12 40 -12c17 0 32 12 44 34h21l-55 -213h-25c5 59 0 85 -19 117c-22 36 -57 55 -102 55c-62 0 -117 -37 -137 -92s6 -99 90 -156c106 -72 137 -136 107 -219z" />
    <glyph glyph-name="T" unicode="T" horiz-adv-x="611" 
d="M772 492h-24c17 110 2 128 -112 128h-54l-186 -511c-27 -73 -18 -86 63 -90l-7 -19h-292l7 19c85 5 100 16 131 101l182 500h-54c-112 0 -142 -18 -206 -128h-24l68 170h564z" />
    <glyph glyph-name="U" unicode="U" horiz-adv-x="722" 
d="M939 643c-86 -10 -103.999 -26 -140.999 -128l-95 -261c-28 -77 -54 -123 -93 -165c-64 -68 -151 -103 -260 -103c-170 0 -221 82 -158 255l113 312c27 73 20 84 -57 90l7 19h283l-7 -19c-83 -7 -98 -18 -124 -90l-116 -320c-43.2549 -118.479 -39.6709 -203 97.999 -203
c75 0 151 31 195 79c27 30 47 68 72 136l98 270c36 100 29 122 -47 128l7 19h232z" />
    <glyph glyph-name="V" unicode="V" horiz-adv-x="722" 
d="M931 643c-49 -3 -64 -14 -126 -93l-426 -561h-15l-46 549c-11 89 -20 103 -68 105l7 19h266l-7 -19c-14 -1 -26 -2 -30 -2c-33 -2 -50 -12 -57 -31c-5 -15 -5 -38 1 -111l28 -338l280 367c23 30 40 57 46 73c10 28 -4 39 -58 42l7 19h205z" />
    <glyph glyph-name="W" unicode="W" horiz-adv-x="944" 
d="M1166 643c-57 -10 -71 -18.999 -109 -70.999l-416 -583h-15l-6 423l-308 -423h-15l2 537c-3 94 -11 112 -60 117l7 19h245l-7 -19c-73.7295 -4.25391 -82 -15.8984 -82 -78.001l7 -376l209 282l-3 82c-5 80 -11 89 -68 90l7 19h267l-7 -19c-54 -1 -81 -11 -90 -35
c-4 -11 -4 -30 -3 -51c4 -123 6 -247 9 -371l248 339c20 28 35 54 43 75c10 27 -4 38 -53 43l7 19h198z" />
    <glyph glyph-name="X" unicode="X" horiz-adv-x="722" 
d="M704 0h-297l7 19c12 1 24 2 28 2c34 1 53 11 60 29c5 15 0 49 -15 98l-44 140l-173 -148c-54 -46 -78 -71 -83 -86c-8 -23 6 -31 63 -35l-7 -19h-233l7 19c52 4 58 8 186 114l228 193l-51 160c-47 139 -60 154 -124 157l7 19h302l-7 -19l-28 -1c-33 -1 -52 -9 -59 -29
c-8 -22 1 -65 31 -150l20 -59l163 138c42 36 60 54 65 69c8 23 -5 30 -58 32l7 19h238l-7 -19c-65 -4 -90 -16 -183 -94l-212 -182l92 -274c22 -58 33 -68 84 -74z" />
    <glyph glyph-name="Y" unicode="Y" horiz-adv-x="722" 
d="M937 643c-52 -4 -86.001 -26 -179.001 -114l-231 -226l-70 -194c-28 -76 -18 -88 70 -90l-7 -19h-306l7 19c92 4 106 14 138 101l63 174l-61 192c-49 141 -58 155 -105 157l7 19h280l-7 -19c-11 -1 -21 -1 -25 -1c-47.5547 -2.88184 -71.5693 -23.1758 -55.999 -73
l67 -222l226 226c14 15 23 27 27 37c9 24 -5 32 -57 33l7 19h219z" />
    <glyph glyph-name="Z" unicode="Z" horiz-adv-x="611" 
d="M452 624c-128.358 0 -167.042 -44.1504 -216 -133h-26l82 171h526l-6 -15l-653 -609h257c57 0 106 14 139 39c28 22 46 43 83 99h23l-88 -176h-564l5 15l659 609h-221z" />
    <glyph glyph-name="bracketleft" unicode="[" horiz-adv-x="333" 
d="M242 -156h-211l298 818h211l-9 -25h-90c-32 0 -50 -13 -61 -44l-245 -672c-13 -35 -3 -52 30 -52h86z" />
    <glyph glyph-name="backslash" unicode="\" horiz-adv-x="278" 
d="M282 -14h-68l23 690h67z" />
    <glyph glyph-name="bracketright" unicode="]" horiz-adv-x="333" 
d="M188 -156h-211l9 25h90c31 0 50 13 61 44l245 672c13 35 3 52 -30 52h-86l9 25h211z" />
    <glyph glyph-name="asciicircum" unicode="^" horiz-adv-x="469" 
d="M554 297h-68l-38 289l-248 -289h-68l314 365h60z" />
    <glyph glyph-name="underscore" unicode="_" 
d="M455 -125h-500l18 50h500z" />
    <glyph glyph-name="grave" unicode="`" horiz-adv-x="333" 
d="M423 504h-40l-118 97c-16 13 -21 26 -15 42c7 20 25 32 47 32c15 0 22 -5 33 -23z" />
    <glyph glyph-name="a" unicode="a" 
d="M466 116c-7 -19 -18 -55 -21 -65c-1 -7 7 -15 15 -15c10 0 30 10 46 27l47 51l13 -11c-67 -84 -108 -114 -157 -114c-40 0 -55 27 -48 68c-51 -47 -97 -67 -153 -67c-110 0 -153 87 -106 215c52 142 185 255 300 255c40 0 64 -11 90 -43l1 2l95 31zM377 102l84 230
c19 53 -13 100 -66 100c-76 0 -152 -74 -193 -187c-45 -123 -19 -203 64 -203c29 0 58 10 83 30c14 11 25 23 28 30z" />
    <glyph glyph-name="b" unicode="b" 
d="M556 243c-52 -143 -194 -253 -326 -253c-80 0 -152 33 -141 64l189 519c15 42 9 51 -31 51c-7 0 -11 0 -17 -1l6 16l31 8c52 13 83 21 130 36l4 -2l-112 -306c38 49 109 85 170 85c100 0 142 -94 97 -217zM452 197c44 122 22 200 -56 200c-52 0 -112 -36 -126 -75
l-92 -252c-9 -25 28 -48 80 -48c82 0 154 64 194 175z" />
    <glyph glyph-name="c" unicode="c" horiz-adv-x="444" 
d="M466 147c-55 -62 -85 -91 -124 -115c-44 -28 -88 -42 -131 -42c-111 0 -156 93 -109 222c30 83 86 152 156 197c52 33 106 51 153 51c84 0 137 -47 117 -103c-8 -23 -36 -42 -62 -42c-22 0 -35 17 -32 46l2 22c3 37 -5 48 -41 48c-81 0 -161 -70 -199 -174
c-42 -115 -8 -195 84 -195c57 0 102 24 175 94z" />
    <glyph glyph-name="d" unicode="d" 
d="M672 681l-206 -565c-7 -19 -18 -55 -21 -65c-1 -7 7 -15 15 -15c10 0 30 10 46 27l47 51l13 -11c-67 -84 -108 -114 -157 -114c-40 0 -55 27 -48 68c-51 -47 -97 -67 -153 -67c-110 0 -153 87 -106 215c52 142 185 255 300 255c40 0 64 -11 90 -43l57 156
c15 41 9 51 -28 51c-8 0 -14 0 -22 -1l6 16c70 17 109 27 163 44zM377 102l84 230c19 53 -13 100 -66 100c-76 0 -152 -74 -193 -187c-45 -123 -19 -203 64 -203c29 0 58 10 83 30c14 11 25 23 28 30z" />
    <glyph glyph-name="e" unicode="e" horiz-adv-x="444" 
d="M481 157c-81 -108 -177 -167 -273 -167c-115 0 -155 86 -105 224c53 146 174 246 298 246c52 0 91 -21 108 -57c13 -32 13 -61 -3 -126h-308c-21 -64 -26 -99 -20 -138c9 -54 41 -80 96 -80c64 0 118 29 194 105zM415 309c19 87 5 115 -56 115s-108 -36 -148 -115h204z
" />
    <glyph glyph-name="f" unicode="f" horiz-adv-x="333" 
d="M609 621c-8 -23 -32.999 -41 -56.999 -41c-17 0 -26 9 -32 36c-7 29 -17 39 -39 39c-38 0 -68 -30 -89 -89l-42 -116h123l-12 -32h-122c-48.667 -133.999 -97.2754 -268.058 -146 -402c-30 -80 -52 -116 -94 -161s-104 -72 -167 -72c-60 0 -94 26 -81 62
c8 23 33 41 57 41c17 0 25 -9 31 -36c7 -29 17 -39 39 -39c38 0 69 30 89 89c62.625 172.708 125.315 345.351 187.999 518h-82l12 32h82c30 80 51 116 93 161s105 72 168 72c60 0 94 -26 81 -62z" />
    <glyph glyph-name="g" unicode="g" 
d="M611 388h-83c2 -32 0 -55 -11 -84c-18 -50 -46 -85 -89 -113c-41 -27 -87 -42 -124 -42c-6 0 -19 1 -37 3c-3 0 -9 1 -18 2c-30 -8 -76 -43 -83 -63c-6 -16 16 -25 68 -27l127 -6c73 -3 105 -45 82 -107c-14 -38 -43 -70 -92 -101c-67 -42 -154 -68 -229 -68
c-95 0 -157 44 -138 97c13 37 52 70 142 122c-34 20 -41 32 -33 53c7 20 27 40 71 69l57 40c-54 33 -67 71 -44 134c33 91 133 163 226 163c26 0 52 -5 75 -15l19 -8c17 -7 31 -10 51 -10h77zM410 -64c13 36 -15 49 -106 49c-49 0 -128 6 -158 13c-60 -50 -72 -63 -80 -86
c-16 -44 31 -73 119 -73c113 0 204 39 225 97zM425 265c14 39 19 85 14 120c-5 30 -25 47 -56 47c-46.7412 0 -88.9473 -36.8418 -109 -97c-35 -96 -17 -161 43 -161c46 0 88 35 108 91z" />
    <glyph glyph-name="h" unicode="h" 
d="M537 301l-68.001 -184.999c-7 -19 -18 -55 -21 -65c-1 -7 7 -15 15 -15c10 0 30 10 46 27l47 51l13 -11c-67 -84 -108 -114 -157 -114c-59 0 -52 58 -24 134l64 177c25 70 14 106 -36 106c-39 0 -75 -17 -134 -63c-38 -104 -75.916 -208.084 -113.999 -312.001l-95 -31
c69.3564 191.31 139.356 381.977 209 573c16 43 10 51 -33 51c-5 0 -8 0 -12 -1l6 16l29 8c62 16 91 24 129 36l3 -3l-110 -304c68 60 118 84 177 84c81 0 104 -54 66 -159z" />
    <glyph glyph-name="i" unicode="i" horiz-adv-x="278" 
d="M396 571c-11 -29 -41 -51 -70 -51c-28 0 -43 22 -32 51c10 28 41 51 69 51c29 0 43 -23 33 -51zM217 334c7 19 18 55 21 65c1 7 -8 15 -16 15c-10 0 -29 -10 -45 -27l-47 -51l-13 11c67 84 108 114 157 114c59 0 52 -58 24 -134l-77 -211c-7 -19 -18 -55 -21 -65
c-1 -7 7 -15 15 -15c10 0 30 10 46 27l47 51l13 -11c-67 -84 -108 -114 -157 -114c-59 0 -52 58 -24 134z" />
    <glyph glyph-name="j" unicode="j" horiz-adv-x="278" 
d="M410 571c-11 -29 -41 -51 -70 -51c-28 0 -43 22 -32 51c10 28 41 51 69 51c29 0 43 -23 33 -51zM220 394c-10 0 -30 -1 -46 -4l6 16c66 18 108 31 175 54l4 -3l-166 -457c-52 -142 -138 -218 -249 -218c-54 0 -85 23 -73 55c8 22 32 39 55 39c16 0 26 -9 36 -32
c9 -21 17 -28 32 -28c14 0 31 8 41 18c18 20 30 45 58 121l138 379c16 43 12 60 -11 60z" />
    <glyph glyph-name="k" unicode="k" 
d="M338 282c33.6943 -79.3057 66.8613 -159.138 100.999 -238c2 -5 5 -13 11 -13c8 0 27 8 39 21l53 57l10 -11c-63 -80 -107 -109 -151 -109c-18 0 -33 2 -46 15c-35.6797 79.3203 -65.4316 164.568 -98 247c-26.6562 -73.3438 -53.4697 -146.53 -80 -220l-95 -31
c68.6338 187.7 136.635 376.032 205 564c17 48 12 61 -21 61c-10 0 -19 -1 -32 -2l6 16c57 14 114 29 171 44l3 -2l-153 -420c93.5986 63.0684 187.083 126.251 281.001 189c12 8 22 11 35 11c29 0 46 -15 44 -40c-2 -18 -16 -32 -33 -32c-7 0 -19 3 -31 10
c-10 6 -21 9 -27 9c-4 0 -8 -2 -15 -6c-58.9824 -40.0176 -119.46 -78.54 -177 -120z" />
    <glyph glyph-name="l" unicode="l" horiz-adv-x="278" 
d="M430 681l-206 -565c-7 -19 -18 -55 -21 -65c-1 -7 7 -15 15 -15c10 0 30 10 46 27l47 51l13 -11c-67 -84 -108 -114 -157 -114c-59 0 -52 58 -24 134l160 441c17 47 12 61 -20 61c-8 0 -20 -1 -31 -2h-6l6 16c75 17 117 27 175 44z" />
    <glyph glyph-name="m" unicode="m" horiz-adv-x="778" 
d="M809 282l-60.999 -166c-7 -19 -18 -55 -21 -65c-1 -7 7 -15 15 -15c10 0 30 10 46 27l47 51l13 -11c-67 -84 -108 -114 -157 -114c-59 0 -52 58 -24 134l63 175c30 83 23 110 -34 110c-46 0 -86 -18 -132 -61c-38.3682 -105.299 -75.623 -211.711 -115.001 -316l-95 -31
c36.3701 101.297 73.3037 202.029 110 303c25 70 16 105 -28 105c-35 0 -84 -17 -117 -40c-10 -7 -22 -19 -22 -19c-38.6445 -106.022 -77.5322 -211.801 -116 -318l-95 -31c41.0957 112.571 82.0039 225.33 123 338c17 48 14 64 -12 64c-11 0 -19 -1 -33 -4l6 17
c60 15 98 26 156 45l7 -2l-28 -75c106 63 139 77 183 77c54 0 79 -27 76 -84c75 58 135 84 193 84c77 0 95 -60 52 -178z" />
    <glyph glyph-name="n" unicode="n" 
d="M537 310l-71 -194c-7 -19 -18 -55 -21 -65c-1 -7 7 -15 15 -15c10 0 30 10 46 27l47 51l13 -11c-67 -84 -108 -114 -157 -114c-59 0 -52 58 -24 134l67 185c24 66 11 97 -38 97c-33 0 -59 -12 -123 -57c-38.6377 -105.696 -77.5947 -211.072 -116 -317l-95 -31l122 335
c7 19 19 55 22 65c1 7 -8 15 -16 15c-9 0 -28 -9 -43 -25l-49 -53l-13 11c66 83 108 113 155 113c42 0 52 -32 41 -82c91 64 128 81 174 81c74 0 98 -56 64 -150z" />
    <glyph glyph-name="o" unicode="o" 
d="M555 234c-50 -138 -185 -244 -311 -244s-182 101 -133 236c50 138 176 234 306 234c128 0 186 -95 138 -226zM452 199c50 137 26 233 -58 233c-71 0 -140 -62 -175 -157c-26 -71 -35 -141 -26 -193c6 -40 35 -64 74 -64c75 0 144 68 185 181z" />
    <glyph glyph-name="p" unicode="p" 
d="M560 247c-53 -145 -185.999 -257 -303.999 -257c-42 0 -62 10 -85 43c-26.6201 -73.0469 -52.8623 -146.472 -80.001 -219l-95 -31l201 551c7 19 18 55 21 65c1 7 -8 15 -16 15c-10 0 -29 -10 -45 -27l-47 -51l-13 11c67 84 108 114 157 114c44 0 54 -32 44 -80
c64 54 116 79 172 79c97 0 135 -89 90 -213zM460.001 208c42 116 21 192 -53 192c-46 0 -115 -36 -126 -66l-90 -246c-11 -30 33 -66 80 -66c72 0 149 75 189 186z" />
    <glyph glyph-name="q" unicode="q" 
d="M591 457c-78.1416 -214.191 -155.047 -429.621 -234.001 -643l-95 -31c34.2979 93.3691 68.0654 187.269 102.001 281c-61 -48 -126 -74 -184 -74c-94 0 -127 89 -81 215c52 144 189 256 314 256c39 0 66 -9 102 -36l65 32h11zM386.999 127l75 206c24 67 6 100 -56 100
c-85 0 -165 -74 -208 -192c-24 -66 -27 -131 -6 -160c13 -20 37 -30 68 -30s68 12 97 31c13 8 21 21 30 45z" />
    <glyph glyph-name="r" unicode="r" horiz-adv-x="333" 
d="M483 407c-10 -28 -30.998 -45 -54.998 -45c-13 0 -22 6 -33 20c-7 10 -15 15 -21 15c-27 0 -87 -50 -99 -82c-34.6826 -94.6514 -68.7568 -189.911 -104.001 -284.001l-95 -31c41.1104 110.89 81.3496 222.65 121.999 334.001c7 19 18 55 21 65c1 7 -8 15 -16 15
c-10 0 -29 -10 -45 -27l-47 -51l-13 11c67 84 108 114 157 114c48 0 53 -39 38 -95c75 71 112 94 154 94c34 0 48 -20 36 -53z" />
    <glyph glyph-name="s" unicode="s" horiz-adv-x="389" 
d="M444 440c3 0 10 3 20 10h11l-46 -136h-15c10 90 -8 123 -65 123c-46 0 -87 -27 -102 -68c-10 -27 -3 -52 19 -68l84 -64c48 -36 59 -69 41 -119c-25 -70 -111 -128 -187 -128c-21 0 -44 4 -70 10c-22 6 -32 8 -43 8c-12 0 -16 -2 -27 -12h-13l56 156h16
c-14 -102 7 -140 76 -140c51 0 94 28 110 72c11 31 3 55 -25 75l-46 33c-67 49 -85 88 -65 144c27 73 101 123 183 123c24 0 46 -4 64 -12c9 -5 18 -7 24 -7z" />
    <glyph glyph-name="t" unicode="t" horiz-adv-x="278" 
d="M303 66c-52 -52 -99 -75.999 -149 -75.999c-58 0 -72 43 -41 127l109 301h-53c-8.83887 8.83887 10.6768 19.8379 23 25.999c31 15 79 52 136 107c10 9 20 18 30 28c5 0 6 -3 2 -13l-42 -116h101l-12 -32h-101l-104 -286c-23 -64 -18 -90 19 -90c22 0 42 9 73 35z" />
    <glyph glyph-name="u" unicode="u" 
d="M492 36c-56 -14 -96 -25 -153 -45l-4 2l31 83l-59 -43c-37 -27 -82 -43 -119 -43c-73 0 -102 51 -73 130l78 214c7 19 18 55 21 65c1 7 -8 15 -16 15c-10 0 -29 -10 -45 -27l-47 -51l-13 11c67 84 108 114 157 114c59 0 52 -58 24 -134l-74 -203c-15 -42 4 -76 43 -76
c31 0 67 12 104 36c15 9 25 24 35 51l115 315h84l-125 -343c-17 -46 -10 -57 36 -57h5z" />
    <glyph glyph-name="v" unicode="v" 
d="M321 114c65.667 87.666 131.329 175.338 197 263c4 6 14 10 19 16c54 56 70 68 100 68s47 -15 45 -41c-2 -19 -18 -34 -36 -34c-8 0 -19 3 -31 10c-10 6 -20 9 -26 9c-9 0 -22 -10 -39 -29c-2 -2 2 -6 0 -8c-83.875 -111.125 -168.75 -221.25 -253 -332
c-28 -37 -40 -50 -46 -50c-10 0 -9 33 -9 47l-16 287l-4 80c0 7 -4 15 -12 15c-9 0 -30 -10 -45 -26l-48 -52l-12 11c66 83 107 113 155 113c30 0 49 -13 50 -39l3 -52z" />
    <glyph glyph-name="w" unicode="w" horiz-adv-x="722" 
d="M550 116c65.5586 85.7754 132.316 170.35 196.999 257c4 5 10 9 15 14c56 62 70 74 103 74c31 0 49 -16 47 -43c-2 -21 -19 -37 -39 -37c-8 0 -19 3 -32 10c-10 6 -19 9 -25 9c-10 0 -23 -9 -41 -30c-1 -2 3 -6 2 -8l15 19l-264 -346c-31 -40 -39 -49 -46 -49
c-6 0 -7 6 -8 43l-6 236l-199 -240c-21 -26 -34 -39 -39 -39c-6 0 -9 14 -10 44c-4.00879 123.991 -7.93457 248.065 -12 372c0 7 -4 15 -12 15s-28 -9 -41 -23l-51 -55l-11 11c64 81 107 111 153 111c28 0 44 -13 49 -39c2.06641 -103.268 3.2998 -207.368 5.00098 -311
l164 199v56c0 54 -8 65 -44 69l6 15h203l-6 -15c-50 -7 -63 -14 -71 -36c-5 -13 -4 -13 -4 -59z" />
    <glyph glyph-name="x" unicode="x" 
d="M479 0h-201l5 15c34 2 42 6 49 24c2 6 3 12 1 18l-40 140l-124 -123c-20 -20 -33 -35 -35 -41c-5 -13 5 -18 33 -18l-5 -15h-145l5 15c34 3 47 10 92 51l174 165l-42 144l-7 29c-2 6 -4 14 -11 14c-8 0 -25 -9 -38 -22l-53 -56l-10 11c63 81 104 110 149 110
c21 0 40 -5 45 -22l31 -115l7 -20l132 129c25 24 41 28 64 28c32 0 51 -17 48 -45c-2 -22 -20 -39 -41 -39c-9 0 -20 4 -33 11c-10 6 -18 9 -24 9c-4 0 -7 -3 -11 -6l-126 -120l56 -196c15 -44 29 -60 60 -60z" />
    <glyph glyph-name="y" unicode="y" 
d="M633 435c-25 -3 -39 -13 -64 -45l-303 -408c-106 -144 -174 -200 -241 -200c-42 0 -65 25 -53 58c9 24 36 44 59 44c17 0 33 -4 49 -11c8 -5 16 -7 22 -7c14 0 44 19 67 45c28 30 74 93 79 108c3 8 3 20 2 37l-38 348c-1 6 -5 13 -12 13c-9 0 -27 -9 -41 -23l-51 -55
l-12 11c64 82 108 111 154 111c26 0 43 -9 50 -32l7 -59l23 -253l197 276c19.418 22.6543 16.625 42 -29 42l6 15h135z" />
    <glyph glyph-name="z" unicode="z" horiz-adv-x="444" 
d="M467 135l-63 -135h-377l5 15l414 405h-138c-60 0 -80 -15 -116 -88h-18l46 118h347l-6 -15l-416 -405h138c51 0 88 9 108 26c19 17 32 33 60 83z" />
    <glyph glyph-name="braceleft" unicode="{" horiz-adv-x="480" 
d="M284 -181c-66 1 -91 7 -112 25s-22 59 -2 115l64 177c25 69 16 93 -43 114c74 20 101 43 126 113l65 178c21 57 49 96 85 114s65 24 131 25l-5 -11c-76 -18 -108 -48 -135 -123l-61 -168c-30 -83 -59 -109 -141 -129c68 -19 77 -45 47 -128l-61 -168
c-27 -75 -16 -105 46 -123z" />
    <glyph glyph-name="bar" unicode="|" horiz-adv-x="200" 
d="M76 -156h-66l298 818h66z" />
    <glyph glyph-name="braceright" unicode="}" horiz-adv-x="480" 
d="M471 250c-75 -21 -102 -44 -127 -114l-64 -178c-21 -57 -50 -96 -86 -114s-64 -24 -130 -25l4 11c76 18 109 48 136 123l61 168c30 83 59 109 141 129c-68 19 -78 44 -47 128l61 168c27 75 15 105 -47 123l5 11c67 -1 90 -7 111 -25s23 -59 3 -115l-65 -177
c-25 -70 -16 -93 44 -113z" />
    <glyph glyph-name="asciitilde" unicode="~" horiz-adv-x="541" 
d="M601 271c-69 -64 -108 -85 -154 -85c-45 0 -61 7 -133 54c-14 9 -33 14 -54 14c-31 0 -52 -12 -92 -51l-42 32c69 64 107 85 153 85c45 0 61 -7 133 -54c14 -9 33 -14 54 -14c31 0 52 12 92 51z" />
    <glyph glyph-name="uni00A0" unicode="&#xa0;" horiz-adv-x="250" 
 />
    <glyph glyph-name="exclamdown" unicode="&#xa1;" horiz-adv-x="666" 
d="M756 504h-40l-118 97c-16 13 -21 26 -15 42c7 20 25 32 47 32c15 0 22 -5 33 -23zM453 596c-5 -14 -11 -25 -16 -37l-184 -383h-13l30 108c16 54 62 271 78 315c17 47 48 77 81 77c34 0 43 -28 24 -80zM253 43c-11 -30 -42 -52 -74 -52c-30 0 -44 22 -33 52
c11 31 43 55 73 55s45 -25 34 -55z" />
    <glyph glyph-name="cent" unicode="&#xa2;" 
d="M505 156c-59 -70 -88 -97 -134 -127c-37 -24 -79 -38 -117 -38c-17 0 -32 2 -53 9l-99 -138h-34l105 150c-29 21 -39 34 -48 59c-14 40 -12 94 8 148c49 135 183 241 307 241c14 0 27 -1 50 -5l89 124h35l-96 -135c41 -19 57 -49 44 -84c-9 -26 -34 -45 -59 -45
s-35 13 -39 52l-207 -291c21 -9 34 -12 54 -12c59 0 105 25 184 100zM466 421c-15 7 -26 9 -43 9c-82 0 -161 -68 -198 -170c-26 -72 -24 -117 9 -162z" />
    <glyph glyph-name="sterling" unicode="&#xa3;" 
d="M540 136c-6 -17 -44 -61 -74 -85c-45 -37 -99 -58 -147 -58c-43 0 -70 14 -121 61c-57 -47 -86 -62 -121 -62c-41 0 -59 24 -45 62c17 46 64 76 118 76c15 0 26 -1 44 -5c6 8 9 14 12 21c7 18 10 35 44 182h-108l17 45h107c4 26 9 45 18 69c52 143 161 234 280 234
c74 0 115 -40 96 -93c-11 -31 -40 -53 -69 -53c-30 0 -33 14 -15 67c12 35 0 52 -37 52c-60 0 -113 -51 -145 -139c-13 -36 -22 -69 -39 -137h125l-17 -45h-121c-6.06934 -18.5977 -12.4229 -36.9102 -19 -55c-13 -35 -16 -40 -84 -162c55 -27 88 -35 137 -35
c46 0 86 15 130 49c14 11 24 16 29 16c4 0 6 -2 5 -5zM170 76c3 8 -23 18 -47 18c-33 0 -55 -13 -64 -37c-8 -22 3 -37 27 -37c20 0 35 6 55 23c16 13 26 25 29 33z" />
    <glyph glyph-name="currency" unicode="&#xa4;" 
d="M561 108l-66 -50l-62 98c-50 -28 -93 -41 -140 -41s-81 12 -112 41l-132 -98l-32 50l133 96c-14 42 -12 78 5 126s43 86 87 126l-62 98l67 48l61 -96c54 28 93 39 141 39c49 0 82 -12 111 -39l133 96l31 -48l-132 -98c13 -43 11 -76 -7 -125c-17 -48 -40 -82 -85 -127z
M518 332c30 83 -11 149 -94 149c-80 0 -171 -68 -201 -150c-31 -84 11 -152 93 -152s171 67 202 153z" />
    <glyph glyph-name="yen" unicode="&#xa5;" 
d="M746 643c-55 -11 -95 -38 -157 -107l-159 -184h146l-14 -40h-166l-13 -14l-27 -76h173l-15 -40h-173l-26 -73c-25 -70 -16 -88 47 -90l-7 -19h-244l7 19c68 3 86 18 116 101l22 62h-174l15 40h174l27 76l-1 14h-167l14 40h144l-32 173c-19 99 -30 115 -75 118l7 19h243
l-7 -19c-67.4688 -1.43555 -86.2607 -15.915 -79 -74l38 -221l192 220c15 17 26 34 30 44c7 19 -10 31 -40 31h-14l7 19h195z" />
    <glyph glyph-name="brokenbar" unicode="&#xa6;" horiz-adv-x="200" 
d="M255 335h-66l119 327h66zM76 -156h-66l119 327h66z" />
    <glyph glyph-name="section" unicode="&#xa7;" 
d="M515 245c-25 -70 -92 -120 -160 -120h-18c51 -65 60 -95 41 -146c-28 -76 -103 -127 -190 -127c-78 0 -121 44 -101 100c11 31 42 54 73 54c27 0 42 -18 33 -42c-5 -14 -17 -27 -38 -41c-9 -6 -15 -11 -16 -15c-7 -18 21 -35 58 -35c53 0 98 30 115 77
c14 39 1 71 -47 115c-91 84 -118 148 -91 221c25 68 92 119 158 119c6 0 15 0 25 -1c-56 66 -65 96 -45 150c26 72 100 122 183 122c73 0 112 -42 92 -98c-12 -33 -38 -53 -70 -53c-27 0 -40 18 -31 43c6 16 22 32 42 44c7 5 11 8 12 11c7 18 -17 32 -51 32
c-51 0 -95 -29 -110 -71c-9 -25 -6 -54 8 -71l96 -113c41 -48 51 -102 32 -155zM451 212c9 26 3 59 -19 93c-29 46 -71 78 -102 78c-39 0 -78 -28 -92 -67c-11 -30 -8 -53 14 -87c38 -60 68 -83 106 -83c37 0 80 31 93 66z" />
    <glyph glyph-name="dieresis" unicode="&#xa8;" horiz-adv-x="250" 
d="M-10 109c-10 -27 -41 -49 -69 -49c-27 0 -40 22 -30 50c9 26 41 49 66 49c28 0 43 -23 33 -50zM189 109c-10 -27 -41 -49 -69 -49c-27 0 -40 22 -30 50c9 26 41 49 66 49c28 0 43 -23 33 -50z" />
    <glyph glyph-name="copyright" unicode="&#xa9;" horiz-adv-x="760" 
d="M852 336c-70 -193 -284 -350 -477 -350s-293 157 -223 350s285 350 478 350s292 -157 222 -350zM814 336c63 172 -26 312 -198 312s-363 -140 -426 -312s27 -312 199 -312s362 140 425 312zM391 340c-38 -104 -13 -174 88 -174c52 0 101 17 163 58l8 -12
c-55 -48 -129 -75 -201 -75c-127 0 -185 78 -142 196c24 65 70 120 131 156c50 29 108 46 157 46c31 0 60 -5 88 -14c9 -3 17 -5 23 -5c12 0 24 7 31 19h17l-44 -133h-17c2 38 -1 54 -14 72c-17 23 -45 35 -81 35c-90 0 -170 -67 -207 -169z" />
    <glyph glyph-name="ordfeminine" unicode="&#xaa;" 
d="M466 116c-7 -19 -18 -55 -21 -65c-1 -7 7 -15 15 -15c10 0 30 10 46 27l47 51l13 -11c-67 -84 -108 -114 -157 -114c-40 0 -55 27 -48 68c-51 -47 -97 -67 -153 -67c-110 0 -153 87 -106 215c52 142 185 255 300 255c40 0 64 -11 90 -43l1 2l95 31zM377 102l84 230
c19 53 -13 100 -66 100c-76 0 -152 -74 -193 -187c-45 -123 -19 -203 64 -203c29 0 58 10 83 30c14 11 25 23 28 30z" />
    <glyph glyph-name="guillemotleft" unicode="&#xab;" 
d="M293 42c-2 -5 -7 -9 -13 -9c-4 0 -6 1 -8 6c-37 56 -63 92 -113 156l-21 27l41 27c96 63 149 100 226 156c6 5 9 6 13 6c6 0 8 -4 6 -9c-4 -12 -69 -77 -180 -170l-14 -12l6 -12c44 -92 61 -154 57 -166zM483 42c-2 -5 -7 -9 -13 -9c-4 0 -6 1 -8 6
c-37 56 -63 92 -113 156l-21 27l41 27c96 63 149 100 226 156c6 5 9 6 13 6c6 0 8 -4 6 -9c-4 -12 -69 -77 -180 -170l-14 -12l6 -12c44 -92 61 -154 57 -166z" />
    <glyph glyph-name="logicalnot" unicode="&#xac;" horiz-adv-x="564" 
d="M657 366l-72 -199h-66l48 133h-418l24 66h484z" />
    <glyph glyph-name="uni00AD" unicode="&#xad;" horiz-adv-x="333" 
d="M356 194h-246l23 63h246z" />
    <glyph glyph-name="registered" unicode="&#xae;" horiz-adv-x="760" 
d="M852 336c-70 -193 -284 -350 -477 -350s-293 157 -223 350s285 350 478 350s292 -157 222 -350zM814 336c63 172 -26 312 -198 312s-363 -140 -426 -312s27 -312 199 -312s362 140 425 312zM636 145h-105l-86 176l-29 -1l-40 -111c-14 -39 -10 -47 35 -50l-5 -14h-176
l5 14c47 3 54 11 70 56l91 248c14 39 13 46 -32 50l5 14h175c61 0 110 -15 125 -39c11 -17 11 -38 2 -63c-10 -28 -32 -52 -58 -67c-25 -15 -47 -22 -91 -30l76 -143c11 -18 21 -24 43 -26zM594 426c19 52 -7 76 -83 76c-22 0 -30 -4 -35 -18l-50 -139c55 1 78 4 110 18
c26 11 48 35 58 63z" />
    <glyph glyph-name="macron" unicode="&#xaf;" horiz-adv-x="250" 
d="M177 60h-311l20 54h311z" />
    <glyph glyph-name="degree" unicode="&#xb0;" horiz-adv-x="400" 
d="M537 532c-29 -80 -116 -142 -197 -142c-78 0 -118 64 -89 143c29 80 115 143 195 143s120 -63 91 -144zM498 533c21 59 -8 109 -64 109c-57 0 -123 -50 -144 -109s7 -109 63 -109c58 0 123 49 145 109z" />
    <glyph glyph-name="plusminus" unicode="&#xb1;" horiz-adv-x="564" 
d="M627 283h-209l-58 -158h-66l58 158h-209l24 66h209l76 209h66l-76 -209h209zM524 0h-484l24 66h484z" />
    <glyph glyph-name="two.superior" unicode="&#xb2;" horiz-adv-x="300" 
d="M425 355l-68 -85h-253l9 23l137 107c70 54 119 107 130 137c15 42 -5 76 -45 76c-37 0 -72 -22 -111 -70l-20 14c33 46 49 65 77 84c31 23 71 35 111 35c78 0 115 -43 92 -106c-18 -49 -55 -90 -138 -150l-117 -85h121c27 0 38 5 61 27z" />
    <glyph glyph-name="three.superior" unicode="&#xb3;" horiz-adv-x="300" 
d="M436 398c-28 -78 -133 -136 -244 -136c-52 0 -76 18 -64 50c8 21 28 37 48 37c11 0 20 -5 34 -19c16 -16 26 -20 45 -20c41 0 78 27 93 68c11 31 6 56 -16 71c-13 9 -34 16 -47 14l-25 -3l11 29c78 24 112 46 125 82c11 31 -4 49 -40 49c-34 0 -59 -14 -105 -57l-19 18
c60 68 109 95 170 95c60 0 95 -37 78 -83c-10 -28 -36 -51 -90 -82c50 -23 65 -61 46 -113z" />
    <glyph glyph-name="acute" unicode="&#xb4;" horiz-adv-x="250" 
d="M276 199c-6 -16 -19 -29 -45 -42l-190 -97h-40l201 148c25 18 36 23 51 23c22 0 30 -12 23 -32z" />
    <glyph glyph-name="mu" unicode="&#xb5;" horiz-adv-x="590" 
d="M591 113c-23 -62 -66 -127 -120 -127c-46 0 -79 22 -89 57c-37 -34 -82 -57 -126 -57c-46 0 -86 14 -109 39c-28 -93 -48 -185 -60 -275h-98c53 121 102 242 146 363l123 337h84l-123 -337c-19 -52 -2 -99 47 -99c40 0 80 24 111 58c-1 12 3 26 8 41l123 337h84
l-123 -337c-17 -47 -28 -99 12 -99s65 52 82 99h28z" />
    <glyph glyph-name="paragraph" unicode="&#xb6;" horiz-adv-x="453" 
d="M394 -154h-154l289 794h-58l-289 -794h-154l8 22c80 5 94 17 125 101l110 304c-62 2 -87 10 -111 34c-35 32 -37 89 -8 170c47 130 129 185 276 185h263l-7 -19c-80 -7 -95 -18 -121 -90l-216 -595c-26 -71 -19 -84 55 -90zM279 295l126 345c-41 -3 -60 -9 -83 -22
c-37 -21 -67 -66 -93 -137c-46 -126 -33 -177 50 -186z" />
    <glyph glyph-name="periodcentered" unicode="&#xb7;" horiz-adv-x="250" 
d="M272 250c-11 -31 -45 -56 -76 -56s-47 25 -36 56s45 56 76 56s47 -25 36 -56z" />
    <glyph glyph-name="cedilla" unicode="&#xb8;" horiz-adv-x="333" 
d="M213 -131c-19 -52 -78 -84 -155 -84c-32 0 -53 4 -78 16l25 31c25 -9 39 -12 60 -12c34 0 61 17 71 44c9 26 -1 36 -39 36c-11 0 -21 -1 -30 -4l-5 5l79 104h35l-51 -70c11 2 17 3 27 3c54 0 77 -26 61 -69z" />
    <glyph glyph-name="one.superior" unicode="&#xb9;" horiz-adv-x="300" 
d="M346 270h-191l9 24c44 3 57 9 65 32l93 257c8 22 8 28 2 28s-5 0 -47 -13l8 23l138 55l13 -3l-125 -343c-9 -26 -1 -33 44 -36z" />
    <glyph glyph-name="ordmasculine" unicode="&#xba;" horiz-adv-x="603" 
 />
    <glyph glyph-name="guillemotright" unicode="&#xbb;" 
d="M347 222l-41 -27c-96 -63 -150 -100 -227 -156c-6 -5 -8 -6 -12 -6c-6 0 -9 4 -7 9c4 12 69 77 180 170l15 12l-6 12c-44 92 -62 154 -58 166c2 5 8 9 14 9c4 0 5 -1 7 -6c37 -56 64 -92 114 -156zM537 222l-41 -27c-96 -63 -150 -100 -227 -156c-6 -5 -8 -6 -12 -6
c-6 0 -9 4 -7 9c4 12 69 77 180 170l15 12l-6 12c-44 92 -62 154 -58 166c2 5 8 9 14 9c4 0 5 -1 7 -6c37 -56 64 -92 114 -156z" />
    <glyph glyph-name="onequarter" unicode="&#xbc;" horiz-adv-x="1167" 
d="M1200 167h-102l-61 -167h-77l61 167h-281l23 64l476 445h44l-162 -445h102zM1043 231l125 343l-365 -343h240zM1077 676l-701 -690h-49l704 690h46zM399 593c-21 0 -53 -12 -80 -22l5 14l213 91l7 -2l-218 -600c-17 -48 -6 -58 73 -59l-5 -15h-276l5 15c42 1 58 4 76 13
c19 9 36 32 48 65l165 453c12 32 8 47 -13 47z" />
    <glyph glyph-name="onehalf" unicode="&#xbd;" horiz-adv-x="1167" 
d="M1192 137l-105 -137h-390l4 12l247 189c116 89 197 182 225 260c31 84 -6 141 -90 141c-69 0 -116 -32 -192 -130l-19 5c43 71 69 103 113 137c52 40 112 62 167 62c104 0 157 -77 121 -177c-28 -78 -95 -154 -218 -247l-232 -176h239c45 0 61 9 119 66zM1077 676
l-701 -690h-49l704 690h46zM399 593c-21 0 -53 -12 -80 -22l5 14l213 91l7 -2l-218 -600c-17 -48 -6 -58 73 -59l-5 -15h-276l5 15c42 1 58 4 76 13c19 9 36 32 48 65l165 453c12 32 8 47 -13 47z" />
    <glyph glyph-name="threequarters" unicode="&#xbe;" horiz-adv-x="1167" 
d="M1200 167h-102l-61 -167h-77l61 167h-281l23 64l476 445h44l-162 -445h102zM1043 231l125 343l-365 -343h240zM1077 676l-701 -690h-49l704 690h46zM512 219c-46.5 -129.813 -190.583 -233 -361 -233c-70 0 -105 22 -92 57c8 21 27 35 50 35c17 0 32 -7 55 -25
c28 -24 46 -31 73 -31c74 0 154 65 185 149c25 69 7 126 -47 148c-21 9 -43 11 -102 11l5 13c77 24 110 39 151 69c34 25 62 61 75 97c23 63 -6 107 -71 107c-63 0 -119 -33 -187 -106l-14 4c44 60 68 86 108 113c48 32 98 49 148 49c92 0 135 -56 106 -137
c-20 -54 -58 -91 -144 -138c37 -19 52 -31 64 -53c18 -31 17 -78 -2 -129z" />
    <glyph glyph-name="questiondown" unicode="&#xbf;" horiz-adv-x="777" 
d="M867 504h-40l-118 97c-16 13 -21 26 -15 42c7 20 25 32 47 32c15 0 22 -5 33 -23zM604 521c-15 -41 -41 -77 -91 -126c-22 -21 -22 -21 -88 -77c-54 -47 -86 -87 -121 -154h-17c17 44 44 93 81 142l52 64c44 55 76 110 93 156c24 67 -4 120 -64 120
c-49 0 -105 -30 -117 -62c-3 -8 -2 -17 5 -31c9 -17 11 -29 6 -43c-9 -24 -32 -41 -56 -41c-31 0 -41 22 -26 62c30 83 123 145 215 145c54 0 105 -23 127 -58c15 -23 15 -59 1 -97zM307 44c-11 -30 -42 -52 -74 -52c-30 0 -44 22 -33 51c12 32 43 56 73 56
c29 0 45 -25 34 -55z" />
    <glyph glyph-name="Agrave" unicode="&#xc0;" horiz-adv-x="722" 
d="M710.5 736h-43l-138 80c-19 9 -25 20 -20 33c6 16 24 26 48 26c16 0 24 -4 39 -19zM458 19c76.543 0 93.4668 24.4658 88 101l-6 96h-262l-89 -117c-10 -13 -18 -27 -22 -39c-10 -28 5 -41 53 -41l-7 -19h-198l7 19c49 3 67 18 184 164l386 491h20l43 -568
c8 -74 14 -84 58 -87l-7 -19h-255zM541 257l-16 275l-215 -275h231z" />
    <glyph glyph-name="Aacute" unicode="&#xc1;" horiz-adv-x="722" 
d="M1261.5 637c-5 -13 -19 -24 -44 -33l-196 -80h-43l202 120c25 15 37 19 53 19c24 0 34 -10 28 -26zM458 19c76.543 0 93.4668 24.4658 88 101l-6 96h-262l-89 -117c-10 -13 -18 -27 -22 -39c-10 -28 5 -41 53 -41l-7 -19h-198l7 19c49 3 67 18 184 164l386 491h20
l43 -568c8 -74 14 -84 58 -87l-7 -19h-255zM541 257l-16 275l-215 -275h231z" />
    <glyph glyph-name="Acircumflex" unicode="&#xc2;" horiz-adv-x="722" 
d="M458 19c76.543 0 93.4668 24.4658 88 101l-6 96h-262l-89 -117c-10 -13 -18 -27 -22 -39c-10 -28 5 -41 53 -41l-7 -19h-198l7 19c49 3 67 18 184 164l386 491h20l43 -568c8 -74 14 -84 58 -87l-7 -19h-255zM541 257l-16 275l-215 -275h231z" />
    <glyph glyph-name="Atilde" unicode="&#xc3;" horiz-adv-x="722" 
d="M893.5 842c-49 -76 -89 -106 -144 -106c-25 0 -38 4 -72 24l-19 11c-12 7 -25 11 -37 11c-23 0 -46 -15 -68 -46h-29c39 65 88 101 138 101c22 0 44 -6 63 -18l20 -12c16 -9 33 -15 48 -15c23 0 40 12 71 50h29zM458 19c76.543 0 93.4668 24.4658 88 101l-6 96h-262
l-89 -117c-10 -13 -18 -27 -22 -39c-10 -28 5 -41 53 -41l-7 -19h-198l7 19c49 3 67 18 184 164l386 491h20l43 -568c8 -74 14 -84 58 -87l-7 -19h-255zM541 257l-16 275l-215 -275h231z" />
    <glyph glyph-name="Adieresis" unicode="&#xc4;" horiz-adv-x="722" 
d="M656.5 785c-10 -27 -40 -49 -68 -49c-27 0 -40 22 -30 50c9 26 41 49 66 49c28 0 42 -23 32 -50zM855.5 785c-10 -27 -40 -49 -68 -49c-27 0 -40 22 -30 50c9 26 41 49 66 49c28 0 42 -23 32 -50zM458 19c76.543 0 93.4668 24.4658 88 101l-6 96h-262l-89 -117
c-10 -13 -18 -27 -22 -39c-10 -28 5 -41 53 -41l-7 -19h-198l7 19c49 3 67 18 184 164l386 491h20l43 -568c8 -74 14 -84 58 -87l-7 -19h-255zM541 257l-16 275l-215 -275h231z" />
    <glyph glyph-name="Aring" unicode="&#xc5;" horiz-adv-x="722" 
d="M458 19c76.543 0 93.4668 24.4658 88 101l-6 96h-262l-89 -117c-10 -13 -18 -27 -22 -39c-10 -28 5 -41 53 -41l-7 -19h-198l7 19c49 3 67 18 184 164l386 491h20l43 -568c8 -74 14 -84 58 -87l-7 -19h-255zM541 257l-16 275l-215 -275h231zM747 796
c-20 -55 -81 -99 -136 -99c-56 0 -83 44 -63 100c20 54 81 99 135 99c55 0 84 -45 64 -100zM713 796c13 36 -6 66 -41 66c-36 0 -77 -29 -90 -65s5 -66 40 -66c37 0 78 29 91 65z" />
    <glyph glyph-name="AE" unicode="&#xc6;" horiz-adv-x="889" 
d="M741 366c111.099 0 133.625 22.1846 168 97.001h21l-86 -234h-21c10 41 12 56 7 72c-6 18 -30 28 -68 28h-145l-87 -238c-18 -50 -15 -53 50 -53h76c108 0 146 20 244 130h24l-105 -168h-510l7 19l18 2c63 7 79 21 103 87l56 152h-176l-48 -53
c-68 -78 -113 -136 -121 -158c-5 -15 15 -26 57 -30h1l-7 -19h-199l7 19c45 6 61 17 116 78l421 484c35.8037 39.3838 33.1406 58.1514 -58 60.999l7 20h564l-51 -141h-23c20 91 2 105 -144 105h-87c-19 0 -30 -8 -38 -30l-84 -230h111zM507 299.001l116 319l-275 -319h159z
" />
    <glyph glyph-name="Ccedilla" unicode="&#xc7;" horiz-adv-x="667" 
d="M546.996 -143c-19 -52 -78 -84 -155 -84c-32 0 -53 4 -78 16l25 31c25 -9 39 -12 60 -12c34 0 61 17 71 44c9 26 -1 36 -39 36c-11 0 -21 -1 -30 -4l-5 5l79 104h35l-51 -70c11 2 17 3 27 3c54 0 77 -26 61 -69zM674 113c-90 -81 -206 -127 -319 -127
c-199 0 -283 136 -209 339c41 114 117 209 216 272c79 50 169 79 246 79c49 0 95 -8 138 -24c14 -6 27 -9 37 -9c19 0 39 12 53 33h21l-73 -226h-23c5 65 -1 93 -21 125c-25 40 -69 61 -127 61c-145 0 -280 -117 -346 -298c-68.5654 -189.372 -26.376 -308 136 -308
c83 0 160 30 260 101z" />
    <glyph glyph-name="Egrave" unicode="&#xc8;" horiz-adv-x="611" 
d="M705 736h-43l-138 80c-19 9 -25 20 -20 33c6 16 24 26 48 26c16 0 24 -4 39 -19zM659 169l-107 -169h-540l7 19c75 5 94 19 120 90l161 444c26 71 18 84 -54 90l7 19h531l-49 -143h-25c16 90 -1 105 -114 105h-135c-27 0 -35 -6 -45 -34l-81 -222h154c81 0 102 13 145 95
h23l-85 -232h-23c17 83 7 96 -75 96h-154l-90 -247c-7 -19 -9 -28 -4 -32c6 -7 45 -11 93 -11h27c143 0 196 24 285 132h28z" />
    <glyph glyph-name="Eacute" unicode="&#xc9;" horiz-adv-x="611" 
d="M1256 637c-5 -13 -19 -24 -44 -33l-196 -80h-43l202 120c25 15 37 19 53 19c24 0 34 -10 28 -26zM659 169l-107 -169h-540l7 19c75 5 94 19 120 90l161 444c26 71 18 84 -54 90l7 19h531l-49 -143h-25c16 90 -1 105 -114 105h-135c-27 0 -35 -6 -45 -34l-81 -222h154
c81 0 102 13 145 95h23l-85 -232h-23c17 83 7 96 -75 96h-154l-90 -247c-7 -19 -9 -28 -4 -32c6 -7 45 -11 93 -11h27c143 0 196 24 285 132h28z" />
    <glyph glyph-name="Ecircumflex" unicode="&#xca;" horiz-adv-x="611" 
d="M659 169l-107 -169h-540l7 19c75 5 94 19 120 90l161 444c26 71 18 84 -54 90l7 19h531l-49 -143h-25c16 90 -1 105 -114 105h-135c-27 0 -35 -6 -45 -34l-81 -222h154c81 0 102 13 145 95h23l-85 -232h-23c17 83 7 96 -75 96h-154l-90 -247c-7 -19 -9 -28 -4 -32
c6 -7 45 -11 93 -11h27c143 0 196 24 285 132h28z" />
    <glyph glyph-name="Edieresis" unicode="&#xcb;" horiz-adv-x="611" 
d="M651 785c-10 -27 -40 -49 -68 -49c-27 0 -40 22 -30 50c9 26 41 49 66 49c28 0 42 -23 32 -50zM850 785c-10 -27 -40 -49 -68 -49c-27 0 -40 22 -30 50c9 26 41 49 66 49c28 0 42 -23 32 -50zM659 169l-107 -169h-540l7 19c75 5 94 19 120 90l161 444c26 71 18 84 -54 90
l7 19h531l-49 -143h-25c16 90 -1 105 -114 105h-135c-27 0 -35 -6 -45 -34l-81 -222h154c81 0 102 13 145 95h23l-85 -232h-23c17 83 7 96 -75 96h-154l-90 -247c-7 -19 -9 -28 -4 -32c6 -7 45 -11 93 -11h27c143 0 196 24 285 132h28z" />
    <glyph glyph-name="Igrave" unicode="&#xcc;" horiz-adv-x="333" 
d="M535.5 736h-43l-138 80c-19 9 -25 20 -20 33c6 16 24 26 48 26c16 0 24 -4 39 -19zM315 0h-297l7 19c85 3 103 15 130 90l161 444c27 74 19 85 -64 90l7 19h297l-7 -19c-85 -4 -104 -17 -131 -90l-161 -444c-27 -73 -16 -87 65 -90z" />
    <glyph glyph-name="Iacute" unicode="&#xcd;" horiz-adv-x="333" 
d="M1086.5 637c-5 -13 -19 -24 -44 -33l-196 -80h-43l202 120c25 15 37 19 53 19c24 0 34 -10 28 -26zM315 0h-297l7 19c85 3 103 15 130 90l161 444c27 74 19 85 -64 90l7 19h297l-7 -19c-85 -4 -104 -17 -131 -90l-161 -444c-27 -73 -16 -87 65 -90z" />
    <glyph glyph-name="Icircumflex" unicode="&#xce;" horiz-adv-x="333" 
d="M315 0h-297l7 19c85 3 103 15 130 90l161 444c27 74 19 85 -64 90l7 19h297l-7 -19c-85 -4 -104 -17 -131 -90l-161 -444c-27 -73 -16 -87 65 -90z" />
    <glyph glyph-name="Idieresis" unicode="&#xcf;" horiz-adv-x="333" 
d="M481.5 785c-10 -27 -40 -49 -68 -49c-27 0 -40 22 -30 50c9 26 41 49 66 49c28 0 42 -23 32 -50zM680.5 785c-10 -27 -40 -49 -68 -49c-27 0 -40 22 -30 50c9 26 41 49 66 49c28 0 42 -23 32 -50zM315 0h-297l7 19c85 3 103 15 130 90l161 444c27 74 19 85 -64 90l7 19
h297l-7 -19c-85 -4 -104 -17 -131 -90l-161 -444c-27 -73 -16 -87 65 -90z" />
    <glyph glyph-name="Eth" unicode="&#xd0;" horiz-adv-x="722" 
d="M807 334c-35 -97 -106 -186 -192 -245c-82 -56 -199 -89 -315 -89h-284l7 19c78 5 95 18 121 90l75 206h-83l16 44h83l70 194c27 74 21 83 -55 90l7 19h270c137 0 233 -36 276 -105c35 -55 37 -133 4 -223zM695 327c39 108 29 194 -29 248c-36 34 -94 50 -183 50
c-40 0 -53 -8 -64 -39l-82 -227h146l-16 -44h-146l-87 -237c-12 -32 -3 -41 37 -41c87 0 149 12 211 41c98 47 170 131 213 249z" />
    <glyph glyph-name="Ntilde" unicode="&#xd1;" horiz-adv-x="722" 
d="M1010 842c-49 -76 -89 -106 -144 -106c-25 0 -38 4 -72 24l-19 11c-12 7 -25 11 -37 11c-23 0 -46 -15 -68 -46h-29c39 65 88 101 138 101c22 0 44 -6 63 -18l20 -12c16 -9 33 -15 48 -15c23 0 40 12 71 50h29zM941 643c-39 -4 -55 -8 -73 -18c-24 -13 -47 -50 -69 -110
l-191 -526h-17l-242 550l-142 -392c-37 -101 -29 -124 47 -128l-7 -19h-235l7 19c85 6 107 25 144 128l160 441c-23 47 -34 55 -77 55l7 19h171l209 -484l122 337c23 62 27 98 12 112c-12 9 -24 13 -61 16l7 19h235z" />
    <glyph glyph-name="Ograve" unicode="&#xd2;" horiz-adv-x="722" 
d="M771.895 736h-43l-138 80c-19 9 -25 20 -20 33c6 16 24 26 48 26c16 0 24 -4 39 -19zM807 327c-73 -201 -260 -341 -457 -341c-88 0 -163 39 -198 102c-33 58 -32 149 2 243c73 201 262 345 453 345c96 0 167 -36 205 -105c33 -60 31 -145 -5 -244zM693 328
c43 119 47 213 11 262c-24 32 -64 50 -110 50c-55 0 -112 -22 -167 -65c-59 -47 -122 -144 -159 -246c-40 -111 -44 -212 -9 -258c24 -31 62 -49 108 -49c53 0 104 18 152 53c31 23 58 48 76 73c39 52 77 121 98 180z" />
    <glyph glyph-name="Oacute" unicode="&#xd3;" horiz-adv-x="722" 
d="M1322.89 637c-5 -13 -19 -24 -44 -33l-196 -80h-43l202 120c25 15 37 19 53 19c24 0 34 -10 28 -26zM807 327c-73 -201 -260 -341 -457 -341c-88 0 -163 39 -198 102c-33 58 -32 149 2 243c73 201 262 345 453 345c96 0 167 -36 205 -105c33 -60 31 -145 -5 -244z
M693 328c43 119 47 213 11 262c-24 32 -64 50 -110 50c-55 0 -112 -22 -167 -65c-59 -47 -122 -144 -159 -246c-40 -111 -44 -212 -9 -258c24 -31 62 -49 108 -49c53 0 104 18 152 53c31 23 58 48 76 73c39 52 77 121 98 180z" />
    <glyph glyph-name="Ocircumflex" unicode="&#xd4;" horiz-adv-x="722" 
d="M807 327c-73 -201 -260 -341 -457 -341c-88 0 -163 39 -198 102c-33 58 -32 149 2 243c73 201 262 345 453 345c96 0 167 -36 205 -105c33 -60 31 -145 -5 -244zM693 328c43 119 47 213 11 262c-24 32 -64 50 -110 50c-55 0 -112 -22 -167 -65
c-59 -47 -122 -144 -159 -246c-40 -111 -44 -212 -9 -258c24 -31 62 -49 108 -49c53 0 104 18 152 53c31 23 58 48 76 73c39 52 77 121 98 180z" />
    <glyph glyph-name="Otilde" unicode="&#xd5;" horiz-adv-x="722" 
d="M954.895 842c-49 -76 -89 -106 -144 -106c-25 0 -38 4 -72 24l-19 11c-12 7 -25 11 -37 11c-23 0 -46 -15 -68 -46h-29c39 65 88 101 138 101c22 0 44 -6 63 -18l20 -12c16 -9 33 -15 48 -15c23 0 40 12 71 50h29zM807 327c-73 -201 -260 -341 -457 -341
c-88 0 -163 39 -198 102c-33 58 -32 149 2 243c73 201 262 345 453 345c96 0 167 -36 205 -105c33 -60 31 -145 -5 -244zM693 328c43 119 47 213 11 262c-24 32 -64 50 -110 50c-55 0 -112 -22 -167 -65c-59 -47 -122 -144 -159 -246c-40 -111 -44 -212 -9 -258
c24 -31 62 -49 108 -49c53 0 104 18 152 53c31 23 58 48 76 73c39 52 77 121 98 180z" />
    <glyph glyph-name="Odieresis" unicode="&#xd6;" horiz-adv-x="722" 
d="M717.895 785c-10 -27 -40 -49 -68 -49c-27 0 -40 22 -30 50c9 26 41 49 66 49c28 0 42 -23 32 -50zM916.895 785c-10 -27 -40 -49 -68 -49c-27 0 -40 22 -30 50c9 26 41 49 66 49c28 0 42 -23 32 -50zM807 327c-73 -201 -260 -341 -457 -341c-88 0 -163 39 -198 102
c-33 58 -32 149 2 243c73 201 262 345 453 345c96 0 167 -36 205 -105c33 -60 31 -145 -5 -244zM693 328c43 119 47 213 11 262c-24 32 -64 50 -110 50c-55 0 -112 -22 -167 -65c-59 -47 -122 -144 -159 -246c-40 -111 -44 -212 -9 -258c24 -31 62 -49 108 -49
c53 0 104 18 152 53c31 23 58 48 76 73c39 52 77 121 98 180z" />
    <glyph glyph-name="multiply" unicode="&#xd7;" horiz-adv-x="564" 
d="M513 102l-63 -46l-94 147l-202 -147l-29 46l201 148l-93 148l63 46l94 -147l202 147l29 -46l-201 -148z" />
    <glyph glyph-name="Oslash" unicode="&#xd8;" horiz-adv-x="722" 
d="M808 331c-74 -203 -260 -345 -454 -345c-67 0 -108 13 -157 50l-121 -116h-49l145 139c-28 38 -37 58 -42 93c-8 50 1 115 24 178c74 203 262 346 454 346c66 0 106 -13 157 -49l111 107h49l-135 -130c27 -38 37 -58 42 -93c9 -50 0 -115 -24 -180zM694 330
c32 89 40 145 30 210l-473 -452c26 -47 60 -66 118 -66c132 0 255 117 325 308zM711 575c-27 46 -62 65 -117 65c-131 0 -256 -119 -326 -310c-32 -88 -40 -143 -29 -207z" />
    <glyph glyph-name="Ugrave" unicode="&#xd9;" horiz-adv-x="722" 
d="M788.677 736h-43l-138 80c-19 9 -25 20 -20 33c6 16 24 26 48 26c16 0 24 -4 39 -19zM939 643c-86 -10 -103.999 -26 -140.999 -128l-95 -261c-28 -77 -54 -123 -93 -165c-64 -68 -151 -103 -260 -103c-170 0 -221 82 -158 255l113 312c27 73 20 84 -57 90l7 19h283
l-7 -19c-83 -7 -98 -18 -124 -90l-116 -320c-43.2549 -118.479 -39.6709 -203 97.999 -203c75 0 151 31 195 79c27 30 47 68 72 136l98 270c36 100 29 122 -47 128l7 19h232z" />
    <glyph glyph-name="Uacute" unicode="&#xda;" horiz-adv-x="722" 
d="M1339.68 637c-5 -13 -19 -24 -44 -33l-196 -80h-43l202 120c25 15 37 19 53 19c24 0 34 -10 28 -26zM939 643c-86 -10 -103.999 -26 -140.999 -128l-95 -261c-28 -77 -54 -123 -93 -165c-64 -68 -151 -103 -260 -103c-170 0 -221 82 -158 255l113 312c27 73 20 84 -57 90
l7 19h283l-7 -19c-83 -7 -98 -18 -124 -90l-116 -320c-43.2549 -118.479 -39.6709 -203 97.999 -203c75 0 151 31 195 79c27 30 47 68 72 136l98 270c36 100 29 122 -47 128l7 19h232z" />
    <glyph glyph-name="Ucircumflex" unicode="&#xdb;" horiz-adv-x="722" 
d="M939 643c-86 -10 -103.999 -26 -140.999 -128l-95 -261c-28 -77 -54 -123 -93 -165c-64 -68 -151 -103 -260 -103c-170 0 -221 82 -158 255l113 312c27 73 20 84 -57 90l7 19h283l-7 -19c-83 -7 -98 -18 -124 -90l-116 -320c-43.2549 -118.479 -39.6709 -203 97.999 -203
c75 0 151 31 195 79c27 30 47 68 72 136l98 270c36 100 29 122 -47 128l7 19h232z" />
    <glyph glyph-name="Udieresis" unicode="&#xdc;" horiz-adv-x="722" 
d="M734.677 785c-10 -27 -40 -49 -68 -49c-27 0 -40 22 -30 50c9 26 41 49 66 49c28 0 42 -23 32 -50zM933.677 785c-10 -27 -40 -49 -68 -49c-27 0 -40 22 -30 50c9 26 41 49 66 49c28 0 42 -23 32 -50zM939 643c-86 -10 -103.999 -26 -140.999 -128l-95 -261
c-28 -77 -54 -123 -93 -165c-64 -68 -151 -103 -260 -103c-170 0 -221 82 -158 255l113 312c27 73 20 84 -57 90l7 19h283l-7 -19c-83 -7 -98 -18 -124 -90l-116 -320c-43.2549 -118.479 -39.6709 -203 97.999 -203c75 0 151 31 195 79c27 30 47 68 72 136l98 270
c36 100 29 122 -47 128l7 19h232z" />
    <glyph glyph-name="Yacute" unicode="&#xdd;" horiz-adv-x="722" 
d="M1330.5 637c-5 -13 -19 -24 -44 -33l-196 -80h-43l202 120c25 15 37 19 53 19c24 0 34 -10 28 -26zM937 643c-52 -4 -86.001 -26 -179.001 -114l-231 -226l-70 -194c-28 -76 -18 -88 70 -90l-7 -19h-306l7 19c92 4 106 14 138 101l63 174l-61 192
c-49 141 -58 155 -105 157l7 19h280l-7 -19c-11 -1 -21 -1 -25 -1c-47.5547 -2.88184 -71.5693 -23.1758 -55.999 -73l67 -222l226 226c14 15 23 27 27 37c9 24 -5 32 -57 33l7 19h219z" />
    <glyph glyph-name="Thorn" unicode="&#xde;" horiz-adv-x="556" 
d="M670 351c-24 -66 -83 -127 -154 -159c-52 -24 -109 -34 -187 -34c-24 0 -42 1 -68 3l-19 -52c-27 -73 -17 -87 61 -90l-7 -19h-280l7 19c79 7 90 17 121 101l157 433c26 72 20 82 -51 90l7 19h277l-7 -19c-85 -7 -99 -20 -131 -111h80c160 0 234 -70 194 -181zM559 345
c37 103 -7 149 -145 149c-25 0 -35 -7 -44 -33l-95 -260c22 -2 36 -3 56 -3c115 0 193 50 228 147z" />
    <glyph glyph-name="germandbls" unicode="&#xdf;" 
d="M238 454c52 142 132 229 262 229c104 0 147 -60 114 -152c-26 -72 -68 -105 -193 -154c57 -12 82 -23 104 -51c28 -34 31 -84 11 -140c-40 -109 -150 -195 -250 -195c-57 0 -87 30 -71 73c10 27 37 48 63 48c22 0 33 -17 27 -40l-6 -22c-6 -22 -1 -30 18 -30
c42 0 81 45 112 130c49 135 30 204 -57 207c-23 1 -30 6 -26 17c3 9 13 13 35 15c68 7 112 48 141 128c32 87 17 139 -40 139c-52 0 -101 -42 -125 -107l-189 -518l-95 -31c55.71 150.623 109.955 302.712 165 454z" />
    <glyph glyph-name="agrave" unicode="&#xe0;" 
d="M504.185 520h-40l-118 97c-16 13 -21 26 -15 42c7 20 25 32 47 32c15 0 22 -5 33 -23zM466 116c-7 -19 -18 -55 -21 -65c-1 -7 7 -15 15 -15c10 0 30 10 46 27l47 51l13 -11c-67 -84 -108 -114 -157 -114c-40 0 -55 27 -48 68c-51 -47 -97 -67 -153 -67
c-110 0 -153 87 -106 215c52 142 185 255 300 255c40 0 64 -11 90 -43l1 2l95 31zM377 102l84 230c19 53 -13 100 -66 100c-76 0 -152 -74 -193 -187c-45 -123 -19 -203 64 -203c29 0 58 10 83 30c14 11 25 23 28 30z" />
    <glyph glyph-name="aacute" unicode="&#xe1;" 
d="M739.185 659c-6 -16 -19 -29 -45 -42l-190 -97h-40l201 148c25 18 36 23 51 23c22 0 30 -12 23 -32zM466 116c-7 -19 -18 -55 -21 -65c-1 -7 7 -15 15 -15c10 0 30 10 46 27l47 51l13 -11c-67 -84 -108 -114 -157 -114c-40 0 -55 27 -48 68c-51 -47 -97 -67 -153 -67
c-110 0 -153 87 -106 215c52 142 185 255 300 255c40 0 64 -11 90 -43l1 2l95 31zM377 102l84 230c19 53 -13 100 -66 100c-76 0 -152 -74 -193 -187c-45 -123 -19 -203 64 -203c29 0 58 10 83 30c14 11 25 23 28 30z" />
    <glyph glyph-name="acircumflex" unicode="&#xe2;" 
d="M687.185 310h-68l-38 289l-248 -289h-68l314 365h60zM466 116c-7 -19 -18 -55 -21 -65c-1 -7 7 -15 15 -15c10 0 30 10 46 27l47 51l13 -11c-67 -84 -108 -114 -157 -114c-40 0 -55 27 -48 68c-51 -47 -97 -67 -153 -67c-110 0 -153 87 -106 215c52 142 185 255 300 255
c40 0 64 -11 90 -43l1 2l95 31zM377 102l84 230c19 53 -13 100 -66 100c-76 0 -152 -74 -193 -187c-45 -123 -19 -203 64 -203c29 0 58 10 83 30c14 11 25 23 28 30z" />
    <glyph glyph-name="atilde" unicode="&#xe3;" 
d="M1111.18 254c-69 -64 -108 -85 -154 -85c-45 0 -61 7 -133 54c-14 9 -33 14 -54 14c-31 0 -52 -12 -92 -51l-42 32c69 64 107 85 153 85c45 0 61 -7 133 -54c14 -9 33 -14 54 -14c31 0 52 12 92 51zM466 116c-7 -19 -18 -55 -21 -65c-1 -7 7 -15 15 -15c10 0 30 10 46 27
l47 51l13 -11c-67 -84 -108 -114 -157 -114c-40 0 -55 27 -48 68c-51 -47 -97 -67 -153 -67c-110 0 -153 87 -106 215c52 142 185 255 300 255c40 0 64 -11 90 -43l1 2l95 31zM377 102l84 230c19 53 -13 100 -66 100c-76 0 -152 -74 -193 -187c-45 -123 -19 -203 64 -203
c29 0 58 10 83 30c14 11 25 23 28 30z" />
    <glyph glyph-name="adieresis" unicode="&#xe4;" 
d="M452.185 569c-10 -27 -41 -49 -69 -49c-27 0 -40 22 -30 50c9 26 41 49 66 49c28 0 43 -23 33 -50zM651.185 569c-10 -27 -41 -49 -69 -49c-27 0 -40 22 -30 50c9 26 41 49 66 49c28 0 43 -23 33 -50zM466 116c-7 -19 -18 -55 -21 -65c-1 -7 7 -15 15 -15
c10 0 30 10 46 27l47 51l13 -11c-67 -84 -108 -114 -157 -114c-40 0 -55 27 -48 68c-51 -47 -97 -67 -153 -67c-110 0 -153 87 -106 215c52 142 185 255 300 255c40 0 64 -11 90 -43l1 2l95 31zM377 102l84 230c19 53 -13 100 -66 100c-76 0 -152 -74 -193 -187
c-45 -123 -19 -203 64 -203c29 0 58 10 83 30c14 11 25 23 28 30z" />
    <glyph glyph-name="aring" unicode="&#xe5;" 
d="M679.185 662c-29 -80 -116 -142 -197 -142c-78 0 -118 64 -89 143c29 80 115 143 195 143s120 -63 91 -144zM640.185 663c21 59 -8 109 -64 109c-57 0 -123 -50 -144 -109s7 -109 63 -109c58 0 123 49 145 109zM466 116c-7 -19 -18 -55 -21 -65c-1 -7 7 -15 15 -15
c10 0 30 10 46 27l47 51l13 -11c-67 -84 -108 -114 -157 -114c-40 0 -55 27 -48 68c-51 -47 -97 -67 -153 -67c-110 0 -153 87 -106 215c52 142 185 255 300 255c40 0 64 -11 90 -43l1 2l95 31zM377 102l84 230c19 53 -13 100 -66 100c-76 0 -152 -74 -193 -187
c-45 -123 -19 -203 64 -203c29 0 58 10 83 30c14 11 25 23 28 30z" />
    <glyph glyph-name="ae" unicode="&#xe6;" horiz-adv-x="667" 
d="M686 149c-48 -59 -77 -87 -113 -111c-48 -32 -95 -48 -142 -48c-57 0 -87 21 -102 73c-88 -56 -129 -73 -179 -73c-68 0 -100 45 -76 110c22 60 79 101 202 145l99 36l25 63c9 23 16 54 13 69c-2 14 -17 23 -41 23c-42 0 -82 -23 -87 -50c0 -3 -1 -6 -1 -6l-4 -11l-5 -17
c-10 -29 -32 -48 -60 -48c-27 0 -38 19 -27 48c23 62 108 108 199 108c49 0 75 -12 101 -45c57 34 89 45 135 45c101 0 130 -54 94 -183h-262c-35 -99 -42 -131 -35 -170c6 -30 36 -50 77 -50c57 0 106 27 179 97zM326 88c1 38 8 76 21 113l19 52
c-137 -44 -174 -68 -196 -128c-17 -48 -1 -87 36 -87s113 32 120 50zM633 307c30 87 20 124 -34 124c-57 0 -95 -36 -132 -124h166z" />
    <glyph glyph-name="ccedilla" unicode="&#xe7;" horiz-adv-x="444" 
d="M331.562 -139c-19 -52 -78 -84 -155 -84c-32 0 -53 4 -78 16l25 31c25 -9 39 -12 60 -12c34 0 61 17 71 44c9 26 -1 36 -39 36c-11 0 -21 -1 -30 -4l-5 5l79 104h35l-51 -70c11 2 17 3 27 3c54 0 77 -26 61 -69zM466 147c-55 -62 -85 -91 -124 -115
c-44 -28 -88 -42 -131 -42c-111 0 -156 93 -109 222c30 83 86 152 156 197c52 33 106 51 153 51c84 0 137 -47 117 -103c-8 -23 -36 -42 -62 -42c-22 0 -35 17 -32 46l2 22c3 37 -5 48 -41 48c-81 0 -161 -70 -199 -174c-42 -115 -8 -195 84 -195c57 0 102 24 175 94z" />
    <glyph glyph-name="egrave" unicode="&#xe8;" horiz-adv-x="444" 
d="M497.104 520h-40l-118 97c-16 13 -21 26 -15 42c7 20 25 32 47 32c15 0 22 -5 33 -23zM481 157c-81 -108 -177 -167 -273 -167c-115 0 -155 86 -105 224c53 146 174 246 298 246c52 0 91 -21 108 -57c13 -32 13 -61 -3 -126h-308c-21 -64 -26 -99 -20 -138
c9 -54 41 -80 96 -80c64 0 118 29 194 105zM415 309c19 87 5 115 -56 115s-108 -36 -148 -115h204z" />
    <glyph glyph-name="eacute" unicode="&#xe9;" horiz-adv-x="444" 
d="M732.104 659c-6 -16 -19 -29 -45 -42l-190 -97h-40l201 148c25 18 36 23 51 23c22 0 30 -12 23 -32zM481 157c-81 -108 -177 -167 -273 -167c-115 0 -155 86 -105 224c53 146 174 246 298 246c52 0 91 -21 108 -57c13 -32 13 -61 -3 -126h-308c-21 -64 -26 -99 -20 -138
c9 -54 41 -80 96 -80c64 0 118 29 194 105zM415 309c19 87 5 115 -56 115s-108 -36 -148 -115h204z" />
    <glyph glyph-name="ecircumflex" unicode="&#xea;" horiz-adv-x="444" 
d="M680.104 310h-68l-38 289l-248 -289h-68l314 365h60zM481 157c-81 -108 -177 -167 -273 -167c-115 0 -155 86 -105 224c53 146 174 246 298 246c52 0 91 -21 108 -57c13 -32 13 -61 -3 -126h-308c-21 -64 -26 -99 -20 -138c9 -54 41 -80 96 -80c64 0 118 29 194 105z
M415 309c19 87 5 115 -56 115s-108 -36 -148 -115h204z" />
    <glyph glyph-name="edieresis" unicode="&#xeb;" horiz-adv-x="444" 
d="M445.104 569c-10 -27 -41 -49 -69 -49c-27 0 -40 22 -30 50c9 26 41 49 66 49c28 0 43 -23 33 -50zM644.104 569c-10 -27 -41 -49 -69 -49c-27 0 -40 22 -30 50c9 26 41 49 66 49c28 0 43 -23 33 -50zM481 157c-81 -108 -177 -167 -273 -167c-115 0 -155 86 -105 224
c53 146 174 246 298 246c52 0 91 -21 108 -57c13 -32 13 -61 -3 -126h-308c-21 -64 -26 -99 -20 -138c9 -54 41 -80 96 -80c64 0 118 29 194 105zM415 309c19 87 5 115 -56 115s-108 -36 -148 -115h204z" />
    <glyph glyph-name="igrave" unicode="&#xec;" horiz-adv-x="278" 
d="M346 520h-40l-118 97c-16 13 -21 26 -15 42c7 20 25 32 47 32c15 0 22 -5 33 -23zM217 334c7 19 18 55 21 65c1 7 -8 15 -16 15c-10 0 -29 -10 -45 -27l-47 -51l-13 11c67 84 108 114 157 114c59 0 52 -58 24 -134l-77 -211c-7 -19 -18 -55 -21 -65c-1 -7 7 -15 15 -15
c10 0 30 10 46 27l47 51l13 -11c-67 -84 -108 -114 -157 -114c-59 0 -52 58 -24 134z" />
    <glyph glyph-name="iacute" unicode="&#xed;" horiz-adv-x="278" 
d="M581 659c-6 -16 -19 -29 -45 -42l-190 -97h-40l201 148c25 18 36 23 51 23c22 0 30 -12 23 -32zM217 334c7 19 18 55 21 65c1 7 -8 15 -16 15c-10 0 -29 -10 -45 -27l-47 -51l-13 11c67 84 108 114 157 114c59 0 52 -58 24 -134l-77 -211c-7 -19 -18 -55 -21 -65
c-1 -7 7 -15 15 -15c10 0 30 10 46 27l47 51l13 -11c-67 -84 -108 -114 -157 -114c-59 0 -52 58 -24 134z" />
    <glyph glyph-name="icircumflex" unicode="&#xee;" horiz-adv-x="278" 
d="M529 310h-68l-38 289l-248 -289h-68l314 365h60zM217 334c7 19 18 55 21 65c1 7 -8 15 -16 15c-10 0 -29 -10 -45 -27l-47 -51l-13 11c67 84 108 114 157 114c59 0 52 -58 24 -134l-77 -211c-7 -19 -18 -55 -21 -65c-1 -7 7 -15 15 -15c10 0 30 10 46 27l47 51l13 -11
c-67 -84 -108 -114 -157 -114c-59 0 -52 58 -24 134z" />
    <glyph glyph-name="idieresis" unicode="&#xef;" horiz-adv-x="278" 
d="M294 569c-10 -27 -41 -49 -69 -49c-27 0 -40 22 -30 50c9 26 41 49 66 49c28 0 43 -23 33 -50zM493 569c-10 -27 -41 -49 -69 -49c-27 0 -40 22 -30 50c9 26 41 49 66 49c28 0 43 -23 33 -50zM217 334c7 19 18 55 21 65c1 7 -8 15 -16 15c-10 0 -29 -10 -45 -27l-47 -51
l-13 11c67 84 108 114 157 114c59 0 52 -58 24 -134l-77 -211c-7 -19 -18 -55 -21 -65c-1 -7 7 -15 15 -15c10 0 30 10 46 27l47 51l13 -11c-67 -84 -108 -114 -157 -114c-59 0 -52 58 -24 134z" />
    <glyph glyph-name="eth" unicode="&#xf0;" 
d="M575 285c-54 -149 -182 -295 -332 -295c-124 0 -181 100 -133 233c49 134 178 237 298 237c48 0 71 -13 105 -60c12 74 3 115 -34 175l-146 -65l-22 30l144 64c-35 33 -64 47 -113 56l51 23c64 -6 94 -17 134 -47l114 50l22 -30l-109 -48c33 -49 42 -73 48 -118
c8 -63 -2 -135 -27 -205zM454 201c50 136 25 231 -60 231c-70 0 -141 -63 -175 -156c-25 -70 -35 -140 -26 -193c7 -41 36 -65 75 -65c76 0 144 68 186 183z" />
    <glyph glyph-name="ntilde" unicode="&#xf1;" 
d="M1133.5 254c-69 -64 -108 -85 -154 -85c-45 0 -61 7 -133 54c-14 9 -33 14 -54 14c-31 0 -52 -12 -92 -51l-42 32c69 64 107 85 153 85c45 0 61 -7 133 -54c14 -9 33 -14 54 -14c31 0 52 12 92 51zM537 310l-71 -194c-7 -19 -18 -55 -21 -65c-1 -7 7 -15 15 -15
c10 0 30 10 46 27l47 51l13 -11c-67 -84 -108 -114 -157 -114c-59 0 -52 58 -24 134l67 185c24 66 11 97 -38 97c-33 0 -59 -12 -123 -57c-38.6377 -105.696 -77.5947 -211.072 -116 -317l-95 -31l122 335c7 19 19 55 22 65c1 7 -8 15 -16 15c-9 0 -28 -9 -43 -25l-49 -53
l-13 11c66 83 108 113 155 113c42 0 52 -32 41 -82c91 64 128 81 174 81c74 0 98 -56 64 -150z" />
    <glyph glyph-name="ograve" unicode="&#xf2;" 
d="M523.356 520h-40l-118 97c-16 13 -21 26 -15 42c7 20 25 32 47 32c15 0 22 -5 33 -23zM555 234c-50 -138 -185 -244 -311 -244s-182 101 -133 236c50 138 176 234 306 234c128 0 186 -95 138 -226zM452 199c50 137 26 233 -58 233c-71 0 -140 -62 -175 -157
c-26 -71 -35 -141 -26 -193c6 -40 35 -64 74 -64c75 0 144 68 185 181z" />
    <glyph glyph-name="oacute" unicode="&#xf3;" 
d="M758.356 659c-6 -16 -19 -29 -45 -42l-190 -97h-40l201 148c25 18 36 23 51 23c22 0 30 -12 23 -32zM555 234c-50 -138 -185 -244 -311 -244s-182 101 -133 236c50 138 176 234 306 234c128 0 186 -95 138 -226zM452 199c50 137 26 233 -58 233c-71 0 -140 -62 -175 -157
c-26 -71 -35 -141 -26 -193c6 -40 35 -64 74 -64c75 0 144 68 185 181z" />
    <glyph glyph-name="ocircumflex" unicode="&#xf4;" 
d="M706.356 310h-68l-38 289l-248 -289h-68l314 365h60zM555 234c-50 -138 -185 -244 -311 -244s-182 101 -133 236c50 138 176 234 306 234c128 0 186 -95 138 -226zM452 199c50 137 26 233 -58 233c-71 0 -140 -62 -175 -157c-26 -71 -35 -141 -26 -193
c6 -40 35 -64 74 -64c75 0 144 68 185 181z" />
    <glyph glyph-name="otilde" unicode="&#xf5;" 
d="M1130.36 254c-69 -64 -108 -85 -154 -85c-45 0 -61 7 -133 54c-14 9 -33 14 -54 14c-31 0 -52 -12 -92 -51l-42 32c69 64 107 85 153 85c45 0 61 -7 133 -54c14 -9 33 -14 54 -14c31 0 52 12 92 51zM555 234c-50 -138 -185 -244 -311 -244s-182 101 -133 236
c50 138 176 234 306 234c128 0 186 -95 138 -226zM452 199c50 137 26 233 -58 233c-71 0 -140 -62 -175 -157c-26 -71 -35 -141 -26 -193c6 -40 35 -64 74 -64c75 0 144 68 185 181z" />
    <glyph glyph-name="odieresis" unicode="&#xf6;" 
d="M471.356 569c-10 -27 -41 -49 -69 -49c-27 0 -40 22 -30 50c9 26 41 49 66 49c28 0 43 -23 33 -50zM670.356 569c-10 -27 -41 -49 -69 -49c-27 0 -40 22 -30 50c9 26 41 49 66 49c28 0 43 -23 33 -50zM555 234c-50 -138 -185 -244 -311 -244s-182 101 -133 236
c50 138 176 234 306 234c128 0 186 -95 138 -226zM452 199c50 137 26 233 -58 233c-71 0 -140 -62 -175 -157c-26 -71 -35 -141 -26 -193c6 -40 35 -64 74 -64c75 0 144 68 185 181z" />
    <glyph glyph-name="divide" unicode="&#xf7;" horiz-adv-x="564" 
d="M603 217h-484l24 66h484zM489 416c-11 -31 -45 -56 -76 -56s-47 25 -36 56c11 30 46 56 77 56s46 -26 35 -56zM369 85c-11 -31 -45 -56 -76 -56s-47 25 -36 56c11 30 45 56 76 56s47 -26 36 -56z" />
    <glyph glyph-name="oslash" unicode="&#xf8;" 
d="M555 234c-51 -139 -185 -244 -312 -244c-35 0 -56 5 -85 21l-110 -123h-37l124 140c-24 27 -32 42 -38 69c-7 38 -2 84 15 130c50 136 175 233 304 233c33 0 56 -5 86 -18l97 109h39l-111 -125c23 -22 32 -34 39 -58c10 -38 6 -86 -11 -134zM454 203c23 64 28 108 19 163
l-272 -306c14 -30 33 -42 67 -42c75 0 144 69 186 185zM461 396c-18 26 -36 36 -67 36c-71 0 -141 -62 -175 -156c-25 -69 -34 -127 -28 -184z" />
    <glyph glyph-name="ugrave" unicode="&#xf9;" 
d="M489 520h-40l-118 97c-16 13 -21 26 -15 42c7 20 25 32 47 32c15 0 22 -5 33 -23zM492 36c-56 -14 -96 -25 -153 -45l-4 2l31 83l-59 -43c-37 -27 -82 -43 -119 -43c-73 0 -102 51 -73 130l78 214c7 19 18 55 21 65c1 7 -8 15 -16 15c-10 0 -29 -10 -45 -27l-47 -51
l-13 11c67 84 108 114 157 114c59 0 52 -58 24 -134l-74 -203c-15 -42 4 -76 43 -76c31 0 67 12 104 36c15 9 25 24 35 51l115 315h84l-125 -343c-17 -46 -10 -57 36 -57h5z" />
    <glyph glyph-name="uacute" unicode="&#xfa;" 
d="M724 659c-6 -16 -19 -29 -45 -42l-190 -97h-40l201 148c25 18 36 23 51 23c22 0 30 -12 23 -32zM492 36c-56 -14 -96 -25 -153 -45l-4 2l31 83l-59 -43c-37 -27 -82 -43 -119 -43c-73 0 -102 51 -73 130l78 214c7 19 18 55 21 65c1 7 -8 15 -16 15c-10 0 -29 -10 -45 -27
l-47 -51l-13 11c67 84 108 114 157 114c59 0 52 -58 24 -134l-74 -203c-15 -42 4 -76 43 -76c31 0 67 12 104 36c15 9 25 24 35 51l115 315h84l-125 -343c-17 -46 -10 -57 36 -57h5z" />
    <glyph glyph-name="ucircumflex" unicode="&#xfb;" 
d="M672 310h-68l-38 289l-248 -289h-68l314 365h60zM492 36c-56 -14 -96 -25 -153 -45l-4 2l31 83l-59 -43c-37 -27 -82 -43 -119 -43c-73 0 -102 51 -73 130l78 214c7 19 18 55 21 65c1 7 -8 15 -16 15c-10 0 -29 -10 -45 -27l-47 -51l-13 11c67 84 108 114 157 114
c59 0 52 -58 24 -134l-74 -203c-15 -42 4 -76 43 -76c31 0 67 12 104 36c15 9 25 24 35 51l115 315h84l-125 -343c-17 -46 -10 -57 36 -57h5z" />
    <glyph glyph-name="udieresis" unicode="&#xfc;" 
d="M437 569c-10 -27 -41 -49 -69 -49c-27 0 -40 22 -30 50c9 26 41 49 66 49c28 0 43 -23 33 -50zM636 569c-10 -27 -41 -49 -69 -49c-27 0 -40 22 -30 50c9 26 41 49 66 49c28 0 43 -23 33 -50zM492 36c-56 -14 -96 -25 -153 -45l-4 2l31 83l-59 -43
c-37 -27 -82 -43 -119 -43c-73 0 -102 51 -73 130l78 214c7 19 18 55 21 65c1 7 -8 15 -16 15c-10 0 -29 -10 -45 -27l-47 -51l-13 11c67 84 108 114 157 114c59 0 52 -58 24 -134l-74 -203c-15 -42 4 -76 43 -76c31 0 67 12 104 36c15 9 25 24 35 51l115 315h84l-125 -343
c-17 -46 -10 -57 36 -57h5z" />
    <glyph glyph-name="yacute" unicode="&#xfd;" 
d="M800.543 659c-6 -16 -19 -29 -45 -42l-190 -97h-40l201 148c25 18 36 23 51 23c22 0 30 -12 23 -32zM633 435c-25 -3 -39 -13 -64 -45l-303 -408c-106 -144 -174 -200 -241 -200c-42 0 -65 25 -53 58c9 24 36 44 59 44c17 0 33 -4 49 -11c8 -5 16 -7 22 -7
c14 0 44 19 67 45c28 30 74 93 79 108c3 8 3 20 2 37l-38 348c-1 6 -5 13 -12 13c-9 0 -27 -9 -41 -23l-51 -55l-12 11c64 82 108 111 154 111c26 0 43 -9 50 -32l7 -59l23 -253l197 276c19.418 22.6543 16.625 42 -29 42l6 15h135z" />
    <glyph glyph-name="thorn" unicode="&#xfe;" 
d="M560 247c-53 -145 -186 -257 -304 -257c-42 0 -62 10 -85 43l-57 -157c-23 -63 -14 -74 61 -75l-7 -18h-242l7 18c61 5 75 16 94 68l257 704c15 42 9 51 -31 51c-7 0 -11 0 -17 -1l6 16c76 19 107 27 161 44l3 -3l-108 -298c65 54 117 78 172 78c97 0 135 -89 90 -213z
M460 208c42 116 21 192 -53 192c-46 0 -115 -36 -126 -66l-90 -246c-11 -30 33 -66 80 -66c72 0 149 75 189 186z" />
    <glyph glyph-name="ydieresis" unicode="&#xff;" 
d="M514.543 569c-10 -27 -41 -49 -69 -49c-27 0 -40 22 -30 50c9 26 41 49 66 49c28 0 43 -23 33 -50zM713.543 569c-10 -27 -41 -49 -69 -49c-27 0 -40 22 -30 50c9 26 41 49 66 49c28 0 43 -23 33 -50zM633 435c-25 -3 -39 -13 -64 -45l-303 -408
c-106 -144 -174 -200 -241 -200c-42 0 -65 25 -53 58c9 24 36 44 59 44c17 0 33 -4 49 -11c8 -5 16 -7 22 -7c14 0 44 19 67 45c28 30 74 93 79 108c3 8 3 20 2 37l-38 348c-1 6 -5 13 -12 13c-9 0 -27 -9 -41 -23l-51 -55l-12 11c64 82 108 111 154 111c26 0 43 -9 50 -32
l7 -59l23 -253l197 276c19.418 22.6543 16.625 42 -29 42l6 15h135z" />
    <glyph glyph-name="Amacron" unicode="&#x100;" horiz-adv-x="722" 
d="M845.5 736h-311l19 54h311zM458 19c76.543 0 93.4668 24.4658 88 101l-6 96h-262l-89 -117c-10 -13 -18 -27 -22 -39c-10 -28 5 -41 53 -41l-7 -19h-198l7 19c49 3 67 18 184 164l386 491h20l43 -568c8 -74 14 -84 58 -87l-7 -19h-255zM541 257l-16 275l-215 -275h231z
" />
    <glyph glyph-name="amacron" unicode="&#x101;" 
d="M640.185 520h-311l20 54h311zM466 116c-7 -19 -18 -55 -21 -65c-1 -7 7 -15 15 -15c10 0 30 10 46 27l47 51l13 -11c-67 -84 -108 -114 -157 -114c-40 0 -55 27 -48 68c-51 -47 -97 -67 -153 -67c-110 0 -153 87 -106 215c52 142 185 255 300 255c40 0 64 -11 90 -43l1 2
l95 31zM377 102l84 230c19 53 -13 100 -66 100c-76 0 -152 -74 -193 -187c-45 -123 -19 -203 64 -203c29 0 58 10 83 30c14 11 25 23 28 30z" />
    <glyph glyph-name="Abreve" unicode="&#x102;" horiz-adv-x="722" 
d="M896.5 874c-25 -70 -113 -138 -207 -138s-130 68 -105 138h26c-5 -58 38 -82 100 -82s123 24 160 82h26zM458 19c76.543 0 93.4668 24.4658 88 101l-6 96h-262l-89 -117c-10 -13 -18 -27 -22 -39c-10 -28 5 -41 53 -41l-7 -19h-198l7 19c49 3 67 18 184 164l386 491h20
l43 -568c8 -74 14 -84 58 -87l-7 -19h-255zM541 257l-16 275l-215 -275h231z" />
    <glyph glyph-name="abreve" unicode="&#x103;" 
d="M681.185 677c-51 -106 -115 -157 -199 -157c-47 0 -80 19 -92 54c-9 28 -8 52 10 103h29c-10 -67 13 -97 77 -97c58 0 90 21 146 97h29zM466 116c-7 -19 -18 -55 -21 -65c-1 -7 7 -15 15 -15c10 0 30 10 46 27l47 51l13 -11c-67 -84 -108 -114 -157 -114
c-40 0 -55 27 -48 68c-51 -47 -97 -67 -153 -67c-110 0 -153 87 -106 215c52 142 185 255 300 255c40 0 64 -11 90 -43l1 2l95 31zM377 102l84 230c19 53 -13 100 -66 100c-76 0 -152 -74 -193 -187c-45 -123 -19 -203 64 -203c29 0 58 10 83 30c14 11 25 23 28 30z" />
    <glyph glyph-name="Aogonek" unicode="&#x104;" horiz-adv-x="865" 
d="M250.5 -167c31 85 112 139 177 176h29c-60 -41 -112 -85 -135 -149c-13 -36 -6 -61 24 -61c26 0 50 23 69 43l14 -14c-32 -39 -75 -81 -132 -81c-43 0 -63 38 -46 86zM458 19c76.543 0 93.4668 24.4658 88 101l-6 96h-262l-89 -117c-10 -13 -18 -27 -22 -39
c-10 -28 5 -41 53 -41l-7 -19h-198l7 19c49 3 67 18 184 164l386 491h20l43 -568c8 -74 14 -84 58 -87l-7 -19h-255zM541 257l-16 275l-215 -275h231z" />
    <glyph glyph-name="aogonek" unicode="&#x105;" horiz-adv-x="444" 
d="M135 -177c31 85 112 139 177 176h29c-60 -41 -112 -85 -135 -149c-13 -36 -6 -61 24 -61c26 0 50 23 69 43l14 -14c-32 -39 -75 -81 -132 -81c-43 0 -63 38 -46 86zM466 116c-7 -19 -18 -55 -21 -65c-1 -7 7 -15 15 -15c10 0 30 10 46 27l47 51l13 -11
c-67 -84 -108 -114 -157 -114c-40 0 -55 27 -48 68c-51 -47 -97 -67 -153 -67c-110 0 -153 87 -106 215c52 142 185 255 300 255c40 0 64 -11 90 -43l1 2l95 31zM377 102l84 230c19 53 -13 100 -66 100c-76 0 -152 -74 -193 -187c-45 -123 -19 -203 64 -203
c29 0 58 10 83 30c14 11 25 23 28 30z" />
    <glyph glyph-name="Cacute" unicode="&#x106;" horiz-adv-x="667" 
d="M1462 637c-5 -13 -19 -24 -44 -33l-196 -80h-43l202 120c25 15 37 19 53 19c24 0 34 -10 28 -26zM674 113c-90 -81 -206 -127 -319 -127c-199 0 -283 136 -209 339c41 114 117 209 216 272c79 50 169 79 246 79c49 0 95 -8 138 -24c14 -6 27 -9 37 -9c19 0 39 12 53 33
h21l-73 -226h-23c5 65 -1 93 -21 125c-25 40 -69 61 -127 61c-145 0 -280 -117 -346 -298c-68.5654 -189.372 -26.376 -308 136 -308c83 0 160 30 260 101z" />
    <glyph glyph-name="cacute" unicode="&#x107;" horiz-adv-x="444" 
d="M750.562 659c-6 -16 -19 -29 -45 -42l-190 -97h-40l201 148c25 18 36 23 51 23c22 0 30 -12 23 -32zM466 147c-55 -62 -85 -91 -124 -115c-44 -28 -88 -42 -131 -42c-111 0 -156 93 -109 222c30 83 86 152 156 197c52 33 106 51 153 51c84 0 137 -47 117 -103
c-8 -23 -36 -42 -62 -42c-22 0 -35 17 -32 46l2 22c3 37 -5 48 -41 48c-81 0 -161 -70 -199 -174c-42 -115 -8 -195 84 -195c57 0 102 24 175 94z" />
    <glyph glyph-name="Ccircumflex" unicode="&#x108;" horiz-adv-x="667" 
d="M674 113c-90 -81 -206 -127 -319 -127c-199 0 -283 136 -209 339c41 114 117 209 216 272c79 50 169 79 246 79c49 0 95 -8 138 -24c14 -6 27 -9 37 -9c19 0 39 12 53 33h21l-73 -226h-23c5 65 -1 93 -21 125c-25 40 -69 61 -127 61c-145 0 -280 -117 -346 -298
c-68.5654 -189.372 -26.376 -308 136 -308c83 0 160 30 260 101z" />
    <glyph glyph-name="ccircumflex" unicode="&#x109;" horiz-adv-x="444" 
d="M698.562 310h-68l-38 289l-248 -289h-68l314 365h60zM466 147c-55 -62 -85 -91 -124 -115c-44 -28 -88 -42 -131 -42c-111 0 -156 93 -109 222c30 83 86 152 156 197c52 33 106 51 153 51c84 0 137 -47 117 -103c-8 -23 -36 -42 -62 -42c-22 0 -35 17 -32 46l2 22
c3 37 -5 48 -41 48c-81 0 -161 -70 -199 -174c-42 -115 -8 -195 84 -195c57 0 102 24 175 94z" />
    <glyph glyph-name="Cdotaccent" unicode="&#x10a;" horiz-adv-x="667" 
d="M957.996 787c-11 -29 -40 -51 -69 -51c-28 0 -44 22 -33 51c10 28 42 51 70 51c29 0 42 -23 32 -51zM674 113c-90 -81 -206 -127 -319 -127c-199 0 -283 136 -209 339c41 114 117 209 216 272c79 50 169 79 246 79c49 0 95 -8 138 -24c14 -6 27 -9 37 -9
c19 0 39 12 53 33h21l-73 -226h-23c5 65 -1 93 -21 125c-25 40 -69 61 -127 61c-145 0 -280 -117 -346 -298c-68.5654 -189.372 -26.376 -308 136 -308c83 0 160 30 260 101z" />
    <glyph glyph-name="cdotaccent" unicode="&#x10b;" horiz-adv-x="444" 
d="M565.562 571c-11 -29 -41 -51 -70 -51c-28 0 -43 22 -32 51c10 28 41 51 69 51c29 0 43 -23 33 -51zM466 147c-55 -62 -85 -91 -124 -115c-44 -28 -88 -42 -131 -42c-111 0 -156 93 -109 222c30 83 86 152 156 197c52 33 106 51 153 51c84 0 137 -47 117 -103
c-8 -23 -36 -42 -62 -42c-22 0 -35 17 -32 46l2 22c3 37 -5 48 -41 48c-81 0 -161 -70 -199 -174c-42 -115 -8 -195 84 -195c57 0 102 24 175 94z" />
    <glyph glyph-name="Ccaron" unicode="&#x10c;" horiz-adv-x="667" 
d="M1109 865l-181 -129h-77l-88 129h48l96 -79l154 79h48zM674 113c-90 -81 -206 -127 -319 -127c-199 0 -283 136 -209 339c41 114 117 209 216 272c79 50 169 79 246 79c49 0 95 -8 138 -24c14 -6 27 -9 37 -9c19 0 39 12 53 33h21l-73 -226h-23c5 65 -1 93 -21 125
c-25 40 -69 61 -127 61c-145 0 -280 -117 -346 -298c-68.5654 -189.372 -26.376 -308 136 -308c83 0 160 30 260 101z" />
    <glyph glyph-name="ccaron" unicode="&#x10d;" horiz-adv-x="444" 
d="M711.562 687l-185 -167h-62l-64 167h34l84 -103l159 103h34zM466 147c-55 -62 -85 -91 -124 -115c-44 -28 -88 -42 -131 -42c-111 0 -156 93 -109 222c30 83 86 152 156 197c52 33 106 51 153 51c84 0 137 -47 117 -103c-8 -23 -36 -42 -62 -42c-22 0 -35 17 -32 46l2 22
c3 37 -5 48 -41 48c-81 0 -161 -70 -199 -174c-42 -115 -8 -195 84 -195c57 0 102 24 175 94z" />
    <glyph glyph-name="Dcaron" unicode="&#x10e;" horiz-adv-x="722" 
d="M986.638 865l-181 -129h-77l-88 129h48l96 -79l154 79h48zM807 334c-35 -97 -106 -186 -192 -245c-82 -56 -199 -89 -315 -89h-284l7 19c78 5 95 18 121 90l161 444c27 74 21 83 -55 90l7 19h270c137 0 233 -36 276 -105c35 -55 37 -133 4 -223zM695 327
c39 108 29 194 -29 248c-36 34 -95 50 -181 50c-41 0 -55 -8 -66 -39l-185 -508c-12 -32 -3 -41 37 -41c87 0 149 12 211 41c98 47 170 131 213 249z" />
    <glyph glyph-name="dcaron" unicode="&#x10f;" horiz-adv-x="608" 
d="M969.185 579c-4 0 -21 -4 -28 -4c-36 0 -53 19 -41 51c12 34 45 57 80 57c45 0 66 -39 48 -89c-22 -60 -89 -121 -168 -154l-2 19c67 37 108 74 120 106c3 8 -1 14 -9 14zM672 681l-206 -565c-7 -19 -18 -55 -21 -65c-1 -7 7 -15 15 -15c10 0 30 10 46 27l47 51l13 -11
c-67 -84 -108 -114 -157 -114c-40 0 -55 27 -48 68c-51 -47 -97 -67 -153 -67c-110 0 -153 87 -106 215c52 142 185 255 300 255c40 0 64 -11 90 -43l57 156c15 41 9 51 -28 51c-8 0 -14 0 -22 -1l6 16c70 17 109 27 163 44zM377 102l84 230c19 53 -13 100 -66 100
c-76 0 -152 -74 -193 -187c-45 -123 -19 -203 64 -203c29 0 58 10 83 30c14 11 25 23 28 30z" />
    <glyph glyph-name="Dcroat" unicode="&#x110;" horiz-adv-x="722" 
d="M807 334c-35 -97 -106 -186 -192 -245c-82 -56 -199 -89 -315 -89h-284l7 19c78 5 95 18 121 90l75 206h-83l16 44h83l70 194c27 74 21 83 -55 90l7 19h270c137 0 233 -36 276 -105c35 -55 37 -133 4 -223zM695 327c39 108 29 194 -29 248c-36 34 -94 50 -183 50
c-40 0 -53 -8 -64 -39l-82 -227h146l-16 -44h-146l-87 -237c-12 -32 -3 -41 37 -41c87 0 149 12 211 41c98 47 170 131 213 249z" />
    <glyph glyph-name="dcroat" unicode="&#x111;" 
d="M692 527h-76l-150 -411c-7 -19 -18 -55 -21 -65c-1 -7 7 -15 15 -15c10 0 30 10 46 27l47 51l13 -11c-67 -84 -108 -114 -157 -114c-40 0 -55 27 -48 68c-51 -47 -97 -67 -153 -67c-110 0 -153 87 -106 215c52 142 185 255 300 255c40 0 64 -11 90 -43l40 110h-121l12 34
h121l5 12c15 41 9 51 -28 51c-8 0 -14 0 -22 -1l6 16c70 17 109 27 163 44l4 -2l-44 -120h76zM377 102l84 230c19 53 -13 100 -66 100c-76 0 -152 -74 -193 -187c-45 -123 -19 -203 64 -203c29 0 58 10 83 30c14 11 25 23 28 30z" />
    <glyph glyph-name="Emacron" unicode="&#x112;" horiz-adv-x="611" 
d="M839 736h-311l19 54h311zM659 169l-107 -169h-540l7 19c75 5 94 19 120 90l161 444c26 71 18 84 -54 90l7 19h531l-49 -143h-25c16 90 -1 105 -114 105h-135c-27 0 -35 -6 -45 -34l-81 -222h154c81 0 102 13 145 95h23l-85 -232h-23c17 83 7 96 -75 96h-154l-90 -247
c-7 -19 -9 -28 -4 -32c6 -7 45 -11 93 -11h27c143 0 196 24 285 132h28z" />
    <glyph glyph-name="emacron" unicode="&#x113;" horiz-adv-x="444" 
d="M633.104 520h-311l20 54h311zM481 157c-81 -108 -177 -167 -273 -167c-115 0 -155 86 -105 224c53 146 174 246 298 246c52 0 91 -21 108 -57c13 -32 13 -61 -3 -126h-308c-21 -64 -26 -99 -20 -138c9 -54 41 -80 96 -80c64 0 118 29 194 105zM415 309
c19 87 5 115 -56 115s-108 -36 -148 -115h204z" />
    <glyph glyph-name="Ebreve" unicode="&#x114;" horiz-adv-x="611" 
d="M890 874c-25 -70 -113 -138 -207 -138s-130 68 -105 138h26c-5 -58 38 -82 100 -82s123 24 160 82h26zM659 169l-107 -169h-540l7 19c75 5 94 19 120 90l161 444c26 71 18 84 -54 90l7 19h531l-49 -143h-25c16 90 -1 105 -114 105h-135c-27 0 -35 -6 -45 -34l-81 -222
h154c81 0 102 13 145 95h23l-85 -232h-23c17 83 7 96 -75 96h-154l-90 -247c-7 -19 -9 -28 -4 -32c6 -7 45 -11 93 -11h27c143 0 196 24 285 132h28z" />
    <glyph glyph-name="ebreve" unicode="&#x115;" horiz-adv-x="444" 
d="M674.104 677c-51 -106 -115 -157 -199 -157c-47 0 -80 19 -92 54c-9 28 -8 52 10 103h29c-10 -67 13 -97 77 -97c58 0 90 21 146 97h29zM481 157c-81 -108 -177 -167 -273 -167c-115 0 -155 86 -105 224c53 146 174 246 298 246c52 0 91 -21 108 -57
c13 -32 13 -61 -3 -126h-308c-21 -64 -26 -99 -20 -138c9 -54 41 -80 96 -80c64 0 118 29 194 105zM415 309c19 87 5 115 -56 115s-108 -36 -148 -115h204z" />
    <glyph glyph-name="Edotaccent" unicode="&#x116;" horiz-adv-x="611" 
d="M752 787c-11 -29 -40 -51 -69 -51c-28 0 -44 22 -33 51c10 28 42 51 70 51c29 0 42 -23 32 -51zM659 169l-107 -169h-540l7 19c75 5 94 19 120 90l161 444c26 71 18 84 -54 90l7 19h531l-49 -143h-25c16 90 -1 105 -114 105h-135c-27 0 -35 -6 -45 -34l-81 -222h154
c81 0 102 13 145 95h23l-85 -232h-23c17 83 7 96 -75 96h-154l-90 -247c-7 -19 -9 -28 -4 -32c6 -7 45 -11 93 -11h27c143 0 196 24 285 132h28z" />
    <glyph glyph-name="edotaccent" unicode="&#x117;" horiz-adv-x="444" 
d="M547.104 571c-11 -29 -41 -51 -70 -51c-28 0 -43 22 -32 51c10 28 41 51 69 51c29 0 43 -23 33 -51zM481 157c-81 -108 -177 -167 -273 -167c-115 0 -155 86 -105 224c53 146 174 246 298 246c52 0 91 -21 108 -57c13 -32 13 -61 -3 -126h-308c-21 -64 -26 -99 -20 -138
c9 -54 41 -80 96 -80c64 0 118 29 194 105zM415 309c19 87 5 115 -56 115s-108 -36 -148 -115h204z" />
    <glyph glyph-name="Eogonek" unicode="&#x118;" horiz-adv-x="810" 
d="M426 -167c31 85 112 139 177 176h29c-60 -41 -112 -85 -135 -149c-13 -36 -6 -61 24 -61c26 0 50 23 69 43l14 -14c-32 -39 -75 -81 -132 -81c-43 0 -63 38 -46 86zM659 169l-107 -169h-540l7 19c75 5 94 19 120 90l161 444c26 71 18 84 -54 90l7 19h531l-49 -143h-25
c16 90 -1 105 -114 105h-135c-27 0 -35 -6 -45 -34l-81 -222h154c81 0 102 13 145 95h23l-85 -232h-23c17 83 7 96 -75 96h-154l-90 -247c-7 -19 -9 -28 -4 -32c6 -7 45 -11 93 -11h27c143 0 196 24 285 132h28z" />
    <glyph glyph-name="eogonek" unicode="&#x119;" horiz-adv-x="444" 
d="M74.1035 -177c31 85 112 139 177 176h29c-60 -41 -112 -85 -135 -149c-13 -36 -6 -61 24 -61c26 0 50 23 69 43l14 -14c-32 -39 -75 -81 -132 -81c-43 0 -63 38 -46 86zM481 157c-81 -108 -177 -167 -273 -167c-115 0 -155 86 -105 224c53 146 174 246 298 246
c52 0 91 -21 108 -57c13 -32 13 -61 -3 -126h-308c-21 -64 -26 -99 -20 -138c9 -54 41 -80 96 -80c64 0 118 29 194 105zM415 309c19 87 5 115 -56 115s-108 -36 -148 -115h204z" />
    <glyph glyph-name="Ecaron" unicode="&#x11a;" horiz-adv-x="611" 
d="M903 865l-181 -129h-77l-88 129h48l96 -79l154 79h48zM659 169l-107 -169h-540l7 19c75 5 94 19 120 90l161 444c26 71 18 84 -54 90l7 19h531l-49 -143h-25c16 90 -1 105 -114 105h-135c-27 0 -35 -6 -45 -34l-81 -222h154c81 0 102 13 145 95h23l-85 -232h-23
c17 83 7 96 -75 96h-154l-90 -247c-7 -19 -9 -28 -4 -32c6 -7 45 -11 93 -11h27c143 0 196 24 285 132h28z" />
    <glyph glyph-name="ecaron" unicode="&#x11b;" horiz-adv-x="444" 
d="M693.104 687l-185 -167h-62l-64 167h34l84 -103l159 103h34zM481 157c-81 -108 -177 -167 -273 -167c-115 0 -155 86 -105 224c53 146 174 246 298 246c52 0 91 -21 108 -57c13 -32 13 -61 -3 -126h-308c-21 -64 -26 -99 -20 -138c9 -54 41 -80 96 -80
c64 0 118 29 194 105zM415 309c19 87 5 115 -56 115s-108 -36 -148 -115h204z" />
    <glyph glyph-name="Gcircumflex" unicode="&#x11c;" horiz-adv-x="722" 
d="M831 336c-60 -5 -77 -18 -98 -77l-74 -203c-53 -35 -190 -70 -276 -70c-110 0 -192 38 -234 107c-35 59 -35 134 1 232c74 204 271 351 471 351c45 0 88 -8 128 -23c15 -7 30 -10 40 -10c21 0 44 14 57 33h22l-69 -211h-23c-3 61 -9 88 -29 116c-26 36 -68 55 -124 55
c-68 0 -139 -27 -201 -76s-123 -140 -157 -234c-68 -186 -10 -300 153 -300c72 0 143 27 155 59l59 162c16 43 18 66 6 75c-9 8 -20 11 -62 14l7 18h255z" />
    <glyph glyph-name="gcircumflex" unicode="&#x11d;" 
d="M717.596 310h-68l-38 289l-248 -289h-68l314 365h60zM611 388h-83c2 -32 0 -55 -11 -84c-18 -50 -46 -85 -89 -113c-41 -27 -87 -42 -124 -42c-6 0 -19 1 -37 3c-3 0 -9 1 -18 2c-30 -8 -76 -43 -83 -63c-6 -16 16 -25 68 -27l127 -6c73 -3 105 -45 82 -107
c-14 -38 -43 -70 -92 -101c-67 -42 -154 -68 -229 -68c-95 0 -157 44 -138 97c13 37 52 70 142 122c-34 20 -41 32 -33 53c7 20 27 40 71 69l57 40c-54 33 -67 71 -44 134c33 91 133 163 226 163c26 0 52 -5 75 -15l19 -8c17 -7 31 -10 51 -10h77zM410 -64
c13 36 -15 49 -106 49c-49 0 -128 6 -158 13c-60 -50 -72 -63 -80 -86c-16 -44 31 -73 119 -73c113 0 204 39 225 97zM425 265c14 39 19 85 14 120c-5 30 -25 47 -56 47c-46.7412 0 -88.9473 -36.8418 -109 -97c-35 -96 -17 -161 43 -161c46 0 88 35 108 91z" />
    <glyph glyph-name="Gbreve" unicode="&#x11e;" horiz-adv-x="722" 
d="M1111.28 874c-25 -70 -113 -138 -207 -138s-130 68 -105 138h26c-5 -58 38 -82 100 -82s123 24 160 82h26zM831 336c-60 -5 -77 -18 -98 -77l-74 -203c-53 -35 -190 -70 -276 -70c-110 0 -192 38 -234 107c-35 59 -35 134 1 232c74 204 271 351 471 351
c45 0 88 -8 128 -23c15 -7 30 -10 40 -10c21 0 44 14 57 33h22l-69 -211h-23c-3 61 -9 88 -29 116c-26 36 -68 55 -124 55c-68 0 -139 -27 -201 -76s-123 -140 -157 -234c-68 -186 -10 -300 153 -300c72 0 143 27 155 59l59 162c16 43 18 66 6 75c-9 8 -20 11 -62 14l7 18
h255z" />
    <glyph glyph-name="gbreve" unicode="&#x11f;" 
d="M711.596 677c-51 -106 -115 -157 -199 -157c-47 0 -80 19 -92 54c-9 28 -8 52 10 103h29c-10 -67 13 -97 77 -97c58 0 90 21 146 97h29zM611 388h-83c2 -32 0 -55 -11 -84c-18 -50 -46 -85 -89 -113c-41 -27 -87 -42 -124 -42c-6 0 -19 1 -37 3c-3 0 -9 1 -18 2
c-30 -8 -76 -43 -83 -63c-6 -16 16 -25 68 -27l127 -6c73 -3 105 -45 82 -107c-14 -38 -43 -70 -92 -101c-67 -42 -154 -68 -229 -68c-95 0 -157 44 -138 97c13 37 52 70 142 122c-34 20 -41 32 -33 53c7 20 27 40 71 69l57 40c-54 33 -67 71 -44 134c33 91 133 163 226 163
c26 0 52 -5 75 -15l19 -8c17 -7 31 -10 51 -10h77zM410 -64c13 36 -15 49 -106 49c-49 0 -128 6 -158 13c-60 -50 -72 -63 -80 -86c-16 -44 31 -73 119 -73c113 0 204 39 225 97zM425 265c14 39 19 85 14 120c-5 30 -25 47 -56 47c-46.7412 0 -88.9473 -36.8418 -109 -97
c-35 -96 -17 -161 43 -161c46 0 88 35 108 91z" />
    <glyph glyph-name="Gdotaccent" unicode="&#x120;" horiz-adv-x="722" 
d="M973.281 787c-11 -29 -40 -51 -69 -51c-28 0 -44 22 -33 51c10 28 42 51 70 51c29 0 42 -23 32 -51zM831 336c-60 -5 -77 -18 -98 -77l-74 -203c-53 -35 -190 -70 -276 -70c-110 0 -192 38 -234 107c-35 59 -35 134 1 232c74 204 271 351 471 351c45 0 88 -8 128 -23
c15 -7 30 -10 40 -10c21 0 44 14 57 33h22l-69 -211h-23c-3 61 -9 88 -29 116c-26 36 -68 55 -124 55c-68 0 -139 -27 -201 -76s-123 -140 -157 -234c-68 -186 -10 -300 153 -300c72 0 143 27 155 59l59 162c16 43 18 66 6 75c-9 8 -20 11 -62 14l7 18h255z" />
    <glyph glyph-name="gdotaccent" unicode="&#x121;" 
d="M584.596 571c-11 -29 -41 -51 -70 -51c-28 0 -43 22 -32 51c10 28 41 51 69 51c29 0 43 -23 33 -51zM611 388h-83c2 -32 0 -55 -11 -84c-18 -50 -46 -85 -89 -113c-41 -27 -87 -42 -124 -42c-6 0 -19 1 -37 3c-3 0 -9 1 -18 2c-30 -8 -76 -43 -83 -63
c-6 -16 16 -25 68 -27l127 -6c73 -3 105 -45 82 -107c-14 -38 -43 -70 -92 -101c-67 -42 -154 -68 -229 -68c-95 0 -157 44 -138 97c13 37 52 70 142 122c-34 20 -41 32 -33 53c7 20 27 40 71 69l57 40c-54 33 -67 71 -44 134c33 91 133 163 226 163c26 0 52 -5 75 -15
l19 -8c17 -7 31 -10 51 -10h77zM410 -64c13 36 -15 49 -106 49c-49 0 -128 6 -158 13c-60 -50 -72 -63 -80 -86c-16 -44 31 -73 119 -73c113 0 204 39 225 97zM425 265c14 39 19 85 14 120c-5 30 -25 47 -56 47c-46.7412 0 -88.9473 -36.8418 -109 -97
c-35 -96 -17 -161 43 -161c46 0 88 35 108 91z" />
    <glyph glyph-name="Gcommaaccent" unicode="&#x122;" horiz-adv-x="722" 
d="M477.281 -178c-4 0 -21 -4 -28 -4c-36 0 -53 19 -41 51c12 34 45 57 80 57c45 0 66 -39 48 -89c-22 -60 -89 -121 -168 -154l-2 19c67 37 108 74 120 106c3 8 -1 14 -9 14zM831 336c-60 -5 -77 -18 -98 -77l-74 -203c-53 -35 -190 -70 -276 -70c-110 0 -192 38 -234 107
c-35 59 -35 134 1 232c74 204 271 351 471 351c45 0 88 -8 128 -23c15 -7 30 -10 40 -10c21 0 44 14 57 33h22l-69 -211h-23c-3 61 -9 88 -29 116c-26 36 -68 55 -124 55c-68 0 -139 -27 -201 -76s-123 -140 -157 -234c-68 -186 -10 -300 153 -300c72 0 143 27 155 59
l59 162c16 43 18 66 6 75c-9 8 -20 11 -62 14l7 18h255z" />
    <glyph glyph-name="gcommaaccent" unicode="&#x123;" 
d="M436 593c4 0 21 4 28 4c36 0 53 -19 41 -51c-12 -34 -45 -57 -80 -57c-45 0 -66 39 -48 89c22 60 89 121 168 154l3 -19c-67 -37 -109 -74 -121 -106c-3 -8 1 -14 9 -14zM611 388h-83c2 -32 0 -55 -11 -84c-18 -50 -46 -85 -89 -113c-41 -27 -87 -42 -124 -42
c-6 0 -19 1 -37 3c-3 0 -9 1 -18 2c-30 -8 -76 -43 -83 -63c-6 -16 16 -25 68 -27l127 -6c73 -3 105 -45 82 -107c-14 -38 -43 -70 -92 -101c-67 -42 -154 -68 -229 -68c-95 0 -157 44 -138 97c13 37 52 70 142 122c-34 20 -41 32 -33 53c7 20 27 40 71 69l57 40
c-54 33 -67 71 -44 134c33 91 133 163 226 163c26 0 52 -5 75 -15l19 -8c17 -7 31 -10 51 -10h77zM410 -64c13 36 -15 49 -106 49c-49 0 -128 6 -158 13c-60 -50 -72 -63 -80 -86c-16 -44 31 -73 119 -73c113 0 204 39 225 97zM425 265c14 39 19 85 14 120
c-5 30 -25 47 -56 47c-46.7412 0 -88.9473 -36.8418 -109 -97c-35 -96 -17 -161 43 -161c46 0 88 35 108 91z" />
    <glyph glyph-name="Hcircumflex" unicode="&#x124;" horiz-adv-x="722" 
d="M702 0h-278l7 19c80 5 94 17 125 101l71 195h-303l-75 -206c-26 -71 -18 -84 55 -90l-7 -19h-278l7 19c80 5 94 17 125 101l157 433c26 72 19 83 -55 90l7 19h278l-7 -19c-80 -7 -95 -18 -121 -90l-70 -194h303l70 194c26 72 19 83 -55 90l7 19h278l-7 -19
c-80 -7 -95 -18 -121 -90l-161 -444c-26 -71 -18 -84 55 -90z" />
    <glyph glyph-name="hcircumflex" unicode="&#x125;" 
d="M790 533h-68l-38 289l-248 -289h-68l314 365h60zM537 301l-68.001 -184.999c-7 -19 -18 -55 -21 -65c-1 -7 7 -15 15 -15c10 0 30 10 46 27l47 51l13 -11c-67 -84 -108 -114 -157 -114c-59 0 -52 58 -24 134l64 177c25 70 14 106 -36 106c-39 0 -75 -17 -134 -63
c-38 -104 -75.916 -208.084 -113.999 -312.001l-95 -31c69.3564 191.31 139.356 381.977 209 573c16 43 10 51 -33 51c-5 0 -8 0 -12 -1l6 16l29 8c62 16 91 24 129 36l3 -3l-110 -304c68 60 118 84 177 84c81 0 104 -54 66 -159z" />
    <glyph glyph-name="Hbar" unicode="&#x126;" horiz-adv-x="722" 
d="M702 0h-278l7 19c80 5 94 17 125 101l71 195h-303l-75 -206c-26 -71 -18 -84 55 -90l-7 -19h-278l7 19c80 5 94 17 125 101l132 363h-88l10 28h88l15 42c26 72 19 83 -55 90l7 19h278l-7 -19c-80 -7 -95 -18 -121 -90l-15 -42h303l15 42c26 72 19 83 -55 90l7 19h278
l-7 -19c-80 -7 -95 -18 -121 -90l-15 -42h88l-10 -28h-88l-136 -374c-26 -71 -18 -84 55 -90zM643 359l45 124h-303l-45 -124h303z" />
    <glyph glyph-name="hbar" unicode="&#x127;" horiz-adv-x="558" 
d="M568 301l-68.001 -184.999c-7 -19 -18 -55 -21 -65c-1 -7 7 -15 15 -15c10 0 30 10 46 27l47 51l13 -11c-67 -84 -108 -114 -157 -114c-59 0 -52 58 -24 134l64 177c25 70 14 106 -36 106c-39 0 -75 -17 -134 -63c-38 -104 -75.916 -208.084 -113.999 -312.001l-95 -31
c65.5557 180.777 131.34 361.326 197 542h-64l10 28h64l2 3c16 43 10 51 -33 51c-5 0 -8 0 -12 -1l6 16l29 8c62 16 91 24 129 36l4 -3l-41 -110h93l-10 -28h-93l-60 -166c68 60 118 84 177 84c81 0 104 -54 66 -159z" />
    <glyph glyph-name="Itilde" unicode="&#x128;" horiz-adv-x="333" 
d="M717.5 842c-49 -76 -89 -106 -144 -106c-25 0 -38 4 -72 24l-19 11c-12 7 -25 11 -37 11c-23 0 -46 -15 -68 -46h-29c39 65 88 101 138 101c22 0 44 -6 63 -18l20 -12c16 -9 33 -15 48 -15c23 0 40 12 71 50h29zM315 0h-297l7 19c85 3 103 15 130 90l161 444
c27 74 19 85 -64 90l7 19h297l-7 -19c-85 -4 -104 -17 -131 -90l-161 -444c-27 -73 -16 -87 65 -90z" />
    <glyph glyph-name="itilde" unicode="&#x129;" horiz-adv-x="278" 
d="M953 254c-69 -64 -108 -85 -154 -85c-45 0 -61 7 -133 54c-14 9 -33 14 -54 14c-31 0 -52 -12 -92 -51l-42 32c69 64 107 85 153 85c45 0 61 -7 133 -54c14 -9 33 -14 54 -14c31 0 52 12 92 51zM217 334c7 19 18 55 21 65c1 7 -8 15 -16 15c-10 0 -29 -10 -45 -27
l-47 -51l-13 11c67 84 108 114 157 114c59 0 52 -58 24 -134l-77 -211c-7 -19 -18 -55 -21 -65c-1 -7 7 -15 15 -15c10 0 30 10 46 27l47 51l13 -11c-67 -84 -108 -114 -157 -114c-59 0 -52 58 -24 134z" />
    <glyph glyph-name="Imacron" unicode="&#x12a;" horiz-adv-x="333" 
d="M669.5 736h-311l19 54h311zM315 0h-297l7 19c85 3 103 15 130 90l161 444c27 74 19 85 -64 90l7 19h297l-7 -19c-85 -4 -104 -17 -131 -90l-161 -444c-27 -73 -16 -87 65 -90z" />
    <glyph glyph-name="imacron" unicode="&#x12b;" horiz-adv-x="278" 
d="M482 520h-311l20 54h311zM217 334c7 19 18 55 21 65c1 7 -8 15 -16 15c-10 0 -29 -10 -45 -27l-47 -51l-13 11c67 84 108 114 157 114c59 0 52 -58 24 -134l-77 -211c-7 -19 -18 -55 -21 -65c-1 -7 7 -15 15 -15c10 0 30 10 46 27l47 51l13 -11
c-67 -84 -108 -114 -157 -114c-59 0 -52 58 -24 134z" />
    <glyph glyph-name="Ibreve" unicode="&#x12c;" horiz-adv-x="333" 
d="M720.5 874c-25 -70 -113 -138 -207 -138s-130 68 -105 138h26c-5 -58 38 -82 100 -82s123 24 160 82h26zM315 0h-297l7 19c85 3 103 15 130 90l161 444c27 74 19 85 -64 90l7 19h297l-7 -19c-85 -4 -104 -17 -131 -90l-161 -444c-27 -73 -16 -87 65 -90z" />
    <glyph glyph-name="ibreve" unicode="&#x12d;" horiz-adv-x="278" 
d="M523 677c-51 -106 -115 -157 -199 -157c-47 0 -80 19 -92 54c-9 28 -8 52 10 103h29c-10 -67 13 -97 77 -97c58 0 90 21 146 97h29zM217 334c7 19 18 55 21 65c1 7 -8 15 -16 15c-10 0 -29 -10 -45 -27l-47 -51l-13 11c67 84 108 114 157 114c59 0 52 -58 24 -134
l-77 -211c-7 -19 -18 -55 -21 -65c-1 -7 7 -15 15 -15c10 0 30 10 46 27l47 51l13 -11c-67 -84 -108 -114 -157 -114c-59 0 -52 58 -24 134z" />
    <glyph glyph-name="Iogonek" unicode="&#x12e;" horiz-adv-x="333" 
d="M57.5 -167c31 85 112 139 177 176h29c-60 -41 -112 -85 -135 -149c-13 -36 -6 -61 24 -61c26 0 50 23 69 43l14 -14c-32 -39 -75 -81 -132 -81c-43 0 -63 38 -46 86zM315 0h-297l7 19c85 3 103 15 130 90l161 444c27 74 19 85 -64 90l7 19h297l-7 -19
c-85 -4 -104 -17 -131 -90l-161 -444c-27 -73 -16 -87 65 -90z" />
    <glyph glyph-name="iogonek" unicode="&#x12f;" horiz-adv-x="278" 
d="M-54 -167c31 85 112 139 177 176h29c-60 -41 -112 -85 -135 -149c-13 -36 -6 -61 24 -61c26 0 50 23 69 43l14 -14c-32 -39 -75 -81 -132 -81c-43 0 -63 38 -46 86zM396 571c-11 -29 -41 -51 -70 -51c-28 0 -43 22 -32 51c10 28 41 51 69 51c29 0 43 -23 33 -51zM217 334
c7 19 18 55 21 65c1 7 -8 15 -16 15c-10 0 -29 -10 -45 -27l-47 -51l-13 11c67 84 108 114 157 114c59 0 52 -58 24 -134l-77 -211c-7 -19 -18 -55 -21 -65c-1 -7 7 -15 15 -15c10 0 30 10 46 27l47 51l13 -11c-67 -84 -108 -114 -157 -114c-59 0 -52 58 -24 134z" />
    <glyph glyph-name="Idotaccent" unicode="&#x130;" horiz-adv-x="333" 
d="M582.5 787c-11 -29 -40 -51 -69 -51c-28 0 -44 22 -33 51c10 28 42 51 70 51c29 0 42 -23 32 -51zM315 0h-297l7 19c85 3 103 15 130 90l161 444c27 74 19 85 -64 90l7 19h297l-7 -19c-85 -4 -104 -17 -131 -90l-161 -444c-27 -73 -16 -87 65 -90z" />
    <glyph glyph-name="dotlessi" unicode="&#x131;" horiz-adv-x="278" 
d="M217 334c7 19 18 55 21 65c1 7 -8 15 -16 15c-10 0 -29 -10 -45 -27l-47 -51l-13 11c67 84 108 114 157 114c59 0 52 -58 24 -134l-77 -211c-7 -19 -18 -55 -21 -65c-1 -7 7 -15 15 -15c10 0 30 10 46 27l47 51l13 -11c-67 -84 -108 -114 -157 -114c-59 0 -52 58 -24 134
z" />
    <glyph glyph-name="Jcircumflex" unicode="&#x134;" horiz-adv-x="389" 
d="M604 643c-83 -6 -98 -17 -125 -90l-134 -370c-45 -125 -133 -197 -241 -197c-58 0 -88 30 -73 72c10 27 40 50 67 50c26 0 37 -16 34 -51c-2 -25 1 -33 15 -33c26 0 46 21 62 66l168 463c27 73 20 84 -60 90l7 19h287z" />
    <glyph glyph-name="jcircumflex" unicode="&#x135;" horiz-adv-x="278" 
d="M543 310h-68l-38 289l-248 -289h-68l314 365h60zM220 394c-10 0 -30 -1 -46 -4l6 16c66 18 108 31 175 54l4 -3l-166 -457c-52 -142 -138 -218 -249 -218c-54 0 -85 23 -73 55c8 22 32 39 55 39c16 0 26 -9 36 -32c9 -21 17 -28 32 -28c14 0 31 8 41 18
c18 20 30 45 58 121l138 379c16 43 12 60 -11 60z" />
    <glyph glyph-name="Kcommaaccent" unicode="&#x136;" horiz-adv-x="722" 
d="M500.5 -164c-4 0 -21 -4 -28 -4c-36 0 -53 19 -41 51c12 34 45 57 80 57c45 0 66 -39 48 -89c-22 -60 -89 -121 -168 -154l-2 19c67 37 108 74 120 106c3 8 -1 14 -9 14zM723 0h-305l7 19c12 1 23 1 28 1c28 1 45 8 50 22c9 24 -19 95 -68 170l-68 105l-33 -21l-68 -187
c-27 -73 -19 -85 57 -90l-7 -19h-282l7 19c81 5 97 18 127 101l157 433c26 71 19 84 -57 90l7 19h284l-7 -19c-83 -6 -98 -17 -125 -90l-74 -205l235 161c74 51 108 81 116 103c7 20 -2 28 -31 30c-4 0 -14 0 -26 1l7 19h262l-7 -19c-70 -5 -88 -13 -180 -78l-259 -188
l142 -250c56 -97 66 -107 118 -108z" />
    <glyph glyph-name="kcommaaccent" unicode="&#x137;" 
d="M291.79 -164c-4 0 -21 -4 -28 -4c-36 0 -53 19 -41 51c12 34 45 57 80 57c45 0 66 -39 48 -89c-22 -60 -89 -121 -168 -154l-2 19c67 37 108 74 120 106c3 8 -1 14 -9 14zM338 282c33.6943 -79.3057 66.8613 -159.138 100.999 -238c2 -5 5 -13 11 -13c8 0 27 8 39 21
l53 57l10 -11c-63 -80 -107 -109 -151 -109c-18 0 -33 2 -46 15c-35.6797 79.3203 -65.4316 164.568 -98 247c-26.6562 -73.3438 -53.4697 -146.53 -80 -220l-95 -31c68.6338 187.7 136.635 376.032 205 564c17 48 12 61 -21 61c-10 0 -19 -1 -32 -2l6 16
c57 14 114 29 171 44l3 -2l-153 -420c93.5986 63.0684 187.083 126.251 281.001 189c12 8 22 11 35 11c29 0 46 -15 44 -40c-2 -18 -16 -32 -33 -32c-7 0 -19 3 -31 10c-10 6 -21 9 -27 9c-4 0 -8 -2 -15 -6c-58.9824 -40.0176 -119.46 -78.54 -177 -120z" />
    <glyph glyph-name="kgreenlandic" unicode="&#x138;" horiz-adv-x="505" 
d="M506 113c-24 -66 -85 -127 -146 -127c-79 0 -100 79 -69 164c19 52 -25 75 -83 81l-73 -200l-95 -31l164 450h84l-65 -178c38 17 75 52 109 85c55 53 120 107 183 107c48 0 69 -44 44 -91l-27 4c17 31 4 59 -27 59c-54 0 -108 -49 -155 -95c-32 -30 -65 -60 -102 -82
c78 -7 154 -36 127 -109c-23 -62 -50 -136 -5 -136s89 48 108 99h28z" />
    <glyph glyph-name="Lacute" unicode="&#x139;" horiz-adv-x="611" 
d="M1097.25 637c-5 -13 -19 -24 -44 -33l-196 -80h-43l202 120c25 15 37 19 53 19c24 0 34 -10 28 -26zM368 39c135 0 193 43 268 135h25l-111 -174h-538l7 19c75 5 94 19 120 90l161 444c26 71 18 84 -54 90l7 19h282l-7 -19c-81 -5 -100 -19 -126 -90l-172 -473
c-13 -35 -2 -41 71 -41h67z" />
    <glyph glyph-name="lacute" unicode="&#x13a;" horiz-adv-x="278" 
d="M665 882c-6 -16 -19 -29 -45 -42l-190 -97h-40l201 148c25 18 36 23 51 23c22 0 30 -12 23 -32zM430 681l-206 -565c-7 -19 -18 -55 -21 -65c-1 -7 7 -15 15 -15c10 0 30 10 46 27l47 51l13 -11c-67 -84 -108 -114 -157 -114c-59 0 -52 58 -24 134l160 441
c17 47 12 61 -20 61c-8 0 -20 -1 -31 -2h-6l6 16c75 17 117 27 175 44z" />
    <glyph glyph-name="Lcommaaccent" unicode="&#x13b;" horiz-adv-x="611" 
d="M344.25 -164c-4 0 -21 -4 -28 -4c-36 0 -53 19 -41 51c12 34 45 57 80 57c45 0 66 -39 48 -89c-22 -60 -89 -121 -168 -154l-2 19c67 37 108 74 120 106c3 8 -1 14 -9 14zM368 39c135 0 193 43 268 135h25l-111 -174h-538l7 19c75 5 94 19 120 90l161 444
c26 71 18 84 -54 90l7 19h282l-7 -19c-81 -5 -100 -19 -126 -90l-172 -473c-13 -35 -2 -41 71 -41h67z" />
    <glyph glyph-name="lcommaaccent" unicode="&#x13c;" horiz-adv-x="278" 
d="M95 -164c-4 0 -21 -4 -28 -4c-36 0 -53 19 -41 51c12 34 45 57 80 57c45 0 66 -39 48 -89c-22 -60 -89 -121 -168 -154l-2 19c67 37 108 74 120 106c3 8 -1 14 -9 14zM430 681l-206 -565c-7 -19 -18 -55 -21 -65c-1 -7 7 -15 15 -15c10 0 30 10 46 27l47 51l13 -11
c-67 -84 -108 -114 -157 -114c-59 0 -52 58 -24 134l160 441c17 47 12 61 -20 61c-8 0 -20 -1 -31 -2h-6l6 16c75 17 117 27 175 44z" />
    <glyph glyph-name="Lcaron" unicode="&#x13d;" horiz-adv-x="810" 
d="M1089.25 572c-4 0 -21 -4 -28 -4c-36 0 -53 19 -41 51c12 34 45 57 80 57c45 0 66 -39 48 -89c-22 -60 -89 -121 -168 -154l-2 19c67 37 108 74 120 106c3 8 -1 14 -9 14zM368 39c135 0 193 43 268 135h25l-111 -174h-538l7 19c75 5 94 19 120 90l161 444
c26 71 18 84 -54 90l7 19h282l-7 -19c-81 -5 -100 -19 -126 -90l-172 -473c-13 -35 -2 -41 71 -41h67z" />
    <glyph glyph-name="lcaron" unicode="&#x13e;" horiz-adv-x="212" 
d="M526 579c-4 0 -21 -4 -28 -4c-36 0 -53 19 -41 51c12 34 45 57 80 57c45 0 66 -39 48 -89c-22 -60 -89 -121 -168 -154l-2 19c67 37 108 74 120 106c3 8 -1 14 -9 14zM430 681l-206 -565c-7 -19 -18 -55 -21 -65c-1 -7 7 -15 15 -15c10 0 30 10 46 27l47 51l13 -11
c-67 -84 -108 -114 -157 -114c-59 0 -52 58 -24 134l160 441c17 47 12 61 -20 61c-8 0 -20 -1 -31 -2h-6l6 16c75 17 117 27 175 44z" />
    <glyph glyph-name="Ldot" unicode="&#x13f;" horiz-adv-x="611" 
d="M591.25 338c-11 -31 -45 -56 -76 -56s-47 25 -36 56s45 56 76 56s47 -25 36 -56zM368 39c135 0 193 43 268 135h25l-111 -174h-538l7 19c75 5 94 19 120 90l161 444c26 71 18 84 -54 90l7 19h282l-7 -19c-81 -5 -100 -19 -126 -90l-172 -473c-13 -35 -2 -41 71 -41h67z
" />
    <glyph glyph-name="ldot" unicode="&#x140;" horiz-adv-x="528" 
d="M550 250c-11 -31 -45 -56 -76 -56s-47 25 -36 56s45 56 76 56s47 -25 36 -56zM430 681l-206 -565c-7 -19 -18 -55 -21 -65c-1 -7 7 -15 15 -15c10 0 30 10 46 27l47 51l13 -11c-67 -84 -108 -114 -157 -114c-59 0 -52 58 -24 134l160 441c17 47 12 61 -20 61
c-8 0 -20 -1 -31 -2h-6l6 16c75 17 117 27 175 44z" />
    <glyph glyph-name="Lslash" unicode="&#x141;" horiz-adv-x="611" 
d="M368 39c135 0 193 43 268 135h25l-111 -174h-538l7 19c75 5 94 19 120 90l52 145l-82 -57l18 51l83 57l90 248c26 71 18 84 -54 90l7 19h282l-7 -19c-81 -5 -100 -19 -126 -90l-63 -174l167 115l-19 -51l-167 -115l-90 -248c-13 -35 -2 -41 71 -41h67z" />
    <glyph glyph-name="lslash" unicode="&#x142;" horiz-adv-x="278" 
d="M441 486l-110 -77l-107 -293c-7 -19 -18 -55 -21 -65c-1 -7 7 -15 15 -15c10 0 30 10 46 27l47 51l13 -11c-67 -84 -108 -114 -157 -114c-59 0 -52 58 -24 134l79 217l-112 -78l17 46l111 78l65 178c17 47 12 61 -20 61c-8 0 -20 -1 -31 -2h-6l6 16c75 17 117 27 175 44
l3 -2l-82 -226l110 77z" />
    <glyph glyph-name="Nacute" unicode="&#x143;" horiz-adv-x="722" 
d="M1379 637c-5 -13 -19 -24 -44 -33l-196 -80h-43l202 120c25 15 37 19 53 19c24 0 34 -10 28 -26zM941 643c-39 -4 -55 -8 -73 -18c-24 -13 -47 -50 -69 -110l-191 -526h-17l-242 550l-142 -392c-37 -101 -29 -124 47 -128l-7 -19h-235l7 19c85 6 107 25 144 128l160 441
c-23 47 -34 55 -77 55l7 19h171l209 -484l122 337c23 62 27 98 12 112c-12 9 -24 13 -61 16l7 19h235z" />
    <glyph glyph-name="nacute" unicode="&#x144;" 
d="M760.5 659c-6 -16 -19 -29 -45 -42l-190 -97h-40l201 148c25 18 36 23 51 23c22 0 30 -12 23 -32zM537 310l-71 -194c-7 -19 -18 -55 -21 -65c-1 -7 7 -15 15 -15c10 0 30 10 46 27l47 51l13 -11c-67 -84 -108 -114 -157 -114c-59 0 -52 58 -24 134l67 185
c24 66 11 97 -38 97c-33 0 -59 -12 -123 -57c-38.6377 -105.696 -77.5947 -211.072 -116 -317l-95 -31l122 335c7 19 19 55 22 65c1 7 -8 15 -16 15c-9 0 -28 -9 -43 -25l-49 -53l-13 11c66 83 108 113 155 113c42 0 52 -32 41 -82c91 64 128 81 174 81c74 0 98 -56 64 -150
z" />
    <glyph glyph-name="Ncommaaccent" unicode="&#x145;" horiz-adv-x="722" 
d="M735 -175c-4 0 -21 -4 -28 -4c-36 0 -53 19 -41 51c12 34 45 57 80 57c45 0 66 -39 48 -89c-22 -60 -89 -121 -168 -154l-2 19c67 37 108 74 120 106c3 8 -1 14 -9 14zM941 643c-39 -4 -55 -8 -73 -18c-24 -13 -47 -50 -69 -110l-191 -526h-17l-242 550l-142 -392
c-37 -101 -29 -124 47 -128l-7 -19h-235l7 19c85 6 107 25 144 128l160 441c-23 47 -34 55 -77 55l7 19h171l209 -484l122 337c23 62 27 98 12 112c-12 9 -24 13 -61 16l7 19h235z" />
    <glyph glyph-name="ncommaaccent" unicode="&#x146;" 
d="M274.5 -164c-4 0 -21 -4 -28 -4c-36 0 -53 19 -41 51c12 34 45 57 80 57c45 0 66 -39 48 -89c-22 -60 -89 -121 -168 -154l-2 19c67 37 108 74 120 106c3 8 -1 14 -9 14zM537 310l-71 -194c-7 -19 -18 -55 -21 -65c-1 -7 7 -15 15 -15c10 0 30 10 46 27l47 51l13 -11
c-67 -84 -108 -114 -157 -114c-59 0 -52 58 -24 134l67 185c24 66 11 97 -38 97c-33 0 -59 -12 -123 -57c-38.6377 -105.696 -77.5947 -211.072 -116 -317l-95 -31l122 335c7 19 19 55 22 65c1 7 -8 15 -16 15c-9 0 -28 -9 -43 -25l-49 -53l-13 11c66 83 108 113 155 113
c42 0 52 -32 41 -82c91 64 128 81 174 81c74 0 98 -56 64 -150z" />
    <glyph glyph-name="Ncaron" unicode="&#x147;" horiz-adv-x="722" 
d="M1026 865l-181 -129h-77l-88 129h48l96 -79l154 79h48zM941 643c-39 -4 -55 -8 -73 -18c-24 -13 -47 -50 -69 -110l-191 -526h-17l-242 550l-142 -392c-37 -101 -29 -124 47 -128l-7 -19h-235l7 19c85 6 107 25 144 128l160 441c-23 47 -34 55 -77 55l7 19h171l209 -484
l122 337c23 62 27 98 12 112c-12 9 -24 13 -61 16l7 19h235z" />
    <glyph glyph-name="ncaron" unicode="&#x148;" 
d="M722.5 687l-185 -167h-62l-64 167h34l84 -103l159 103h34zM537 310l-71 -194c-7 -19 -18 -55 -21 -65c-1 -7 7 -15 15 -15c10 0 30 10 46 27l47 51l13 -11c-67 -84 -108 -114 -157 -114c-59 0 -52 58 -24 134l67 185c24 66 11 97 -38 97c-33 0 -59 -12 -123 -57
c-38.6377 -105.696 -77.5947 -211.072 -116 -317l-95 -31l122 335c7 19 19 55 22 65c1 7 -8 15 -16 15c-9 0 -28 -9 -43 -25l-49 -53l-13 11c66 83 108 113 155 113c42 0 52 -32 41 -82c91 64 128 81 174 81c74 0 98 -56 64 -150z" />
    <glyph glyph-name="Eng" unicode="&#x14a;" horiz-adv-x="722" 
d="M941 643c-39 -4 -55 -8 -73 -18c-24 -13 -47 -50 -69 -110l-187 -515c-52 -142 -99 -218 -209 -218c-54 0 -86 23 -74 55c8 22 32 39 55 39c16 0 26 -9 36 -32c9 -21 17 -28 32 -28c14 0 31 8 41 18c18 20 30 45 58 121l24 67l-226 517l-142 -392
c-37 -101 -29 -124 47 -128l-7 -19h-235l7 19c85 6 107 25 144 128l160 441c-23 47 -34 55 -77 55l7 19h171l209 -484l122 337c23 62 27 98 12 112c-12 9 -24 13 -61 16l7 19h235z" />
    <glyph glyph-name="eng" unicode="&#x14b;" 
d="M424 0c-52 -142 -138 -218 -248 -218c-54 0 -86 23 -74 55c8 22 32 39 55 39c16 0 26 -9 36 -32c9 -21 17 -28 32 -28c14 0 31 8 41 18c18 20 30 45 58 121l128 353c24 66 11 97 -38 97c-33 0 -59 -12 -123 -57l-103 -281c-13 -36 -3 -48 47 -52l-5 -15h-212l5 15
c52 4 69 18 90 75l89 245c7 19 19 55 22 65c1 7 -8 15 -16 15c-9 0 -28 -9 -43 -25l-49 -53l-13 11c66 83 108 113 155 113c42 0 52 -32 41 -82c91 64 128 81 174 81c74 0 98 -56 64 -150z" />
    <glyph glyph-name="Omacron" unicode="&#x14c;" horiz-adv-x="722" 
d="M906.895 736h-311l19 54h311zM807 327c-73 -201 -260 -341 -457 -341c-88 0 -163 39 -198 102c-33 58 -32 149 2 243c73 201 262 345 453 345c96 0 167 -36 205 -105c33 -60 31 -145 -5 -244zM693 328c43 119 47 213 11 262c-24 32 -64 50 -110 50
c-55 0 -112 -22 -167 -65c-59 -47 -122 -144 -159 -246c-40 -111 -44 -212 -9 -258c24 -31 62 -49 108 -49c53 0 104 18 152 53c31 23 58 48 76 73c39 52 77 121 98 180z" />
    <glyph glyph-name="omacron" unicode="&#x14d;" 
d="M659.356 520h-311l20 54h311zM555 234c-50 -138 -185 -244 -311 -244s-182 101 -133 236c50 138 176 234 306 234c128 0 186 -95 138 -226zM452 199c50 137 26 233 -58 233c-71 0 -140 -62 -175 -157c-26 -71 -35 -141 -26 -193c6 -40 35 -64 74 -64c75 0 144 68 185 181
z" />
    <glyph glyph-name="Obreve" unicode="&#x14e;" horiz-adv-x="722" 
d="M957.895 874c-25 -70 -113 -138 -207 -138s-130 68 -105 138h26c-5 -58 38 -82 100 -82s123 24 160 82h26zM807 327c-73 -201 -260 -341 -457 -341c-88 0 -163 39 -198 102c-33 58 -32 149 2 243c73 201 262 345 453 345c96 0 167 -36 205 -105c33 -60 31 -145 -5 -244z
M693 328c43 119 47 213 11 262c-24 32 -64 50 -110 50c-55 0 -112 -22 -167 -65c-59 -47 -122 -144 -159 -246c-40 -111 -44 -212 -9 -258c24 -31 62 -49 108 -49c53 0 104 18 152 53c31 23 58 48 76 73c39 52 77 121 98 180z" />
    <glyph glyph-name="obreve" unicode="&#x14f;" 
d="M700.356 677c-51 -106 -115 -157 -199 -157c-47 0 -80 19 -92 54c-9 28 -8 52 10 103h29c-10 -67 13 -97 77 -97c58 0 90 21 146 97h29zM555 234c-50 -138 -185 -244 -311 -244s-182 101 -133 236c50 138 176 234 306 234c128 0 186 -95 138 -226zM452 199
c50 137 26 233 -58 233c-71 0 -140 -62 -175 -157c-26 -71 -35 -141 -26 -193c6 -40 35 -64 74 -64c75 0 144 68 185 181z" />
    <glyph glyph-name="Ohungarumlaut" unicode="&#x150;" horiz-adv-x="722" 
d="M1091.89 849c-5 -13 -19 -24 -44 -33l-196 -80h-43l202 120c25 15 37 19 53 19c24 0 34 -10 28 -26zM931.895 849c-5 -13 -19 -24 -44 -33l-196 -80h-43l202 120c25 15 37 19 53 19c24 0 34 -10 28 -26zM807 327c-73 -201 -260 -341 -457 -341c-88 0 -163 39 -198 102
c-33 58 -32 149 2 243c73 201 262 345 453 345c96 0 167 -36 205 -105c33 -60 31 -145 -5 -244zM693 328c43 119 47 213 11 262c-24 32 -64 50 -110 50c-55 0 -112 -22 -167 -65c-59 -47 -122 -144 -159 -246c-40 -111 -44 -212 -9 -258c24 -31 62 -49 108 -49
c53 0 104 18 152 53c31 23 58 48 76 73c39 52 77 121 98 180z" />
    <glyph glyph-name="ohungarumlaut" unicode="&#x151;" 
d="M1129.36 651c-11 -29 -41 -89 -85 -165l-21 -40h-21c16 90 36 188 42 204c8 23 34 41 58 41c23 0 35 -18 27 -40zM960.356 651c-11 -29 -41 -89 -85 -165l-21 -40h-21c16 90 36 188 42 204c8 23 34 41 58 41c23 0 35 -18 27 -40zM555 234c-50 -138 -185 -244 -311 -244
s-182 101 -133 236c50 138 176 234 306 234c128 0 186 -95 138 -226zM452 199c50 137 26 233 -58 233c-71 0 -140 -62 -175 -157c-26 -71 -35 -141 -26 -193c6 -40 35 -64 74 -64c75 0 144 68 185 181z" />
    <glyph glyph-name="OE" unicode="&#x152;" horiz-adv-x="1333" 
d="M1381 169l-107 -169h-540l7 19c75 5 94 19 120 90l161 444c26 71 18 84 -54 90l7 19h531l-49 -143h-25c16 90 -1 105 -114 105h-135c-27 0 -35 -6 -45 -34l-81 -222h154c81 0 102 13 145 95h23l-85 -232h-23c17 83 7 96 -75 96h-154l-90 -247c-7 -19 -9 -28 -4 -32
c6 -7 45 -11 93 -11h27c143 0 196 24 285 132h28zM807 327c-73 -201 -260 -341 -457 -341c-88 0 -163 39 -198 102c-33 58 -32 149 2 243c73 201 262 345 453 345c96 0 167 -36 205 -105c33 -60 31 -145 -5 -244zM693 328c43 119 47 213 11 262c-24 32 -64 50 -110 50
c-55 0 -112 -22 -167 -65c-59 -47 -122 -144 -159 -246c-40 -111 -44 -212 -9 -258c24 -31 62 -49 108 -49c53 0 104 18 152 53c31 23 58 48 76 73c39 52 77 121 98 180z" />
    <glyph glyph-name="oe" unicode="&#x153;" horiz-adv-x="944" 
d="M981 157c-81 -108 -177 -167 -273 -167c-115 0 -155 86 -105 224c53 146 174 246 298 246c52 0 91 -21 108 -57c13 -32 13 -61 -3 -126h-308c-21 -64 -26 -99 -20 -138c9 -54 41 -80 96 -80c64 0 118 29 194 105zM915 309c19 87 5 115 -56 115s-108 -36 -148 -115h204z
M555 234c-50 -138 -185 -244 -311 -244s-182 101 -133 236c50 138 176 234 306 234c128 0 186 -95 138 -226zM452 199c50 137 26 233 -58 233c-71 0 -140 -62 -175 -157c-26 -71 -35 -141 -26 -193c6 -40 35 -64 74 -64c75 0 144 68 185 181z" />
    <glyph glyph-name="Racute" unicode="&#x154;" horiz-adv-x="667" 
d="M1051 637c-5 -13 -19 -24 -44 -33l-196 -80h-43l202 120c25 15 37 19 53 19c24 0 34 -10 28 -26zM659 0h-161l-126 308l-57 -2l-71 -197c-26 -72 -18 -85 57 -90l-7 -19h-277l7 19c77 6 92 18 122 101l157 433c26 71 20 82 -52 90l7 19h276c94 0 168 -26 191 -67
c15 -29 15 -66 -1 -109c-17 -47 -52 -89 -93 -115c-43 -27 -77 -39 -149 -52l114 -253c17 -34 33 -44 70 -47zM616 488c34 94 -9 137 -134 137c-40 0 -54 -8 -64 -36l-89 -246c97 2 134 8 189 34c43 19 80 61 98 111z" />
    <glyph glyph-name="racute" unicode="&#x155;" horiz-adv-x="333" 
d="M661.808 659c-6 -16 -19 -29 -45 -42l-190 -97h-40l201 148c25 18 36 23 51 23c22 0 30 -12 23 -32zM483 407c-10 -28 -30.998 -45 -54.998 -45c-13 0 -22 6 -33 20c-7 10 -15 15 -21 15c-27 0 -87 -50 -99 -82c-34.6826 -94.6514 -68.7568 -189.911 -104.001 -284.001
l-95 -31c41.1104 110.89 81.3496 222.65 121.999 334.001c7 19 18 55 21 65c1 7 -8 15 -16 15c-10 0 -29 -10 -45 -27l-47 -51l-13 11c67 84 108 114 157 114c48 0 53 -39 38 -95c75 71 112 94 154 94c34 0 48 -20 36 -53z" />
    <glyph glyph-name="Rcommaaccent" unicode="&#x156;" horiz-adv-x="667" 
d="M350 -164c-4 0 -21 -4 -28 -4c-36 0 -53 19 -41 51c12 34 45 57 80 57c45 0 66 -39 48 -89c-22 -60 -89 -121 -168 -154l-2 19c67 37 108 74 120 106c3 8 -1 14 -9 14zM659 0h-161l-126 308l-57 -2l-71 -197c-26 -72 -18 -85 57 -90l-7 -19h-277l7 19c77 6 92 18 122 101
l157 433c26 71 20 82 -52 90l7 19h276c94 0 168 -26 191 -67c15 -29 15 -66 -1 -109c-17 -47 -52 -89 -93 -115c-43 -27 -77 -39 -149 -52l114 -253c17 -34 33 -44 70 -47zM616 488c34 94 -9 137 -134 137c-40 0 -54 -8 -64 -36l-89 -246c97 2 134 8 189 34
c43 19 80 61 98 111z" />
    <glyph glyph-name="rcommaaccent" unicode="&#x157;" horiz-adv-x="333" 
d="M128.808 -164c-4 0 -21 -4 -28 -4c-36 0 -53 19 -41 51c12 34 45 57 80 57c45 0 66 -39 48 -89c-22 -60 -89 -121 -168 -154l-2 19c67 37 108 74 120 106c3 8 -1 14 -9 14zM483 407c-10 -28 -30.998 -45 -54.998 -45c-13 0 -22 6 -33 20c-7 10 -15 15 -21 15
c-27 0 -87 -50 -99 -82c-34.6826 -94.6514 -68.7568 -189.911 -104.001 -284.001l-95 -31c41.1104 110.89 81.3496 222.65 121.999 334.001c7 19 18 55 21 65c1 7 -8 15 -16 15c-10 0 -29 -10 -45 -27l-47 -51l-13 11c67 84 108 114 157 114c48 0 53 -39 38 -95
c75 71 112 94 154 94c34 0 48 -20 36 -53z" />
    <glyph glyph-name="Rcaron" unicode="&#x158;" horiz-adv-x="667" 
d="M699 865l-181 -129h-77l-88 129h48l96 -79l154 79h48zM659 0h-161l-126 308l-57 -2l-71 -197c-26 -72 -18 -85 57 -90l-7 -19h-277l7 19c77 6 92 18 122 101l157 433c26 71 20 82 -52 90l7 19h276c94 0 168 -26 191 -67c15 -29 15 -66 -1 -109c-17 -47 -52 -89 -93 -115
c-43 -27 -77 -39 -149 -52l114 -253c17 -34 33 -44 70 -47zM616 488c34 94 -9 137 -134 137c-40 0 -54 -8 -64 -36l-89 -246c97 2 134 8 189 34c43 19 80 61 98 111z" />
    <glyph glyph-name="rcaron" unicode="&#x159;" horiz-adv-x="333" 
d="M622.808 687l-185 -167h-62l-64 167h34l84 -103l159 103h34zM483 407c-10 -28 -30.998 -45 -54.998 -45c-13 0 -22 6 -33 20c-7 10 -15 15 -21 15c-27 0 -87 -50 -99 -82c-34.6826 -94.6514 -68.7568 -189.911 -104.001 -284.001l-95 -31
c41.1104 110.89 81.3496 222.65 121.999 334.001c7 19 18 55 21 65c1 7 -8 15 -16 15c-10 0 -29 -10 -45 -27l-47 -51l-13 11c67 84 108 114 157 114c48 0 53 -39 38 -95c75 71 112 94 154 94c34 0 48 -20 36 -53z" />
    <glyph glyph-name="Sacute" unicode="&#x15a;" horiz-adv-x="556" 
d="M1296.5 637c-5 -13 -19 -24 -44 -33l-196 -80h-43l202 120c25 15 37 19 53 19c24 0 34 -10 28 -26zM552 168c-37 -103 -154 -182 -270 -182c-40 0 -77 8 -110 23c-16 7 -32 11 -43 11c-15 0 -32 -14 -40 -33h-22l47 212h23c6 -122 48 -177 138 -177c73 0 140 46 164 112
c9 25 11 45 7 59c-11 38 -48 78 -106 117c-91 59 -115 115 -86 194c20 55 55 98 106 130c41 26 89 42 128 42c35 0 68 -8 100 -22c15 -8 30 -12 40 -12c17 0 32 12 44 34h21l-55 -213h-25c5 59 0 85 -19 117c-22 36 -57 55 -102 55c-62 0 -117 -37 -137 -92s6 -99 90 -156
c106 -72 137 -136 107 -219z" />
    <glyph glyph-name="sacute" unicode="&#x15b;" horiz-adv-x="389" 
d="M684 659c-6 -16 -19 -29 -45 -42l-190 -97h-40l201 148c25 18 36 23 51 23c22 0 30 -12 23 -32zM444 440c3 0 10 3 20 10h11l-46 -136h-15c10 90 -8 123 -65 123c-46 0 -87 -27 -102 -68c-10 -27 -3 -52 19 -68l84 -64c48 -36 59 -69 41 -119
c-25 -70 -111 -128 -187 -128c-21 0 -44 4 -70 10c-22 6 -32 8 -43 8c-12 0 -16 -2 -27 -12h-13l56 156h16c-14 -102 7 -140 76 -140c51 0 94 28 110 72c11 31 3 55 -25 75l-46 33c-67 49 -85 88 -65 144c27 73 101 123 183 123c24 0 46 -4 64 -12c9 -5 18 -7 24 -7z" />
    <glyph glyph-name="Scircumflex" unicode="&#x15c;" horiz-adv-x="556" 
d="M552 168c-37 -103 -154 -182 -270 -182c-40 0 -77 8 -110 23c-16 7 -32 11 -43 11c-15 0 -32 -14 -40 -33h-22l47 212h23c6 -122 48 -177 138 -177c73 0 140 46 164 112c9 25 11 45 7 59c-11 38 -48 78 -106 117c-91 59 -115 115 -86 194c20 55 55 98 106 130
c41 26 89 42 128 42c35 0 68 -8 100 -22c15 -8 30 -12 40 -12c17 0 32 12 44 34h21l-55 -213h-25c5 59 0 85 -19 117c-22 36 -57 55 -102 55c-62 0 -117 -37 -137 -92s6 -99 90 -156c106 -72 137 -136 107 -219z" />
    <glyph glyph-name="scircumflex" unicode="&#x15d;" horiz-adv-x="389" 
d="M632 310h-68l-38 289l-248 -289h-68l314 365h60zM444 440c3 0 10 3 20 10h11l-46 -136h-15c10 90 -8 123 -65 123c-46 0 -87 -27 -102 -68c-10 -27 -3 -52 19 -68l84 -64c48 -36 59 -69 41 -119c-25 -70 -111 -128 -187 -128c-21 0 -44 4 -70 10c-22 6 -32 8 -43 8
c-12 0 -16 -2 -27 -12h-13l56 156h16c-14 -102 7 -140 76 -140c51 0 94 28 110 72c11 31 3 55 -25 75l-46 33c-67 49 -85 88 -65 144c27 73 101 123 183 123c24 0 46 -4 64 -12c9 -5 18 -7 24 -7z" />
    <glyph glyph-name="Scedilla" unicode="&#x15e;" horiz-adv-x="556" 
d="M450.5 -143c-19 -52 -78 -84 -155 -84c-32 0 -53 4 -78 16l25 31c25 -9 39 -12 60 -12c34 0 61 17 71 44c9 26 -1 36 -39 36c-11 0 -21 -1 -30 -4l-5 5l79 104h35l-51 -70c11 2 17 3 27 3c54 0 77 -26 61 -69zM552 168c-37 -103 -154 -182 -270 -182c-40 0 -77 8 -110 23
c-16 7 -32 11 -43 11c-15 0 -32 -14 -40 -33h-22l47 212h23c6 -122 48 -177 138 -177c73 0 140 46 164 112c9 25 11 45 7 59c-11 38 -48 78 -106 117c-91 59 -115 115 -86 194c20 55 55 98 106 130c41 26 89 42 128 42c35 0 68 -8 100 -22c15 -8 30 -12 40 -12
c17 0 32 12 44 34h21l-55 -213h-25c5 59 0 85 -19 117c-22 36 -57 55 -102 55c-62 0 -117 -37 -137 -92s6 -99 90 -156c106 -72 137 -136 107 -219z" />
    <glyph glyph-name="scedilla" unicode="&#x15f;" horiz-adv-x="389" 
d="M313 -139c-19 -52 -78 -84 -155 -84c-32 0 -53 4 -78 16l25 31c25 -9 39 -12 60 -12c34 0 61 17 71 44c9 26 -1 36 -39 36c-11 0 -21 -1 -30 -4l-5 5l79 104h35l-51 -70c11 2 17 3 27 3c54 0 77 -26 61 -69zM444 440c3 0 10 3 20 10h11l-46 -136h-15
c10 90 -8 123 -65 123c-46 0 -87 -27 -102 -68c-10 -27 -3 -52 19 -68l84 -64c48 -36 59 -69 41 -119c-25 -70 -111 -128 -187 -128c-21 0 -44 4 -70 10c-22 6 -32 8 -43 8c-12 0 -16 -2 -27 -12h-13l56 156h16c-14 -102 7 -140 76 -140c51 0 94 28 110 72
c11 31 3 55 -25 75l-46 33c-67 49 -85 88 -65 144c27 73 101 123 183 123c24 0 46 -4 64 -12c9 -5 18 -7 24 -7z" />
    <glyph glyph-name="Scaron" unicode="&#x160;" horiz-adv-x="556" 
d="M943.5 865l-181 -129h-77l-88 129h48l96 -79l154 79h48zM552 168c-37 -103 -154 -182 -270 -182c-40 0 -77 8 -110 23c-16 7 -32 11 -43 11c-15 0 -32 -14 -40 -33h-22l47 212h23c6 -122 48 -177 138 -177c73 0 140 46 164 112c9 25 11 45 7 59c-11 38 -48 78 -106 117
c-91 59 -115 115 -86 194c20 55 55 98 106 130c41 26 89 42 128 42c35 0 68 -8 100 -22c15 -8 30 -12 40 -12c17 0 32 12 44 34h21l-55 -213h-25c5 59 0 85 -19 117c-22 36 -57 55 -102 55c-62 0 -117 -37 -137 -92s6 -99 90 -156c106 -72 137 -136 107 -219z" />
    <glyph glyph-name="scaron" unicode="&#x161;" horiz-adv-x="389" 
d="M645 687l-185 -167h-62l-64 167h34l84 -103l159 103h34zM444 440c3 0 10 3 20 10h11l-46 -136h-15c10 90 -8 123 -65 123c-46 0 -87 -27 -102 -68c-10 -27 -3 -52 19 -68l84 -64c48 -36 59 -69 41 -119c-25 -70 -111 -128 -187 -128c-21 0 -44 4 -70 10
c-22 6 -32 8 -43 8c-12 0 -16 -2 -27 -12h-13l56 156h16c-14 -102 7 -140 76 -140c51 0 94 28 110 72c11 31 3 55 -25 75l-46 33c-67 49 -85 88 -65 144c27 73 101 123 183 123c24 0 46 -4 64 -12c9 -5 18 -7 24 -7z" />
    <glyph glyph-name="Tcedilla" unicode="&#x162;" horiz-adv-x="611" 
d="M475 -129c-19 -52 -78 -84 -155 -84c-32 0 -53 4 -78 16l25 31c25 -9 39 -12 60 -12c34 0 61 17 71 44c9 26 -1 36 -39 36c-11 0 -21 -1 -30 -4l-5 5l79 104h35l-51 -70c11 2 17 3 27 3c54 0 77 -26 61 -69zM772 492h-24c17 110 2 128 -112 128h-54l-186 -511
c-27 -73 -18 -86 63 -90l-7 -19h-292l7 19c85 5 100 16 131 101l182 500h-54c-112 0 -142 -18 -206 -128h-24l68 170h564z" />
    <glyph glyph-name="tcedilla" unicode="&#x163;" horiz-adv-x="278" 
d="M237.515 -139c-19 -52 -78 -84 -155 -84c-32 0 -53 4 -78 16l25 31c25 -9 39 -12 60 -12c34 0 61 17 71 44c9 26 -1 36 -39 36c-11 0 -21 -1 -30 -4l-5 5l79 104h35l-51 -70c11 2 17 3 27 3c54 0 77 -26 61 -69zM303 66c-52 -52 -99 -75.999 -149 -75.999
c-58 0 -72 43 -41 127l109 301h-53c-8.83887 8.83887 10.6768 19.8379 23 25.999c31 15 79 52 136 107c10 9 20 18 30 28c5 0 6 -3 2 -13l-42 -116h101l-12 -32h-101l-104 -286c-23 -64 -18 -90 19 -90c22 0 42 9 73 35z" />
    <glyph glyph-name="Tcaron" unicode="&#x164;" horiz-adv-x="611" 
d="M905 865l-181 -129h-77l-88 129h48l96 -79l154 79h48zM772 492h-24c17 110 2 128 -112 128h-54l-186 -511c-27 -73 -18 -86 63 -90l-7 -19h-292l7 19c85 5 100 16 131 101l182 500h-54c-112 0 -142 -18 -206 -128h-24l68 170h564z" />
    <glyph glyph-name="tcaron" unicode="&#x165;" horiz-adv-x="268" 
d="M486.515 475c-4 0 -21 -4 -28 -4c-36 0 -53 19 -41 51c12 34 45 57 80 57c45 0 66 -39 48 -89c-22 -60 -89 -121 -168 -154l-2 19c67 37 108 74 120 106c3 8 -1 14 -9 14zM303 66c-52 -52 -99 -75.999 -149 -75.999c-58 0 -72 43 -41 127l109 301h-53
c-8.83887 8.83887 10.6768 19.8379 23 25.999c31 15 79 52 136 107c10 9 20 18 30 28c5 0 6 -3 2 -13l-42 -116h101l-12 -32h-101l-104 -286c-23 -64 -18 -90 19 -90c22 0 42 9 73 35z" />
    <glyph glyph-name="Utilde" unicode="&#x168;" horiz-adv-x="722" 
d="M970.677 842c-49 -76 -89 -106 -144 -106c-25 0 -38 4 -72 24l-19 11c-12 7 -25 11 -37 11c-23 0 -46 -15 -68 -46h-29c39 65 88 101 138 101c22 0 44 -6 63 -18l20 -12c16 -9 33 -15 48 -15c23 0 40 12 71 50h29zM939 643c-86 -10 -103.999 -26 -140.999 -128l-95 -261
c-28 -77 -54 -123 -93 -165c-64 -68 -151 -103 -260 -103c-170 0 -221 82 -158 255l113 312c27 73 20 84 -57 90l7 19h283l-7 -19c-83 -7 -98 -18 -124 -90l-116 -320c-43.2549 -118.479 -39.6709 -203 97.999 -203c75 0 151 31 195 79c27 30 47 68 72 136l98 270
c36 100 29 122 -47 128l7 19h232z" />
    <glyph glyph-name="utilde" unicode="&#x169;" 
d="M1096 254c-69 -64 -108 -85 -154 -85c-45 0 -61 7 -133 54c-14 9 -33 14 -54 14c-31 0 -52 -12 -92 -51l-42 32c69 64 107 85 153 85c45 0 61 -7 133 -54c14 -9 33 -14 54 -14c31 0 52 12 92 51zM492 36c-56 -14 -96 -25 -153 -45l-4 2l31 83l-59 -43
c-37 -27 -82 -43 -119 -43c-73 0 -102 51 -73 130l78 214c7 19 18 55 21 65c1 7 -8 15 -16 15c-10 0 -29 -10 -45 -27l-47 -51l-13 11c67 84 108 114 157 114c59 0 52 -58 24 -134l-74 -203c-15 -42 4 -76 43 -76c31 0 67 12 104 36c15 9 25 24 35 51l115 315h84l-125 -343
c-17 -46 -10 -57 36 -57h5z" />
    <glyph glyph-name="Umacron" unicode="&#x16a;" horiz-adv-x="722" 
d="M922.677 736h-311l19 54h311zM939 643c-86 -10 -103.999 -26 -140.999 -128l-95 -261c-28 -77 -54 -123 -93 -165c-64 -68 -151 -103 -260 -103c-170 0 -221 82 -158 255l113 312c27 73 20 84 -57 90l7 19h283l-7 -19c-83 -7 -98 -18 -124 -90l-116 -320
c-43.2549 -118.479 -39.6709 -203 97.999 -203c75 0 151 31 195 79c27 30 47 68 72 136l98 270c36 100 29 122 -47 128l7 19h232z" />
    <glyph glyph-name="umacron" unicode="&#x16b;" 
d="M625 520h-311l20 54h311zM492 36c-56 -14 -96 -25 -153 -45l-4 2l31 83l-59 -43c-37 -27 -82 -43 -119 -43c-73 0 -102 51 -73 130l78 214c7 19 18 55 21 65c1 7 -8 15 -16 15c-10 0 -29 -10 -45 -27l-47 -51l-13 11c67 84 108 114 157 114c59 0 52 -58 24 -134l-74 -203
c-15 -42 4 -76 43 -76c31 0 67 12 104 36c15 9 25 24 35 51l115 315h84l-125 -343c-17 -46 -10 -57 36 -57h5z" />
    <glyph glyph-name="Ubreve" unicode="&#x16c;" horiz-adv-x="722" 
d="M973.677 874c-25 -70 -113 -138 -207 -138s-130 68 -105 138h26c-5 -58 38 -82 100 -82s123 24 160 82h26zM939 643c-86 -10 -103.999 -26 -140.999 -128l-95 -261c-28 -77 -54 -123 -93 -165c-64 -68 -151 -103 -260 -103c-170 0 -221 82 -158 255l113 312
c27 73 20 84 -57 90l7 19h283l-7 -19c-83 -7 -98 -18 -124 -90l-116 -320c-43.2549 -118.479 -39.6709 -203 97.999 -203c75 0 151 31 195 79c27 30 47 68 72 136l98 270c36 100 29 122 -47 128l7 19h232z" />
    <glyph glyph-name="ubreve" unicode="&#x16d;" 
d="M666 677c-51 -106 -115 -157 -199 -157c-47 0 -80 19 -92 54c-9 28 -8 52 10 103h29c-10 -67 13 -97 77 -97c58 0 90 21 146 97h29zM492 36c-56 -14 -96 -25 -153 -45l-4 2l31 83l-59 -43c-37 -27 -82 -43 -119 -43c-73 0 -102 51 -73 130l78 214c7 19 18 55 21 65
c1 7 -8 15 -16 15c-10 0 -29 -10 -45 -27l-47 -51l-13 11c67 84 108 114 157 114c59 0 52 -58 24 -134l-74 -203c-15 -42 4 -76 43 -76c31 0 67 12 104 36c15 9 25 24 35 51l115 315h84l-125 -343c-17 -46 -10 -57 36 -57h5z" />
    <glyph glyph-name="Uring" unicode="&#x16e;" horiz-adv-x="722" 
d="M902.677 835c-20 -55 -81 -99 -136 -99c-56 0 -83 44 -63 100c20 54 81 99 135 99c55 0 84 -45 64 -100zM868.677 835c13 36 -6 66 -41 66c-36 0 -77 -29 -90 -65s5 -66 40 -66c37 0 78 29 91 65zM939 643c-86 -10 -103.999 -26 -140.999 -128l-95 -261
c-28 -77 -54 -123 -93 -165c-64 -68 -151 -103 -260 -103c-170 0 -221 82 -158 255l113 312c27 73 20 84 -57 90l7 19h283l-7 -19c-83 -7 -98 -18 -124 -90l-116 -320c-43.2549 -118.479 -39.6709 -203 97.999 -203c75 0 151 31 195 79c27 30 47 68 72 136l98 270
c36 100 29 122 -47 128l7 19h232z" />
    <glyph glyph-name="uring" unicode="&#x16f;" 
d="M664 662c-29 -80 -116 -142 -197 -142c-78 0 -118 64 -89 143c29 80 115 143 195 143s120 -63 91 -144zM625 663c21 59 -8 109 -64 109c-57 0 -123 -50 -144 -109s7 -109 63 -109c58 0 123 49 145 109zM492 36c-56 -14 -96 -25 -153 -45l-4 2l31 83l-59 -43
c-37 -27 -82 -43 -119 -43c-73 0 -102 51 -73 130l78 214c7 19 18 55 21 65c1 7 -8 15 -16 15c-10 0 -29 -10 -45 -27l-47 -51l-13 11c67 84 108 114 157 114c59 0 52 -58 24 -134l-74 -203c-15 -42 4 -76 43 -76c31 0 67 12 104 36c15 9 25 24 35 51l115 315h84l-125 -343
c-17 -46 -10 -57 36 -57h5z" />
    <glyph glyph-name="Uhungarumlaut" unicode="&#x170;" horiz-adv-x="722" 
d="M1108.68 849c-5 -13 -19 -24 -44 -33l-196 -80h-43l202 120c25 15 37 19 53 19c24 0 34 -10 28 -26zM948.677 849c-5 -13 -19 -24 -44 -33l-196 -80h-43l202 120c25 15 37 19 53 19c24 0 34 -10 28 -26zM939 643c-86 -10 -103.999 -26 -140.999 -128l-95 -261
c-28 -77 -54 -123 -93 -165c-64 -68 -151 -103 -260 -103c-170 0 -221 82 -158 255l113 312c27 73 20 84 -57 90l7 19h283l-7 -19c-83 -7 -98 -18 -124 -90l-116 -320c-43.2549 -118.479 -39.6709 -203 97.999 -203c75 0 151 31 195 79c27 30 47 68 72 136l98 270
c36 100 29 122 -47 128l7 19h232z" />
    <glyph glyph-name="uhungarumlaut" unicode="&#x171;" 
d="M1095 651c-11 -29 -41 -89 -85 -165l-21 -40h-21c16 90 36 188 42 204c8 23 34 41 58 41c23 0 35 -18 27 -40zM926 651c-11 -29 -41 -89 -85 -165l-21 -40h-21c16 90 36 188 42 204c8 23 34 41 58 41c23 0 35 -18 27 -40zM492 36c-56 -14 -96 -25 -153 -45l-4 2l31 83
l-59 -43c-37 -27 -82 -43 -119 -43c-73 0 -102 51 -73 130l78 214c7 19 18 55 21 65c1 7 -8 15 -16 15c-10 0 -29 -10 -45 -27l-47 -51l-13 11c67 84 108 114 157 114c59 0 52 -58 24 -134l-74 -203c-15 -42 4 -76 43 -76c31 0 67 12 104 36c15 9 25 24 35 51l115 315h84
l-125 -343c-17 -46 -10 -57 36 -57h5z" />
    <glyph glyph-name="Uogonek" unicode="&#x172;" horiz-adv-x="722" 
d="M300.677 -181c31 85 112 139 177 176h29c-60 -41 -112 -85 -135 -149c-13 -36 -6 -61 24 -61c26 0 50 23 69 43l14 -14c-32 -39 -75 -81 -132 -81c-43 0 -63 38 -46 86zM939 643c-86 -10 -103.999 -26 -140.999 -128l-95 -261c-28 -77 -54 -123 -93 -165
c-64 -68 -151 -103 -260 -103c-170 0 -221 82 -158 255l113 312c27 73 20 84 -57 90l7 19h283l-7 -19c-83 -7 -98 -18 -124 -90l-116 -320c-43.2549 -118.479 -39.6709 -203 97.999 -203c75 0 151 31 195 79c27 30 47 68 72 136l98 270c36 100 29 122 -47 128l7 19h232z" />
    <glyph glyph-name="uogonek" unicode="&#x173;" horiz-adv-x="603" 
d="M249 -177c31 85 112 139 177 176h29c-60 -41 -112 -85 -135 -149c-13 -36 -6 -61 24 -61c26 0 50 23 69 43l14 -14c-32 -39 -75 -81 -132 -81c-43 0 -63 38 -46 86zM492 36c-56 -14 -96 -25 -153 -45l-4 2l31 83l-59 -43c-37 -27 -82 -43 -119 -43c-73 0 -102 51 -73 130
l78 214c7 19 18 55 21 65c1 7 -8 15 -16 15c-10 0 -29 -10 -45 -27l-47 -51l-13 11c67 84 108 114 157 114c59 0 52 -58 24 -134l-74 -203c-15 -42 4 -76 43 -76c31 0 67 12 104 36c15 9 25 24 35 51l115 315h84l-125 -343c-17 -46 -10 -57 36 -57h5z" />
    <glyph glyph-name="Wcircumflex" unicode="&#x174;" horiz-adv-x="944" 
d="M1166 643c-57 -10 -71 -18.999 -109 -70.999l-416 -583h-15l-6 423l-308 -423h-15l2 537c-3 94 -11 112 -60 117l7 19h245l-7 -19c-73.7295 -4.25391 -82 -15.8984 -82 -78.001l7 -376l209 282l-3 82c-5 80 -11 89 -68 90l7 19h267l-7 -19c-54 -1 -81 -11 -90 -35
c-4 -11 -4 -30 -3 -51c4 -123 6 -247 9 -371l248 339c20 28 35 54 43 75c10 27 -4 38 -53 43l7 19h198z" />
    <glyph glyph-name="wcircumflex" unicode="&#x175;" horiz-adv-x="722" 
d="M799.5 310h-68l-38 289l-248 -289h-68l314 365h60zM550 116c65.5586 85.7754 132.316 170.35 196.999 257c4 5 10 9 15 14c56 62 70 74 103 74c31 0 49 -16 47 -43c-2 -21 -19 -37 -39 -37c-8 0 -19 3 -32 10c-10 6 -19 9 -25 9c-10 0 -23 -9 -41 -30c-1 -2 3 -6 2 -8
l15 19l-264 -346c-31 -40 -39 -49 -46 -49c-6 0 -7 6 -8 43l-6 236l-199 -240c-21 -26 -34 -39 -39 -39c-6 0 -9 14 -10 44c-4.00879 123.991 -7.93457 248.065 -12 372c0 7 -4 15 -12 15s-28 -9 -41 -23l-51 -55l-11 11c64 81 107 111 153 111c28 0 44 -13 49 -39
c2.06641 -103.268 3.2998 -207.368 5.00098 -311l164 199v56c0 54 -8 65 -44 69l6 15h203l-6 -15c-50 -7 -63 -14 -71 -36c-5 -13 -4 -13 -4 -59z" />
    <glyph glyph-name="Ycircumflex" unicode="&#x176;" horiz-adv-x="722" 
d="M937 643c-52 -4 -86.001 -26 -179.001 -114l-231 -226l-70 -194c-28 -76 -18 -88 70 -90l-7 -19h-306l7 19c92 4 106 14 138 101l63 174l-61 192c-49 141 -58 155 -105 157l7 19h280l-7 -19c-11 -1 -21 -1 -25 -1c-47.5547 -2.88184 -71.5693 -23.1758 -55.999 -73
l67 -222l226 226c14 15 23 27 27 37c9 24 -5 32 -57 33l7 19h219z" />
    <glyph glyph-name="ycircumflex" unicode="&#x177;" 
d="M749.543 310h-68l-38 289l-248 -289h-68l314 365h60zM633 435c-25 -3 -39 -13 -64 -45l-303 -408c-106 -144 -174 -200 -241 -200c-42 0 -65 25 -53 58c9 24 36 44 59 44c17 0 33 -4 49 -11c8 -5 16 -7 22 -7c14 0 44 19 67 45c28 30 74 93 79 108c3 8 3 20 2 37l-38 348
c-1 6 -5 13 -12 13c-9 0 -27 -9 -41 -23l-51 -55l-12 11c64 82 108 111 154 111c26 0 43 -9 50 -32l7 -59l23 -253l197 276c19.418 22.6543 16.625 42 -29 42l6 15h135z" />
    <glyph glyph-name="Ydieresis" unicode="&#x178;" horiz-adv-x="722" 
d="M725.5 785c-10 -27 -40 -49 -68 -49c-27 0 -40 22 -30 50c9 26 41 49 66 49c28 0 42 -23 32 -50zM924.5 785c-10 -27 -40 -49 -68 -49c-27 0 -40 22 -30 50c9 26 41 49 66 49c28 0 42 -23 32 -50zM937 643c-52 -4 -86.001 -26 -179.001 -114l-231 -226l-70 -194
c-28 -76 -18 -88 70 -90l-7 -19h-306l7 19c92 4 106 14 138 101l63 174l-61 192c-49 141 -58 155 -105 157l7 19h280l-7 -19c-11 -1 -21 -1 -25 -1c-47.5547 -2.88184 -71.5693 -23.1758 -55.999 -73l67 -222l226 226c14 15 23 27 27 37c9 24 -5 32 -57 33l7 19h219z" />
    <glyph glyph-name="Zacute" unicode="&#x179;" horiz-adv-x="611" 
d="M1301.25 637c-5 -13 -19 -24 -44 -33l-196 -80h-43l202 120c25 15 37 19 53 19c24 0 34 -10 28 -26zM452 624c-128.358 0 -167.042 -44.1504 -216 -133h-26l82 171h526l-6 -15l-653 -609h257c57 0 106 14 139 39c28 22 46 43 83 99h23l-88 -176h-564l5 15l659 609h-221z
" />
    <glyph glyph-name="zacute" unicode="&#x17a;" horiz-adv-x="444" 
d="M753 659c-6 -16 -19 -29 -45 -42l-190 -97h-40l201 148c25 18 36 23 51 23c22 0 30 -12 23 -32zM467 135l-63 -135h-377l5 15l414 405h-138c-60 0 -80 -15 -116 -88h-18l46 118h347l-6 -15l-416 -405h138c51 0 88 9 108 26c19 17 32 33 60 83z" />
    <glyph glyph-name="Zdotaccent" unicode="&#x17b;" horiz-adv-x="611" 
d="M798.25 787c-11 -29 -40 -51 -69 -51c-28 0 -44 22 -33 51c10 28 42 51 70 51c29 0 42 -23 32 -51zM452 624c-128.358 0 -167.042 -44.1504 -216 -133h-26l82 171h526l-6 -15l-653 -609h257c57 0 106 14 139 39c28 22 46 43 83 99h23l-88 -176h-564l5 15l659 609h-221z
" />
    <glyph glyph-name="zdotaccent" unicode="&#x17c;" horiz-adv-x="444" 
d="M569 571c-11 -29 -41 -51 -70 -51c-28 0 -43 22 -32 51c10 28 41 51 69 51c29 0 43 -23 33 -51zM467 135l-63 -135h-377l5 15l414 405h-138c-60 0 -80 -15 -116 -88h-18l46 118h347l-6 -15l-416 -405h138c51 0 88 9 108 26c19 17 32 33 60 83z" />
    <glyph glyph-name="Zcaron" unicode="&#x17d;" horiz-adv-x="611" 
d="M949.25 865l-181 -129h-77l-88 129h48l96 -79l154 79h48zM452 624c-128.358 0 -167.042 -44.1504 -216 -133h-26l82 171h526l-6 -15l-653 -609h257c57 0 106 14 139 39c28 22 46 43 83 99h23l-88 -176h-564l5 15l659 609h-221z" />
    <glyph glyph-name="zcaron" unicode="&#x17e;" horiz-adv-x="444" 
d="M715 687l-185 -167h-62l-64 167h34l84 -103l159 103h34zM467 135l-63 -135h-377l5 15l414 405h-138c-60 0 -80 -15 -116 -88h-18l46 118h347l-6 -15l-416 -405h138c51 0 88 9 108 26c19 17 32 33 60 83z" />
    <glyph glyph-name="longs" unicode="&#x17f;" horiz-adv-x="389" 
d="M444 440c3 0 10 3 20 10h11l-46 -136h-15c10 90 -8 123 -65 123c-46 0 -87 -27 -102 -68c-10 -27 -3 -52 19 -68l84 -64c48 -36 59 -69 41 -119c-25 -70 -111 -128 -187 -128c-21 0 -44 4 -70 10c-22 6 -32 8 -43 8c-12 0 -16 -2 -27 -12h-13l56 156h16
c-14 -102 7 -140 76 -140c51 0 94 28 110 72c11 31 3 55 -25 75l-46 33c-67 49 -85 88 -65 144c27 73 101 123 183 123c24 0 46 -4 64 -12c9 -5 18 -7 24 -7z" />
    <glyph glyph-name="uni0182" unicode="&#x182;" horiz-adv-x="768" 
d="M726 42c-39 -106 -167 -188 -279 -188c-44 0 -86 23 -74 55c8 22 32 39 55 39c16 0 26 -9 36 -32c9 -21 17 -28 32 -28c14 0 31 8 41 18c27 30 46 62 74 139l98 267c20 54 -42 73 -99 73c-61 0 -131 -46 -138 -65l-76 -211c-27 -73 -18 -86 63 -90l-7 -19h-292l7 19
c85 5 100 16 131 101l182 500h-54c-112 0 -142 -19 -206 -128h-24l68 170h564l-56 -170h-24c17 110 2 128 -112 128h-54l-94 -257c50 43 110 77 177 77c87 0 195 -29 162 -121z" />
    <glyph glyph-name="uni0189" unicode="&#x189;" horiz-adv-x="722" 
d="M807 334c-35 -97 -106 -186 -192 -245c-82 -56 -199 -89 -315 -89h-284l7 19c78 5 95 18 121 90l75 206h-83l16 44h83l70 194c27 74 21 83 -55 90l7 19h270c137 0 233 -36 276 -105c35 -55 37 -133 4 -223zM695 327c39 108 29 194 -29 248c-36 34 -94 50 -183 50
c-40 0 -53 -8 -64 -39l-82 -227h146l-16 -44h-146l-87 -237c-12 -32 -3 -41 37 -41c87 0 149 12 211 41c98 47 170 131 213 249z" />
    <glyph glyph-name="Ereversed" unicode="&#x18e;" horiz-adv-x="611" 
d="M597 0h-540l17 169h28c11 -108 44 -132 187 -132h27c48 0 89 4 101 11c7 4 13 13 20 32l90 247h-154c-82 0 -102 -13 -145 -96h-23l85 232h23c-17 -82 -6 -95 75 -95h154l81 222c10 28 6 34 -21 34h-135c-113 0 -140 -15 -190 -105h-25l55 143h531l-7 -19
c-76 -6 -94 -19 -120 -90l-161 -444c-26 -71 -17 -85 54 -90z" />
    <glyph glyph-name="florin" unicode="&#x192;" 
d="M711 608c-9 -25 -37 -45 -62 -45c-20 0 -33 16 -26 34c2 6 9 15 17 24c5 6 9 11 10 14c3 7 -4 12 -16 12c-16 0 -32 -6 -47 -17c-26 -20 -68 -84 -97 -147l-36 -76h126l-21 -31h-120l-62 -125c-91 -185 -138 -265 -194 -335c-59 -72 -110 -105 -165 -105
c-47 0 -70 29 -55 69c9 26 36 45 63 45c22 0 31 -14 23 -36c-3 -9 -9 -16 -19 -27c-7 -7 -10 -11 -11 -14c-3 -7 4 -13 16 -13c45 0 93 58 145 174l78 172c24 53 51 109 53 113c14.3447 27.3223 28.4863 54.8467 43 82h-111l21 31h107c54 104 89 152 147 208
c40 38 91 61 133 61c47 0 74 -30 60 -68z" />
    <glyph glyph-name="uni019E" unicode="&#x19e;" horiz-adv-x="597" 
d="M670 310c-38 -104 -106 -206 -144 -310c-29 -80 -47 -159 -57 -236h-86c9 77 30 157 59 236c38 104 100 206 138 310c25 69 -8 126 -76 126c-69 0 -144 -57 -169 -126l-113 -310h-84l113 310c20 56 46 126 12 126c-36 0 -56 -53 -72 -98h-28c22 60 58 126 110 126
c51 0 75 -36 75 -85c43 50 106 85 166 85c108 0 191 -57 156 -154z" />
    <glyph glyph-name="uni019F" unicode="&#x19f;" horiz-adv-x="722" 
d="M807 327c-73 -201 -260 -341 -457 -341c-88 0 -163 39 -198 102c-33 58 -32 149 2 243c73 201 262 345 453 345c96 0 167 -36 205 -105c33 -60 31 -145 -5 -244zM693 328c43 119 47 213 11 262c-24 32 -64 50 -110 50c-55 0 -112 -22 -167 -65
c-59 -47 -122 -144 -159 -246c-40 -111 -44 -212 -9 -258c24 -31 62 -49 108 -49c53 0 104 18 152 53c31 23 58 48 76 73c39 52 77 121 98 180zM557 213h-19c20 56 9 78 -51 78h-41c-58 0 -86 -22 -106 -78h-18l85 236h18c-19 -58 -9 -78 52 -78h40c58 0 86 22 106 78h19z
" />
    <glyph glyph-name="Ohorn" unicode="&#x1a0;" horiz-adv-x="919" 
d="M806.895 572c-4 0 -21 -4 -28 -4c-36 0 -53 19 -41 51c12 34 45 57 80 57c45 0 66 -39 48 -89c-22 -60 -89 -121 -168 -154l-2 19c67 37 108 74 120 106c3 8 -1 14 -9 14zM807 327c-73 -201 -260 -341 -457 -341c-88 0 -163 39 -198 102c-33 58 -32 149 2 243
c73 201 262 345 453 345c96 0 167 -36 205 -105c33 -60 31 -145 -5 -244zM693 328c43 119 47 213 11 262c-24 32 -64 50 -110 50c-55 0 -112 -22 -167 -65c-59 -47 -122 -144 -159 -246c-40 -111 -44 -212 -9 -258c24 -31 62 -49 108 -49c53 0 104 18 152 53
c31 23 58 48 76 73c39 52 77 121 98 180z" />
    <glyph glyph-name="ohorn" unicode="&#x1a1;" horiz-adv-x="603" 
d="M559.356 356c-4 0 -21 -4 -28 -4c-36 0 -53 19 -41 51c12 34 45 57 80 57c45 0 66 -39 48 -89c-22 -60 -89 -121 -168 -154l-2 19c67 37 108 74 120 106c3 8 -1 14 -9 14zM555 234c-50 -138 -185 -244 -311 -244s-182 101 -133 236c50 138 176 234 306 234
c128 0 186 -95 138 -226zM452 199c50 137 26 233 -58 233c-71 0 -140 -62 -175 -157c-26 -71 -35 -141 -26 -193c6 -40 35 -64 74 -64c75 0 144 68 185 181z" />
    <glyph glyph-name="uni01A9" unicode="&#x1a9;" horiz-adv-x="653" 
d="M690 159l-106 -159h-564l329 309l-80 353h539l-37 -125h-24c5 37 5 54 -3 68c-12 18 -45 26 -107 26h-242l68 -280l-278 -266h295c103 0 134 12 187 74h23z" />
    <glyph glyph-name="Uhorn" unicode="&#x1af;" horiz-adv-x="900" 
d="M1168.68 572c-4 0 -21 -4 -28 -4c-36 0 -53 19 -41 51c12 34 45 57 80 57c45 0 66 -39 48 -89c-22 -60 -89 -121 -168 -154l-2 19c67 37 108 74 120 106c3 8 -1 14 -9 14zM939 643c-86 -10 -103.999 -26 -140.999 -128l-95 -261c-28 -77 -54 -123 -93 -165
c-64 -68 -151 -103 -260 -103c-170 0 -221 82 -158 255l113 312c27 73 20 84 -57 90l7 19h283l-7 -19c-83 -7 -98 -18 -124 -90l-116 -320c-43.2549 -118.479 -39.6709 -203 97.999 -203c75 0 151 31 195 79c27 30 47 68 72 136l98 270c36 100 29 122 -47 128l7 19h232z" />
    <glyph glyph-name="uhorn" unicode="&#x1b0;" horiz-adv-x="603" 
d="M729 356c-4 0 -21 -4 -28 -4c-36 0 -53 19 -41 51c12 34 45 57 80 57c45 0 66 -39 48 -89c-22 -60 -89 -121 -168 -154l-2 19c67 37 108 74 120 106c3 8 -1 14 -9 14zM492 36c-56 -14 -96 -25 -153 -45l-4 2l31 83l-59 -43c-37 -27 -82 -43 -119 -43
c-73 0 -102 51 -73 130l78 214c7 19 18 55 21 65c1 7 -8 15 -16 15c-10 0 -29 -10 -45 -27l-47 -51l-13 11c67 84 108 114 157 114c59 0 52 -58 24 -134l-74 -203c-15 -42 4 -76 43 -76c31 0 67 12 104 36c15 9 25 24 35 51l115 315h84l-125 -343c-17 -46 -10 -57 36 -57h5z
" />
    <glyph glyph-name="uni01C0" unicode="&#x1c0;" horiz-adv-x="200" 
d="M76 -156h-66l298 818h66z" />
    <glyph glyph-name="uni01C1" unicode="&#x1c1;" horiz-adv-x="400" 
d="M276 -156h-66l298 818h66zM76 -156h-66l298 818h66z" />
    <glyph glyph-name="uni01C4" unicode="&#x1c4;" horiz-adv-x="1333" 
d="M1671.25 865l-181 -129h-77l-88 129h48l96 -79l154 79h48zM1174 624c-128.358 0 -167.042 -44.1504 -216 -133h-26l82 171h526l-6 -15l-653 -609h257c57 0 106 14 139 39c28 22 46 43 83 99h23l-88 -176h-564l5 15l659 609h-221zM807 334c-35 -97 -106 -186 -192 -245
c-82 -56 -199 -89 -315 -89h-284l7 19c78 5 95 18 121 90l161 444c27 74 21 83 -55 90l7 19h270c137 0 233 -36 276 -105c35 -55 37 -133 4 -223zM695 327c39 108 29 194 -29 248c-36 34 -95 50 -181 50c-41 0 -55 -8 -66 -39l-185 -508c-12 -32 -3 -41 37 -41
c87 0 149 12 211 41c98 47 170 131 213 249z" />
    <glyph glyph-name="uni01C5" unicode="&#x1c5;" horiz-adv-x="1166" 
d="M1437 687l-185 -167h-62l-64 167h34l84 -103l159 103h34zM1189 135l-63 -135h-377l5 15l414 405h-138c-60 0 -80 -15 -116 -88h-18l46 118h347l-6 -15l-416 -405h138c51 0 88 9 108 26c19 17 32 33 60 83zM807 334c-35 -97 -106 -186 -192 -245
c-82 -56 -199 -89 -315 -89h-284l7 19c78 5 95 18 121 90l161 444c27 74 21 83 -55 90l7 19h270c137 0 233 -36 276 -105c35 -55 37 -133 4 -223zM695 327c39 108 29 194 -29 248c-36 34 -95 50 -181 50c-41 0 -55 -8 -66 -39l-185 -508c-12 -32 -3 -41 37 -41
c87 0 149 12 211 41c98 47 170 131 213 249z" />
    <glyph glyph-name="uni01C6" unicode="&#x1c6;" horiz-adv-x="944" 
d="M1215 687l-185 -167h-62l-64 167h34l84 -103l159 103h34zM967 135l-63 -135h-377l5 15l414 405h-138c-60 0 -80 -15 -116 -88h-18l46 118h347l-6 -15l-416 -405h138c51 0 88 9 108 26c19 17 32 33 60 83zM672 681l-206 -565c-7 -19 -18 -55 -21 -65c-1 -7 7 -15 15 -15
c10 0 30 10 46 27l47 51l13 -11c-67 -84 -108 -114 -157 -114c-40 0 -55 27 -48 68c-51 -47 -97 -67 -153 -67c-110 0 -153 87 -106 215c52 142 185 255 300 255c40 0 64 -11 90 -43l57 156c15 41 9 51 -28 51c-8 0 -14 0 -22 -1l6 16c70 17 109 27 163 44zM377 102l84 230
c19 53 -13 100 -66 100c-76 0 -152 -74 -193 -187c-45 -123 -19 -203 64 -203c29 0 58 10 83 30c14 11 25 23 28 30z" />
    <glyph glyph-name="uni01C7" unicode="&#x1c7;" horiz-adv-x="1000" 
d="M1215 643c-83 -6 -98 -17 -125 -90l-134 -370c-45 -125 -133 -197 -241 -197c-58 0 -88 30 -73 72c10 27 40 50 67 50c26 0 37 -16 34 -51c-2 -25 1 -33 15 -33c26 0 46 21 62 66l168 463c27 73 20 84 -60 90l7 19h287zM368 39c135 0 193 43 268 135h25l-111 -174h-538
l7 19c75 5 94 19 120 90l161 444c26 71 18 84 -54 90l7 19h282l-7 -19c-81 -5 -100 -19 -126 -90l-172 -473c-13 -35 -2 -41 71 -41h67z" />
    <glyph glyph-name="uni01C8" unicode="&#x1c8;" horiz-adv-x="889" 
d="M1021 571c-11 -29 -41 -51 -70 -51c-28 0 -43 22 -32 51c10 28 41 51 69 51c29 0 43 -23 33 -51zM831 394c-10 0 -30 -1 -46 -4l6 16c66 18 108 31 175 54l4 -3l-166 -457c-52 -142 -138 -218 -249 -218c-54 0 -85 23 -73 55c8 22 32 39 55 39c16 0 26 -9 36 -32
c9 -21 17 -28 32 -28c14 0 31 8 41 18c18 20 30 45 58 121l138 379c16 43 12 60 -11 60zM368 39c135 0 193 43 268 135h25l-111 -174h-538l7 19c75 5 94 19 120 90l161 444c26 71 18 84 -54 90l7 19h282l-7 -19c-81 -5 -100 -19 -126 -90l-172 -473c-13 -35 -2 -41 71 -41
h67z" />
    <glyph glyph-name="uni01C9" unicode="&#x1c9;" horiz-adv-x="556" 
d="M688 571c-11 -29 -41 -51 -70 -51c-28 0 -43 22 -32 51c10 28 41 51 69 51c29 0 43 -23 33 -51zM498 394c-10 0 -30 -1 -46 -4l6 16c66 18 108 31 175 54l4 -3l-166 -457c-52 -142 -138 -218 -249 -218c-54 0 -85 23 -73 55c8 22 32 39 55 39c16 0 26 -9 36 -32
c9 -21 17 -28 32 -28c14 0 31 8 41 18c18 20 30 45 58 121l138 379c16 43 12 60 -11 60zM430 681l-206 -565c-7 -19 -18 -55 -21 -65c-1 -7 7 -15 15 -15c10 0 30 10 46 27l47 51l13 -11c-67 -84 -108 -114 -157 -114c-59 0 -52 58 -24 134l160 441c17 47 12 61 -20 61
c-8 0 -20 -1 -31 -2h-6l6 16c75 17 117 27 175 44z" />
    <glyph glyph-name="uni01CA" unicode="&#x1ca;" horiz-adv-x="1111" 
d="M1326 643c-83 -6 -98 -17 -125 -90l-134 -370c-45 -125 -133 -197 -241 -197c-58 0 -88 30 -73 72c10 27 40 50 67 50c26 0 37 -16 34 -51c-2 -25 1 -33 15 -33c26 0 46 21 62 66l168 463c27 73 20 84 -60 90l7 19h287zM941 643c-39 -4 -55 -8 -73 -18
c-24 -13 -47 -50 -69 -110l-191 -526h-17l-242 550l-142 -392c-37 -101 -29 -124 47 -128l-7 -19h-235l7 19c85 6 107 25 144 128l160 441c-23 47 -34 55 -77 55l7 19h171l209 -484l122 337c23 62 27 98 12 112c-12 9 -24 13 -61 16l7 19h235z" />
    <glyph glyph-name="uni01CB" unicode="&#x1cb;" horiz-adv-x="1000" 
d="M1132 571c-11 -29 -41 -51 -70 -51c-28 0 -43 22 -32 51c10 28 41 51 69 51c29 0 43 -23 33 -51zM942 394c-10 0 -30 -1 -46 -4l6 16c66 18 108 31 175 54l4 -3l-166 -457c-52 -142 -138 -218 -249 -218c-54 0 -85 23 -73 55c8 22 32 39 55 39c16 0 26 -9 36 -32
c9 -21 17 -28 32 -28c14 0 31 8 41 18c18 20 30 45 58 121l138 379c16 43 12 60 -11 60zM941 643c-39 -4 -55 -8 -73 -18c-24 -13 -47 -50 -69 -110l-191 -526h-17l-242 550l-142 -392c-37 -101 -29 -124 47 -128l-7 -19h-235l7 19c85 6 107 25 144 128l160 441
c-23 47 -34 55 -77 55l7 19h171l209 -484l122 337c23 62 27 98 12 112c-12 9 -24 13 -61 16l7 19h235z" />
    <glyph glyph-name="uni01CC" unicode="&#x1cc;" horiz-adv-x="778" 
d="M910 571c-11 -29 -41 -51 -70 -51c-28 0 -43 22 -32 51c10 28 41 51 69 51c29 0 43 -23 33 -51zM720 394c-10 0 -30 -1 -46 -4l6 16c66 18 108 31 175 54l4 -3l-166 -457c-52 -142 -138 -218 -249 -218c-54 0 -85 23 -73 55c8 22 32 39 55 39c16 0 26 -9 36 -32
c9 -21 17 -28 32 -28c14 0 31 8 41 18c18 20 30 45 58 121l138 379c16 43 12 60 -11 60zM537 310l-71 -194c-7 -19 -18 -55 -21 -65c-1 -7 7 -15 15 -15c10 0 30 10 46 27l47 51l13 -11c-67 -84 -108 -114 -157 -114c-59 0 -52 58 -24 134l67 185c24 66 11 97 -38 97
c-33 0 -59 -12 -123 -57c-38.6377 -105.696 -77.5947 -211.072 -116 -317l-95 -31l122 335c7 19 19 55 22 65c1 7 -8 15 -16 15c-9 0 -28 -9 -43 -25l-49 -53l-13 11c66 83 108 113 155 113c42 0 52 -32 41 -82c91 64 128 81 174 81c74 0 98 -56 64 -150z" />
    <glyph glyph-name="uni01CD" unicode="&#x1cd;" horiz-adv-x="722" 
d="M909.5 865l-181 -129h-77l-88 129h48l96 -79l154 79h48zM458 19c76.543 0 93.4668 24.4658 88 101l-6 96h-262l-89 -117c-10 -13 -18 -27 -22 -39c-10 -28 5 -41 53 -41l-7 -19h-198l7 19c49 3 67 18 184 164l386 491h20l43 -568c8 -74 14 -84 58 -87l-7 -19h-255z
M541 257l-16 275l-215 -275h231z" />
    <glyph glyph-name="uni01CE" unicode="&#x1ce;" 
d="M700.185 687l-185 -167h-62l-64 167h34l84 -103l159 103h34zM466 116c-7 -19 -18 -55 -21 -65c-1 -7 7 -15 15 -15c10 0 30 10 46 27l47 51l13 -11c-67 -84 -108 -114 -157 -114c-40 0 -55 27 -48 68c-51 -47 -97 -67 -153 -67c-110 0 -153 87 -106 215
c52 142 185 255 300 255c40 0 64 -11 90 -43l1 2l95 31zM377 102l84 230c19 53 -13 100 -66 100c-76 0 -152 -74 -193 -187c-45 -123 -19 -203 64 -203c29 0 58 10 83 30c14 11 25 23 28 30z" />
    <glyph glyph-name="uni01CF" unicode="&#x1cf;" horiz-adv-x="333" 
d="M733.5 865l-181 -129h-77l-88 129h48l96 -79l154 79h48zM315 0h-297l7 19c85 3 103 15 130 90l161 444c27 74 19 85 -64 90l7 19h297l-7 -19c-85 -4 -104 -17 -131 -90l-161 -444c-27 -73 -16 -87 65 -90z" />
    <glyph glyph-name="uni01D0" unicode="&#x1d0;" horiz-adv-x="278" 
d="M542 687l-185 -167h-62l-64 167h34l84 -103l159 103h34zM217 334c7 19 18 55 21 65c1 7 -8 15 -16 15c-10 0 -29 -10 -45 -27l-47 -51l-13 11c67 84 108 114 157 114c59 0 52 -58 24 -134l-77 -211c-7 -19 -18 -55 -21 -65c-1 -7 7 -15 15 -15c10 0 30 10 46 27l47 51
l13 -11c-67 -84 -108 -114 -157 -114c-59 0 -52 58 -24 134z" />
    <glyph glyph-name="uni01D1" unicode="&#x1d1;" horiz-adv-x="722" 
d="M970.895 865l-181 -129h-77l-88 129h48l96 -79l154 79h48zM807 327c-73 -201 -260 -341 -457 -341c-88 0 -163 39 -198 102c-33 58 -32 149 2 243c73 201 262 345 453 345c96 0 167 -36 205 -105c33 -60 31 -145 -5 -244zM693 328c43 119 47 213 11 262
c-24 32 -64 50 -110 50c-55 0 -112 -22 -167 -65c-59 -47 -122 -144 -159 -246c-40 -111 -44 -212 -9 -258c24 -31 62 -49 108 -49c53 0 104 18 152 53c31 23 58 48 76 73c39 52 77 121 98 180z" />
    <glyph glyph-name="uni01D2" unicode="&#x1d2;" 
d="M719.356 687l-185 -167h-62l-64 167h34l84 -103l159 103h34zM555 234c-50 -138 -185 -244 -311 -244s-182 101 -133 236c50 138 176 234 306 234c128 0 186 -95 138 -226zM452 199c50 137 26 233 -58 233c-71 0 -140 -62 -175 -157c-26 -71 -35 -141 -26 -193
c6 -40 35 -64 74 -64c75 0 144 68 185 181z" />
    <glyph glyph-name="uni01D3" unicode="&#x1d3;" horiz-adv-x="722" 
d="M986.677 865l-181 -129h-77l-88 129h48l96 -79l154 79h48zM939 643c-86 -10 -103.999 -26 -140.999 -128l-95 -261c-28 -77 -54 -123 -93 -165c-64 -68 -151 -103 -260 -103c-170 0 -221 82 -158 255l113 312c27 73 20 84 -57 90l7 19h283l-7 -19
c-83 -7 -98 -18 -124 -90l-116 -320c-43.2549 -118.479 -39.6709 -203 97.999 -203c75 0 151 31 195 79c27 30 47 68 72 136l98 270c36 100 29 122 -47 128l7 19h232z" />
    <glyph glyph-name="uni01D4" unicode="&#x1d4;" 
d="M685 687l-185 -167h-62l-64 167h34l84 -103l159 103h34zM492 36c-56 -14 -96 -25 -153 -45l-4 2l31 83l-59 -43c-37 -27 -82 -43 -119 -43c-73 0 -102 51 -73 130l78 214c7 19 18 55 21 65c1 7 -8 15 -16 15c-10 0 -29 -10 -45 -27l-47 -51l-13 11c67 84 108 114 157 114
c59 0 52 -58 24 -134l-74 -203c-15 -42 4 -76 43 -76c31 0 67 12 104 36c15 9 25 24 35 51l115 315h84l-125 -343c-17 -46 -10 -57 36 -57h5z" />
    <glyph glyph-name="uni01D5" unicode="&#x1d5;" horiz-adv-x="722" 
d="M978.677 895h-311l19 54h311zM734.677 785c-10 -27 -40 -49 -68 -49c-27 0 -40 22 -30 50c9 26 41 49 66 49c28 0 42 -23 32 -50zM933.677 785c-10 -27 -40 -49 -68 -49c-27 0 -40 22 -30 50c9 26 41 49 66 49c28 0 42 -23 32 -50zM939 643
c-86 -10 -103.999 -26 -140.999 -128l-95 -261c-28 -77 -54 -123 -93 -165c-64 -68 -151 -103 -260 -103c-170 0 -221 82 -158 255l113 312c27 73 20 84 -57 90l7 19h283l-7 -19c-83 -7 -98 -18 -124 -90l-116 -320c-43.2549 -118.479 -39.6709 -203 97.999 -203
c75 0 151 31 195 79c27 30 47 68 72 136l98 270c36 100 29 122 -47 128l7 19h232z" />
    <glyph glyph-name="uni01D6" unicode="&#x1d6;" 
d="M681 679h-311l20 54h311zM437 569c-10 -27 -41 -49 -69 -49c-27 0 -40 22 -30 50c9 26 41 49 66 49c28 0 43 -23 33 -50zM636 569c-10 -27 -41 -49 -69 -49c-27 0 -40 22 -30 50c9 26 41 49 66 49c28 0 43 -23 33 -50zM492 36c-56 -14 -96 -25 -153 -45l-4 2l31 83
l-59 -43c-37 -27 -82 -43 -119 -43c-73 0 -102 51 -73 130l78 214c7 19 18 55 21 65c1 7 -8 15 -16 15c-10 0 -29 -10 -45 -27l-47 -51l-13 11c67 84 108 114 157 114c59 0 52 -58 24 -134l-74 -203c-15 -42 4 -76 43 -76c31 0 67 12 104 36c15 9 25 24 35 51l115 315h84
l-125 -343c-17 -46 -10 -57 36 -57h5z" />
    <glyph glyph-name="uni01D7" unicode="&#x1d7;" horiz-adv-x="722" 
d="M1395.68 796c-5 -13 -19 -24 -44 -33l-196 -80h-43l202 120c25 15 37 19 53 19c24 0 34 -10 28 -26zM734.677 785c-10 -27 -40 -49 -68 -49c-27 0 -40 22 -30 50c9 26 41 49 66 49c28 0 42 -23 32 -50zM933.677 785c-10 -27 -40 -49 -68 -49c-27 0 -40 22 -30 50
c9 26 41 49 66 49c28 0 42 -23 32 -50zM939 643c-86 -10 -103.999 -26 -140.999 -128l-95 -261c-28 -77 -54 -123 -93 -165c-64 -68 -151 -103 -260 -103c-170 0 -221 82 -158 255l113 312c27 73 20 84 -57 90l7 19h283l-7 -19c-83 -7 -98 -18 -124 -90l-116 -320
c-43.2549 -118.479 -39.6709 -203 97.999 -203c75 0 151 31 195 79c27 30 47 68 72 136l98 270c36 100 29 122 -47 128l7 19h232z" />
    <glyph glyph-name="uni01D8" unicode="&#x1d8;" 
d="M780 818c-6 -16 -19 -29 -45 -42l-190 -97h-40l201 148c25 18 36 23 51 23c22 0 30 -12 23 -32zM437 569c-10 -27 -41 -49 -69 -49c-27 0 -40 22 -30 50c9 26 41 49 66 49c28 0 43 -23 33 -50zM636 569c-10 -27 -41 -49 -69 -49c-27 0 -40 22 -30 50c9 26 41 49 66 49
c28 0 43 -23 33 -50zM492 36c-56 -14 -96 -25 -153 -45l-4 2l31 83l-59 -43c-37 -27 -82 -43 -119 -43c-73 0 -102 51 -73 130l78 214c7 19 18 55 21 65c1 7 -8 15 -16 15c-10 0 -29 -10 -45 -27l-47 -51l-13 11c67 84 108 114 157 114c59 0 52 -58 24 -134l-74 -203
c-15 -42 4 -76 43 -76c31 0 67 12 104 36c15 9 25 24 35 51l115 315h84l-125 -343c-17 -46 -10 -57 36 -57h5z" />
    <glyph glyph-name="uni01D9" unicode="&#x1d9;" horiz-adv-x="722" 
d="M1043.68 1024l-181 -129h-77l-88 129h48l96 -79l154 79h48zM734.677 785c-10 -27 -40 -49 -68 -49c-27 0 -40 22 -30 50c9 26 41 49 66 49c28 0 42 -23 32 -50zM933.677 785c-10 -27 -40 -49 -68 -49c-27 0 -40 22 -30 50c9 26 41 49 66 49c28 0 42 -23 32 -50zM939 643
c-86 -10 -103.999 -26 -140.999 -128l-95 -261c-28 -77 -54 -123 -93 -165c-64 -68 -151 -103 -260 -103c-170 0 -221 82 -158 255l113 312c27 73 20 84 -57 90l7 19h283l-7 -19c-83 -7 -98 -18 -124 -90l-116 -320c-43.2549 -118.479 -39.6709 -203 97.999 -203
c75 0 151 31 195 79c27 30 47 68 72 136l98 270c36 100 29 122 -47 128l7 19h232z" />
    <glyph glyph-name="uni01DA" unicode="&#x1da;" 
d="M742 846l-185 -167h-62l-64 167h34l84 -103l159 103h34zM437 569c-10 -27 -41 -49 -69 -49c-27 0 -40 22 -30 50c9 26 41 49 66 49c28 0 43 -23 33 -50zM636 569c-10 -27 -41 -49 -69 -49c-27 0 -40 22 -30 50c9 26 41 49 66 49c28 0 43 -23 33 -50zM492 36
c-56 -14 -96 -25 -153 -45l-4 2l31 83l-59 -43c-37 -27 -82 -43 -119 -43c-73 0 -102 51 -73 130l78 214c7 19 18 55 21 65c1 7 -8 15 -16 15c-10 0 -29 -10 -45 -27l-47 -51l-13 11c67 84 108 114 157 114c59 0 52 -58 24 -134l-74 -203c-15 -42 4 -76 43 -76
c31 0 67 12 104 36c15 9 25 24 35 51l115 315h84l-125 -343c-17 -46 -10 -57 36 -57h5z" />
    <glyph glyph-name="uni01DB" unicode="&#x1db;" horiz-adv-x="722" 
d="M844.677 895h-43l-138 80c-19 9 -25 20 -20 33c6 16 24 26 48 26c16 0 24 -4 39 -19zM734.677 785c-10 -27 -40 -49 -68 -49c-27 0 -40 22 -30 50c9 26 41 49 66 49c28 0 42 -23 32 -50zM933.677 785c-10 -27 -40 -49 -68 -49c-27 0 -40 22 -30 50c9 26 41 49 66 49
c28 0 42 -23 32 -50zM939 643c-86 -10 -103.999 -26 -140.999 -128l-95 -261c-28 -77 -54 -123 -93 -165c-64 -68 -151 -103 -260 -103c-170 0 -221 82 -158 255l113 312c27 73 20 84 -57 90l7 19h283l-7 -19c-83 -7 -98 -18 -124 -90l-116 -320
c-43.2549 -118.479 -39.6709 -203 97.999 -203c75 0 151 31 195 79c27 30 47 68 72 136l98 270c36 100 29 122 -47 128l7 19h232z" />
    <glyph glyph-name="uni01DC" unicode="&#x1dc;" 
d="M545 679h-40l-118 97c-16 13 -21 26 -15 42c7 20 25 32 47 32c15 0 22 -5 33 -23zM437 569c-10 -27 -41 -49 -69 -49c-27 0 -40 22 -30 50c9 26 41 49 66 49c28 0 43 -23 33 -50zM636 569c-10 -27 -41 -49 -69 -49c-27 0 -40 22 -30 50c9 26 41 49 66 49
c28 0 43 -23 33 -50zM492 36c-56 -14 -96 -25 -153 -45l-4 2l31 83l-59 -43c-37 -27 -82 -43 -119 -43c-73 0 -102 51 -73 130l78 214c7 19 18 55 21 65c1 7 -8 15 -16 15c-10 0 -29 -10 -45 -27l-47 -51l-13 11c67 84 108 114 157 114c59 0 52 -58 24 -134l-74 -203
c-15 -42 4 -76 43 -76c31 0 67 12 104 36c15 9 25 24 35 51l115 315h84l-125 -343c-17 -46 -10 -57 36 -57h5z" />
    <glyph glyph-name="eturned" unicode="&#x1dd;" horiz-adv-x="444" 
d="M510 236c-53 -146 -175 -246 -299 -246c-52 0 -90 21 -107 57c-13 32 -13 61 3 126h308c21 64 26 99 20 138c-9 54 -42 80 -97 80c-64 0 -117 -29 -193 -105l-13 7c81 108 176 167 272 167c115 0 156 -86 106 -224zM401 141h-204c-19 -87 -5 -115 56 -115s108 36 148 115
z" />
    <glyph glyph-name="uni01DE" unicode="&#x1de;" horiz-adv-x="722" 
d="M901.5 895h-311l19 54h311zM656.5 785c-10 -27 -40 -49 -68 -49c-27 0 -40 22 -30 50c9 26 41 49 66 49c28 0 42 -23 32 -50zM855.5 785c-10 -27 -40 -49 -68 -49c-27 0 -40 22 -30 50c9 26 41 49 66 49c28 0 42 -23 32 -50zM458 19c76.543 0 93.4668 24.4658 88 101
l-6 96h-262l-89 -117c-10 -13 -18 -27 -22 -39c-10 -28 5 -41 53 -41l-7 -19h-198l7 19c49 3 67 18 184 164l386 491h20l43 -568c8 -74 14 -84 58 -87l-7 -19h-255zM541 257l-16 275l-215 -275h231z" />
    <glyph glyph-name="uni01DF" unicode="&#x1df;" 
d="M696.185 679h-311l20 54h311zM452.185 569c-10 -27 -41 -49 -69 -49c-27 0 -40 22 -30 50c9 26 41 49 66 49c28 0 43 -23 33 -50zM651.185 569c-10 -27 -41 -49 -69 -49c-27 0 -40 22 -30 50c9 26 41 49 66 49c28 0 43 -23 33 -50zM466 116c-7 -19 -18 -55 -21 -65
c-1 -7 7 -15 15 -15c10 0 30 10 46 27l47 51l13 -11c-67 -84 -108 -114 -157 -114c-40 0 -55 27 -48 68c-51 -47 -97 -67 -153 -67c-110 0 -153 87 -106 215c52 142 185 255 300 255c40 0 64 -11 90 -43l1 2l95 31zM377 102l84 230c19 53 -13 100 -66 100
c-76 0 -152 -74 -193 -187c-45 -123 -19 -203 64 -203c29 0 58 10 83 30c14 11 25 23 28 30z" />
    <glyph glyph-name="uni01E0" unicode="&#x1e0;" horiz-adv-x="722" 
d="M904.5 898h-311l19 54h311zM758.5 787c-11 -29 -40 -51 -69 -51c-28 0 -44 22 -33 51c10 28 42 51 70 51c29 0 42 -23 32 -51zM458 19c76.543 0 93.4668 24.4658 88 101l-6 96h-262l-89 -117c-10 -13 -18 -27 -22 -39c-10 -28 5 -41 53 -41l-7 -19h-198l7 19
c49 3 67 18 184 164l386 491h20l43 -568c8 -74 14 -84 58 -87l-7 -19h-255zM541 257l-16 275l-215 -275h231z" />
    <glyph glyph-name="uni01E1" unicode="&#x1e1;" 
d="M640.185 520h-311l20 54h311zM554.185 571c-11 -29 -41 -51 -70 -51c-28 0 -43 22 -32 51c10 28 41 51 69 51c29 0 43 -23 33 -51zM466 116c-7 -19 -18 -55 -21 -65c-1 -7 7 -15 15 -15c10 0 30 10 46 27l47 51l13 -11c-67 -84 -108 -114 -157 -114c-40 0 -55 27 -48 68
c-51 -47 -97 -67 -153 -67c-110 0 -153 87 -106 215c52 142 185 255 300 255c40 0 64 -11 90 -43l1 2l95 31zM377 102l84 230c19 53 -13 100 -66 100c-76 0 -152 -74 -193 -187c-45 -123 -19 -203 64 -203c29 0 58 10 83 30c14 11 25 23 28 30z" />
    <glyph glyph-name="uni01E2" unicode="&#x1e2;" horiz-adv-x="889" 
d="M1150.5 736h-311l19 54h311zM741 366c111.099 0 133.625 22.1846 168 97.001h21l-86 -234h-21c10 41 12 56 7 72c-6 18 -30 28 -68 28h-145l-87 -238c-18 -50 -15 -53 50 -53h76c108 0 146 20 244 130h24l-105 -168h-510l7 19l18 2c63 7 79 21 103 87l56 152h-176
l-48 -53c-68 -78 -113 -136 -121 -158c-5 -15 15 -26 57 -30h1l-7 -19h-199l7 19c45 6 61 17 116 78l421 484c35.8037 39.3838 33.1406 58.1514 -58 60.999l7 20h564l-51 -141h-23c20 91 2 105 -144 105h-87c-19 0 -30 -8 -38 -30l-84 -230h111zM507 299.001l116 319
l-275 -319h159z" />
    <glyph glyph-name="uni01E3" unicode="&#x1e3;" horiz-adv-x="667" 
d="M811.183 520h-311l20 54h311zM686 149c-48 -59 -77 -87 -113 -111c-48 -32 -95 -48 -142 -48c-57 0 -87 21 -102 73c-88 -56 -129 -73 -179 -73c-68 0 -100 45 -76 110c22 60 79 101 202 145l99 36l25 63c9 23 16 54 13 69c-2 14 -17 23 -41 23c-42 0 -82 -23 -87 -50
c0 -3 -1 -6 -1 -6l-4 -11l-5 -17c-10 -29 -32 -48 -60 -48c-27 0 -38 19 -27 48c23 62 108 108 199 108c49 0 75 -12 101 -45c57 34 89 45 135 45c101 0 130 -54 94 -183h-262c-35 -99 -42 -131 -35 -170c6 -30 36 -50 77 -50c57 0 106 27 179 97zM326 88c1 38 8 76 21 113
l19 52c-137 -44 -174 -68 -196 -128c-17 -48 -1 -87 36 -87s113 32 120 50zM633 307c30 87 20 124 -34 124c-57 0 -95 -36 -132 -124h166z" />
    <glyph glyph-name="Gcaron" unicode="&#x1e6;" horiz-adv-x="722" 
d="M1124.28 865l-181 -129h-77l-88 129h48l96 -79l154 79h48zM831 336c-60 -5 -77 -18 -98 -77l-74 -203c-53 -35 -190 -70 -276 -70c-110 0 -192 38 -234 107c-35 59 -35 134 1 232c74 204 271 351 471 351c45 0 88 -8 128 -23c15 -7 30 -10 40 -10c21 0 44 14 57 33h22
l-69 -211h-23c-3 61 -9 88 -29 116c-26 36 -68 55 -124 55c-68 0 -139 -27 -201 -76s-123 -140 -157 -234c-68 -186 -10 -300 153 -300c72 0 143 27 155 59l59 162c16 43 18 66 6 75c-9 8 -20 11 -62 14l7 18h255z" />
    <glyph glyph-name="gcaron" unicode="&#x1e7;" 
d="M730.596 687l-185 -167h-62l-64 167h34l84 -103l159 103h34zM611 388h-83c2 -32 0 -55 -11 -84c-18 -50 -46 -85 -89 -113c-41 -27 -87 -42 -124 -42c-6 0 -19 1 -37 3c-3 0 -9 1 -18 2c-30 -8 -76 -43 -83 -63c-6 -16 16 -25 68 -27l127 -6c73 -3 105 -45 82 -107
c-14 -38 -43 -70 -92 -101c-67 -42 -154 -68 -229 -68c-95 0 -157 44 -138 97c13 37 52 70 142 122c-34 20 -41 32 -33 53c7 20 27 40 71 69l57 40c-54 33 -67 71 -44 134c33 91 133 163 226 163c26 0 52 -5 75 -15l19 -8c17 -7 31 -10 51 -10h77zM410 -64
c13 36 -15 49 -106 49c-49 0 -128 6 -158 13c-60 -50 -72 -63 -80 -86c-16 -44 31 -73 119 -73c113 0 204 39 225 97zM425 265c14 39 19 85 14 120c-5 30 -25 47 -56 47c-46.7412 0 -88.9473 -36.8418 -109 -97c-35 -96 -17 -161 43 -161c46 0 88 35 108 91z" />
    <glyph glyph-name="uni01E8" unicode="&#x1e8;" horiz-adv-x="722" 
d="M1007.5 865l-181 -129h-77l-88 129h48l96 -79l154 79h48zM723 0h-305l7 19c12 1 23 1 28 1c28 1 45 8 50 22c9 24 -19 95 -68 170l-68 105l-33 -21l-68 -187c-27 -73 -19 -85 57 -90l-7 -19h-282l7 19c81 5 97 18 127 101l157 433c26 71 19 84 -57 90l7 19h284l-7 -19
c-83 -6 -98 -17 -125 -90l-74 -205l235 161c74 51 108 81 116 103c7 20 -2 28 -31 30c-4 0 -14 0 -26 1l7 19h262l-7 -19c-70 -5 -88 -13 -180 -78l-259 -188l142 -250c56 -97 66 -107 118 -108z" />
    <glyph glyph-name="uni01E9" unicode="&#x1e9;" 
d="M727.79 910l-185 -167h-62l-64 167h34l84 -103l159 103h34zM338 282c33.6943 -79.3057 66.8613 -159.138 100.999 -238c2 -5 5 -13 11 -13c8 0 27 8 39 21l53 57l10 -11c-63 -80 -107 -109 -151 -109c-18 0 -33 2 -46 15c-35.6797 79.3203 -65.4316 164.568 -98 247
c-26.6562 -73.3438 -53.4697 -146.53 -80 -220l-95 -31c68.6338 187.7 136.635 376.032 205 564c17 48 12 61 -21 61c-10 0 -19 -1 -32 -2l6 16c57 14 114 29 171 44l3 -2l-153 -420c93.5986 63.0684 187.083 126.251 281.001 189c12 8 22 11 35 11c29 0 46 -15 44 -40
c-2 -18 -16 -32 -33 -32c-7 0 -19 3 -31 10c-10 6 -21 9 -27 9c-4 0 -8 -2 -15 -6c-58.9824 -40.0176 -119.46 -78.54 -177 -120z" />
    <glyph glyph-name="Oogonek" unicode="&#x1ea;" horiz-adv-x="722" 
d="M282.895 -181c31 85 112 139 177 176h29c-60 -41 -112 -85 -135 -149c-13 -36 -6 -61 24 -61c26 0 50 23 69 43l14 -14c-32 -39 -75 -81 -132 -81c-43 0 -63 38 -46 86zM807 327c-73 -201 -260 -341 -457 -341c-88 0 -163 39 -198 102c-33 58 -32 149 2 243
c73 201 262 345 453 345c96 0 167 -36 205 -105c33 -60 31 -145 -5 -244zM693 328c43 119 47 213 11 262c-24 32 -64 50 -110 50c-55 0 -112 -22 -167 -65c-59 -47 -122 -144 -159 -246c-40 -111 -44 -212 -9 -258c24 -31 62 -49 108 -49c53 0 104 18 152 53
c31 23 58 48 76 73c39 52 77 121 98 180z" />
    <glyph glyph-name="oogonek" unicode="&#x1eb;" 
d="M120.356 -177c31 85 112 139 177 176h29c-60 -41 -112 -85 -135 -149c-13 -36 -6 -61 24 -61c26 0 50 23 69 43l14 -14c-32 -39 -75 -81 -132 -81c-43 0 -63 38 -46 86zM555 234c-50 -138 -185 -244 -311 -244s-182 101 -133 236c50 138 176 234 306 234
c128 0 186 -95 138 -226zM452 199c50 137 26 233 -58 233c-71 0 -140 -62 -175 -157c-26 -71 -35 -141 -26 -193c6 -40 35 -64 74 -64c75 0 144 68 185 181z" />
    <glyph glyph-name="uni01EC" unicode="&#x1ec;" horiz-adv-x="722" 
d="M906.895 736h-311l19 54h311zM282.895 -181c31 85 112 139 177 176h29c-60 -41 -112 -85 -135 -149c-13 -36 -6 -61 24 -61c26 0 50 23 69 43l14 -14c-32 -39 -75 -81 -132 -81c-43 0 -63 38 -46 86zM807 327c-73 -201 -260 -341 -457 -341c-88 0 -163 39 -198 102
c-33 58 -32 149 2 243c73 201 262 345 453 345c96 0 167 -36 205 -105c33 -60 31 -145 -5 -244zM693 328c43 119 47 213 11 262c-24 32 -64 50 -110 50c-55 0 -112 -22 -167 -65c-59 -47 -122 -144 -159 -246c-40 -111 -44 -212 -9 -258c24 -31 62 -49 108 -49
c53 0 104 18 152 53c31 23 58 48 76 73c39 52 77 121 98 180z" />
    <glyph glyph-name="uni01ED" unicode="&#x1ed;" 
d="M659.356 520h-311l20 54h311zM120.356 -177c31 85 112 139 177 176h29c-60 -41 -112 -85 -135 -149c-13 -36 -6 -61 24 -61c26 0 50 23 69 43l14 -14c-32 -39 -75 -81 -132 -81c-43 0 -63 38 -46 86zM555 234c-50 -138 -185 -244 -311 -244s-182 101 -133 236
c50 138 176 234 306 234c128 0 186 -95 138 -226zM452 199c50 137 26 233 -58 233c-71 0 -140 -62 -175 -157c-26 -71 -35 -141 -26 -193c6 -40 35 -64 74 -64c75 0 144 68 185 181z" />
    <glyph glyph-name="uni01F0" unicode="&#x1f0;" horiz-adv-x="278" 
d="M556 687l-185 -167h-62l-64 167h34l84 -103l159 103h34zM220 394c-10 0 -30 -1 -46 -4l6 16c66 18 108 31 175 54l4 -3l-166 -457c-52 -142 -138 -218 -249 -218c-54 0 -85 23 -73 55c8 22 32 39 55 39c16 0 26 -9 36 -32c9 -21 17 -28 32 -28c14 0 31 8 41 18
c18 20 30 45 58 121l138 379c16 43 12 60 -11 60z" />
    <glyph glyph-name="uni01F1" unicode="&#x1f1;" horiz-adv-x="1333" 
d="M1174 624c-128.358 0 -167.042 -44.1504 -216 -133h-26l82 171h526l-6 -15l-653 -609h257c57 0 106 14 139 39c28 22 46 43 83 99h23l-88 -176h-564l5 15l659 609h-221zM807 334c-35 -97 -106 -186 -192 -245c-82 -56 -199 -89 -315 -89h-284l7 19c78 5 95 18 121 90
l161 444c27 74 21 83 -55 90l7 19h270c137 0 233 -36 276 -105c35 -55 37 -133 4 -223zM695 327c39 108 29 194 -29 248c-36 34 -95 50 -181 50c-41 0 -55 -8 -66 -39l-185 -508c-12 -32 -3 -41 37 -41c87 0 149 12 211 41c98 47 170 131 213 249z" />
    <glyph glyph-name="uni01F2" unicode="&#x1f2;" horiz-adv-x="1166" 
d="M1189 135l-63 -135h-377l5 15l414 405h-138c-60 0 -80 -15 -116 -88h-18l46 118h347l-6 -15l-416 -405h138c51 0 88 9 108 26c19 17 32 33 60 83zM807 334c-35 -97 -106 -186 -192 -245c-82 -56 -199 -89 -315 -89h-284l7 19c78 5 95 18 121 90l161 444
c27 74 21 83 -55 90l7 19h270c137 0 233 -36 276 -105c35 -55 37 -133 4 -223zM695 327c39 108 29 194 -29 248c-36 34 -95 50 -181 50c-41 0 -55 -8 -66 -39l-185 -508c-12 -32 -3 -41 37 -41c87 0 149 12 211 41c98 47 170 131 213 249z" />
    <glyph glyph-name="uni01F3" unicode="&#x1f3;" horiz-adv-x="944" 
d="M967 135l-63 -135h-377l5 15l414 405h-138c-60 0 -80 -15 -116 -88h-18l46 118h347l-6 -15l-416 -405h138c51 0 88 9 108 26c19 17 32 33 60 83zM672 681l-206 -565c-7 -19 -18 -55 -21 -65c-1 -7 7 -15 15 -15c10 0 30 10 46 27l47 51l13 -11
c-67 -84 -108 -114 -157 -114c-40 0 -55 27 -48 68c-51 -47 -97 -67 -153 -67c-110 0 -153 87 -106 215c52 142 185 255 300 255c40 0 64 -11 90 -43l57 156c15 41 9 51 -28 51c-8 0 -14 0 -22 -1l6 16c70 17 109 27 163 44zM377 102l84 230c19 53 -13 100 -66 100
c-76 0 -152 -74 -193 -187c-45 -123 -19 -203 64 -203c29 0 58 10 83 30c14 11 25 23 28 30z" />
    <glyph glyph-name="Gacute" unicode="&#x1f4;" horiz-adv-x="722" 
d="M1477.28 637c-5 -13 -19 -24 -44 -33l-196 -80h-43l202 120c25 15 37 19 53 19c24 0 34 -10 28 -26zM831 336c-60 -5 -77 -18 -98 -77l-74 -203c-53 -35 -190 -70 -276 -70c-110 0 -192 38 -234 107c-35 59 -35 134 1 232c74 204 271 351 471 351c45 0 88 -8 128 -23
c15 -7 30 -10 40 -10c21 0 44 14 57 33h22l-69 -211h-23c-3 61 -9 88 -29 116c-26 36 -68 55 -124 55c-68 0 -139 -27 -201 -76s-123 -140 -157 -234c-68 -186 -10 -300 153 -300c72 0 143 27 155 59l59 162c16 43 18 66 6 75c-9 8 -20 11 -62 14l7 18h255z" />
    <glyph glyph-name="gacute" unicode="&#x1f5;" 
d="M769.596 659c-6 -16 -19 -29 -45 -42l-190 -97h-40l201 148c25 18 36 23 51 23c22 0 30 -12 23 -32zM611 388h-83c2 -32 0 -55 -11 -84c-18 -50 -46 -85 -89 -113c-41 -27 -87 -42 -124 -42c-6 0 -19 1 -37 3c-3 0 -9 1 -18 2c-30 -8 -76 -43 -83 -63
c-6 -16 16 -25 68 -27l127 -6c73 -3 105 -45 82 -107c-14 -38 -43 -70 -92 -101c-67 -42 -154 -68 -229 -68c-95 0 -157 44 -138 97c13 37 52 70 142 122c-34 20 -41 32 -33 53c7 20 27 40 71 69l57 40c-54 33 -67 71 -44 134c33 91 133 163 226 163c26 0 52 -5 75 -15
l19 -8c17 -7 31 -10 51 -10h77zM410 -64c13 36 -15 49 -106 49c-49 0 -128 6 -158 13c-60 -50 -72 -63 -80 -86c-16 -44 31 -73 119 -73c113 0 204 39 225 97zM425 265c14 39 19 85 14 120c-5 30 -25 47 -56 47c-46.7412 0 -88.9473 -36.8418 -109 -97
c-35 -96 -17 -161 43 -161c46 0 88 35 108 91z" />
    <glyph glyph-name="uni01F8" unicode="&#x1f8;" horiz-adv-x="722" 
d="M828 736h-43l-138 80c-19 9 -25 20 -20 33c6 16 24 26 48 26c16 0 24 -4 39 -19zM941 643c-39 -4 -55 -8 -73 -18c-24 -13 -47 -50 -69 -110l-191 -526h-17l-242 550l-142 -392c-37 -101 -29 -124 47 -128l-7 -19h-235l7 19c85 6 107 25 144 128l160 441
c-23 47 -34 55 -77 55l7 19h171l209 -484l122 337c23 62 27 98 12 112c-12 9 -24 13 -61 16l7 19h235z" />
    <glyph glyph-name="uni01F9" unicode="&#x1f9;" 
d="M525.5 520h-40l-118 97c-16 13 -21 26 -15 42c7 20 25 32 47 32c15 0 22 -5 33 -23zM537 310l-71 -194c-7 -19 -18 -55 -21 -65c-1 -7 7 -15 15 -15c10 0 30 10 46 27l47 51l13 -11c-67 -84 -108 -114 -157 -114c-59 0 -52 58 -24 134l67 185c24 66 11 97 -38 97
c-33 0 -59 -12 -123 -57c-38.6377 -105.696 -77.5947 -211.072 -116 -317l-95 -31l122 335c7 19 19 55 22 65c1 7 -8 15 -16 15c-9 0 -28 -9 -43 -25l-49 -53l-13 11c66 83 108 113 155 113c42 0 52 -32 41 -82c91 64 128 81 174 81c74 0 98 -56 64 -150z" />
    <glyph glyph-name="Aringacute" unicode="&#x1fa;" horiz-adv-x="722" 
d="M1341.5 857c-5 -13 -19 -24 -44 -33l-196 -80h-43l202 120c25 15 37 19 53 19c24 0 34 -10 28 -26zM458 19c76.543 0 93.4668 24.4658 88 101l-6 96h-262l-89 -117c-10 -13 -18 -27 -22 -39c-10 -28 5 -41 53 -41l-7 -19h-198l7 19c49 3 67 18 184 164l386 491h20
l43 -568c8 -74 14 -84 58 -87l-7 -19h-255zM541 257l-16 275l-215 -275h231zM747 796c-20 -55 -81 -99 -136 -99c-56 0 -83 44 -63 100c20 54 81 99 135 99c55 0 84 -45 64 -100zM713 796c13 36 -6 66 -41 66c-36 0 -77 -29 -90 -65s5 -66 40 -66c37 0 78 29 91 65z" />
    <glyph glyph-name="aringacute" unicode="&#x1fb;" 
d="M865.185 1005c-6 -16 -19 -29 -45 -42l-190 -97h-40l201 148c25 18 36 23 51 23c22 0 30 -12 23 -32zM679.185 662c-29 -80 -116 -142 -197 -142c-78 0 -118 64 -89 143c29 80 115 143 195 143s120 -63 91 -144zM640.185 663c21 59 -8 109 -64 109
c-57 0 -123 -50 -144 -109s7 -109 63 -109c58 0 123 49 145 109zM466 116c-7 -19 -18 -55 -21 -65c-1 -7 7 -15 15 -15c10 0 30 10 46 27l47 51l13 -11c-67 -84 -108 -114 -157 -114c-40 0 -55 27 -48 68c-51 -47 -97 -67 -153 -67c-110 0 -153 87 -106 215
c52 142 185 255 300 255c40 0 64 -11 90 -43l1 2l95 31zM377 102l84 230c19 53 -13 100 -66 100c-76 0 -152 -74 -193 -187c-45 -123 -19 -203 64 -203c29 0 58 10 83 30c14 11 25 23 28 30z" />
    <glyph glyph-name="AEacute" unicode="&#x1fc;" horiz-adv-x="889" 
d="M1566.5 637c-5 -13 -19 -24 -44 -33l-196 -80h-43l202 120c25 15 37 19 53 19c24 0 34 -10 28 -26zM741 366c111.099 0 133.625 22.1846 168 97.001h21l-86 -234h-21c10 41 12 56 7 72c-6 18 -30 28 -68 28h-145l-87 -238c-18 -50 -15 -53 50 -53h76
c108 0 146 20 244 130h24l-105 -168h-510l7 19l18 2c63 7 79 21 103 87l56 152h-176l-48 -53c-68 -78 -113 -136 -121 -158c-5 -15 15 -26 57 -30h1l-7 -19h-199l7 19c45 6 61 17 116 78l421 484c35.8037 39.3838 33.1406 58.1514 -58 60.999l7 20h564l-51 -141h-23
c20 91 2 105 -144 105h-87c-19 0 -30 -8 -38 -30l-84 -230h111zM507 299.001l116 319l-275 -319h159z" />
    <glyph glyph-name="aeacute" unicode="&#x1fd;" horiz-adv-x="667" 
d="M910.183 659c-6 -16 -19 -29 -45 -42l-190 -97h-40l201 148c25 18 36 23 51 23c22 0 30 -12 23 -32zM686 149c-48 -59 -77 -87 -113 -111c-48 -32 -95 -48 -142 -48c-57 0 -87 21 -102 73c-88 -56 -129 -73 -179 -73c-68 0 -100 45 -76 110c22 60 79 101 202 145l99 36
l25 63c9 23 16 54 13 69c-2 14 -17 23 -41 23c-42 0 -82 -23 -87 -50c0 -3 -1 -6 -1 -6l-4 -11l-5 -17c-10 -29 -32 -48 -60 -48c-27 0 -38 19 -27 48c23 62 108 108 199 108c49 0 75 -12 101 -45c57 34 89 45 135 45c101 0 130 -54 94 -183h-262c-35 -99 -42 -131 -35 -170
c6 -30 36 -50 77 -50c57 0 106 27 179 97zM326 88c1 38 8 76 21 113l19 52c-137 -44 -174 -68 -196 -128c-17 -48 -1 -87 36 -87s113 32 120 50zM633 307c30 87 20 124 -34 124c-57 0 -95 -36 -132 -124h166z" />
    <glyph glyph-name="Oslashacute" unicode="&#x1fe;" horiz-adv-x="722" 
d="M1391.5 695c-5 -13 -19 -24 -44 -33l-196 -80h-43l202 120c25 15 37 19 53 19c24 0 34 -10 28 -26zM808 331c-74 -203 -260 -345 -454 -345c-67 0 -108 13 -157 50l-121 -116h-49l145 139c-28 38 -37 58 -42 93c-8 50 1 115 24 178c74 203 262 346 454 346
c66 0 106 -13 157 -49l111 107h49l-135 -130c27 -38 37 -58 42 -93c9 -50 0 -115 -24 -180zM694 330c32 89 40 145 30 210l-473 -452c26 -47 60 -66 118 -66c132 0 255 117 325 308zM711 575c-27 46 -62 65 -117 65c-131 0 -256 -119 -326 -310c-32 -88 -40 -143 -29 -207z
" />
    <glyph glyph-name="oslashacute" unicode="&#x1ff;" 
d="M827.75 750c-6 -16 -19 -29 -45 -42l-190 -97h-40l201 148c25 18 36 23 51 23c22 0 30 -12 23 -32zM555 234c-51 -139 -185 -244 -312 -244c-35 0 -56 5 -85 21l-110 -123h-37l124 140c-24 27 -32 42 -38 69c-7 38 -2 84 15 130c50 136 175 233 304 233
c33 0 56 -5 86 -18l97 109h39l-111 -125c23 -22 32 -34 39 -58c10 -38 6 -86 -11 -134zM454 203c23 64 28 108 19 163l-272 -306c14 -30 33 -42 67 -42c75 0 144 69 186 185zM461 396c-18 26 -36 36 -67 36c-71 0 -141 -62 -175 -156c-25 -69 -34 -127 -28 -184z" />
    <glyph glyph-name="Adblgrave" unicode="&#x200;" horiz-adv-x="722" 
d="M630.5 736h-43l-138 80c-19 9 -25 20 -20 33c6 16 24 26 48 26c16 0 24 -4 39 -19zM790.5 736h-43l-138 80c-19 9 -25 20 -20 33c6 16 24 26 48 26c16 0 24 -4 39 -19zM458 19c76.543 0 93.4668 24.4658 88 101l-6 96h-262l-89 -117c-10 -13 -18 -27 -22 -39
c-10 -28 5 -41 53 -41l-7 -19h-198l7 19c49 3 67 18 184 164l386 491h20l43 -568c8 -74 14 -84 58 -87l-7 -19h-255zM541 257l-16 275l-215 -275h231z" />
    <glyph glyph-name="adblgrave" unicode="&#x201;" 
d="M421.185 520h-40l-119 97c-16 13 -21 26 -15 42c7 20 25 32 47 32c15 0 23 -5 34 -23zM587.185 520h-40l-119 97c-16 13 -21 26 -15 42c7 20 25 32 47 32c15 0 23 -5 34 -23zM466 116c-7 -19 -18 -55 -21 -65c-1 -7 7 -15 15 -15c10 0 30 10 46 27l47 51l13 -11
c-67 -84 -108 -114 -157 -114c-40 0 -55 27 -48 68c-51 -47 -97 -67 -153 -67c-110 0 -153 87 -106 215c52 142 185 255 300 255c40 0 64 -11 90 -43l1 2l95 31zM377 102l84 230c19 53 -13 100 -66 100c-76 0 -152 -74 -193 -187c-45 -123 -19 -203 64 -203
c29 0 58 10 83 30c14 11 25 23 28 30z" />
    <glyph glyph-name="uni0202" unicode="&#x202;" horiz-adv-x="722" 
d="M845.5 736h-26c5 58 -39 82 -101 82s-122 -24 -159 -82h-26c25 70 112 138 206 138s131 -68 106 -138zM458 19c76.543 0 93.4668 24.4658 88 101l-6 96h-262l-89 -117c-10 -13 -18 -27 -22 -39c-10 -28 5 -41 53 -41l-7 -19h-198l7 19c49 3 67 18 184 164l386 491h20
l43 -568c8 -74 14 -84 58 -87l-7 -19h-255zM541 257l-16 275l-215 -275h231z" />
    <glyph glyph-name="uni0203" unicode="&#x203;" 
d="M624.185 520h-29c10 67 -12 97 -76 97c-58 0 -91 -21 -147 -97h-29c51 106 115 157 199 157c47 0 81 -19 93 -54c9 -28 7 -52 -11 -103zM466 116c-7 -19 -18 -55 -21 -65c-1 -7 7 -15 15 -15c10 0 30 10 46 27l47 51l13 -11c-67 -84 -108 -114 -157 -114
c-40 0 -55 27 -48 68c-51 -47 -97 -67 -153 -67c-110 0 -153 87 -106 215c52 142 185 255 300 255c40 0 64 -11 90 -43l1 2l95 31zM377 102l84 230c19 53 -13 100 -66 100c-76 0 -152 -74 -193 -187c-45 -123 -19 -203 64 -203c29 0 58 10 83 30c14 11 25 23 28 30z" />
    <glyph glyph-name="Edblgrave" unicode="&#x204;" horiz-adv-x="611" 
d="M625 736h-43l-138 80c-19 9 -25 20 -20 33c6 16 24 26 48 26c16 0 24 -4 39 -19zM785 736h-43l-138 80c-19 9 -25 20 -20 33c6 16 24 26 48 26c16 0 24 -4 39 -19zM659 169l-107 -169h-540l7 19c75 5 94 19 120 90l161 444c26 71 18 84 -54 90l7 19h531l-49 -143h-25
c16 90 -1 105 -114 105h-135c-27 0 -35 -6 -45 -34l-81 -222h154c81 0 102 13 145 95h23l-85 -232h-23c17 83 7 96 -75 96h-154l-90 -247c-7 -19 -9 -28 -4 -32c6 -7 45 -11 93 -11h27c143 0 196 24 285 132h28z" />
    <glyph glyph-name="edblgrave" unicode="&#x205;" horiz-adv-x="444" 
d="M414.104 520h-40l-119 97c-16 13 -21 26 -15 42c7 20 25 32 47 32c15 0 23 -5 34 -23zM580.104 520h-40l-119 97c-16 13 -21 26 -15 42c7 20 25 32 47 32c15 0 23 -5 34 -23zM481 157c-81 -108 -177 -167 -273 -167c-115 0 -155 86 -105 224c53 146 174 246 298 246
c52 0 91 -21 108 -57c13 -32 13 -61 -3 -126h-308c-21 -64 -26 -99 -20 -138c9 -54 41 -80 96 -80c64 0 118 29 194 105zM415 309c19 87 5 115 -56 115s-108 -36 -148 -115h204z" />
    <glyph glyph-name="uni0206" unicode="&#x206;" horiz-adv-x="611" 
d="M840 736h-26c5 58 -39 82 -101 82s-122 -24 -159 -82h-26c25 70 112 138 206 138s131 -68 106 -138zM659 169l-107 -169h-540l7 19c75 5 94 19 120 90l161 444c26 71 18 84 -54 90l7 19h531l-49 -143h-25c16 90 -1 105 -114 105h-135c-27 0 -35 -6 -45 -34l-81 -222h154
c81 0 102 13 145 95h23l-85 -232h-23c17 83 7 96 -75 96h-154l-90 -247c-7 -19 -9 -28 -4 -32c6 -7 45 -11 93 -11h27c143 0 196 24 285 132h28z" />
    <glyph glyph-name="uni0207" unicode="&#x207;" horiz-adv-x="444" 
d="M617.104 520h-29c10 67 -12 97 -76 97c-58 0 -91 -21 -147 -97h-29c51 106 115 157 199 157c47 0 81 -19 93 -54c9 -28 7 -52 -11 -103zM481 157c-81 -108 -177 -167 -273 -167c-115 0 -155 86 -105 224c53 146 174 246 298 246c52 0 91 -21 108 -57
c13 -32 13 -61 -3 -126h-308c-21 -64 -26 -99 -20 -138c9 -54 41 -80 96 -80c64 0 118 29 194 105zM415 309c19 87 5 115 -56 115s-108 -36 -148 -115h204z" />
    <glyph glyph-name="Idblgrave" unicode="&#x208;" horiz-adv-x="333" 
d="M455.5 736h-43l-138 80c-19 9 -25 20 -20 33c6 16 24 26 48 26c16 0 24 -4 39 -19zM615.5 736h-43l-138 80c-19 9 -25 20 -20 33c6 16 24 26 48 26c16 0 24 -4 39 -19zM315 0h-297l7 19c85 3 103 15 130 90l161 444c27 74 19 85 -64 90l7 19h297l-7 -19
c-85 -4 -104 -17 -131 -90l-161 -444c-27 -73 -16 -87 65 -90z" />
    <glyph glyph-name="idblgrave" unicode="&#x209;" horiz-adv-x="278" 
d="M263 520h-40l-119 97c-16 13 -21 26 -15 42c7 20 25 32 47 32c15 0 23 -5 34 -23zM429 520h-40l-119 97c-16 13 -21 26 -15 42c7 20 25 32 47 32c15 0 23 -5 34 -23zM217 334c7 19 18 55 21 65c1 7 -8 15 -16 15c-10 0 -29 -10 -45 -27l-47 -51l-13 11
c67 84 108 114 157 114c59 0 52 -58 24 -134l-77 -211c-7 -19 -18 -55 -21 -65c-1 -7 7 -15 15 -15c10 0 30 10 46 27l47 51l13 -11c-67 -84 -108 -114 -157 -114c-59 0 -52 58 -24 134z" />
    <glyph glyph-name="uni020A" unicode="&#x20a;" horiz-adv-x="333" 
d="M670.5 736h-26c5 58 -39 82 -101 82s-122 -24 -159 -82h-26c25 70 112 138 206 138s131 -68 106 -138zM315 0h-297l7 19c85 3 103 15 130 90l161 444c27 74 19 85 -64 90l7 19h297l-7 -19c-85 -4 -104 -17 -131 -90l-161 -444c-27 -73 -16 -87 65 -90z" />
    <glyph glyph-name="uni020B" unicode="&#x20b;" horiz-adv-x="278" 
d="M466 520h-29c10 67 -12 97 -76 97c-58 0 -91 -21 -147 -97h-29c51 106 115 157 199 157c47 0 81 -19 93 -54c9 -28 7 -52 -11 -103zM217 334c7 19 18 55 21 65c1 7 -8 15 -16 15c-10 0 -29 -10 -45 -27l-47 -51l-13 11c67 84 108 114 157 114c59 0 52 -58 24 -134
l-77 -211c-7 -19 -18 -55 -21 -65c-1 -7 7 -15 15 -15c10 0 30 10 46 27l47 51l13 -11c-67 -84 -108 -114 -157 -114c-59 0 -52 58 -24 134z" />
    <glyph glyph-name="Odblgrave" unicode="&#x20c;" horiz-adv-x="722" 
d="M691.895 736h-43l-138 80c-19 9 -25 20 -20 33c6 16 24 26 48 26c16 0 24 -4 39 -19zM851.895 736h-43l-138 80c-19 9 -25 20 -20 33c6 16 24 26 48 26c16 0 24 -4 39 -19zM807 327c-73 -201 -260 -341 -457 -341c-88 0 -163 39 -198 102c-33 58 -32 149 2 243
c73 201 262 345 453 345c96 0 167 -36 205 -105c33 -60 31 -145 -5 -244zM693 328c43 119 47 213 11 262c-24 32 -64 50 -110 50c-55 0 -112 -22 -167 -65c-59 -47 -122 -144 -159 -246c-40 -111 -44 -212 -9 -258c24 -31 62 -49 108 -49c53 0 104 18 152 53
c31 23 58 48 76 73c39 52 77 121 98 180z" />
    <glyph glyph-name="odblgrave" unicode="&#x20d;" 
d="M440.356 520h-40l-119 97c-16 13 -21 26 -15 42c7 20 25 32 47 32c15 0 23 -5 34 -23zM606.356 520h-40l-119 97c-16 13 -21 26 -15 42c7 20 25 32 47 32c15 0 23 -5 34 -23zM555 234c-50 -138 -185 -244 -311 -244s-182 101 -133 236c50 138 176 234 306 234
c128 0 186 -95 138 -226zM452 199c50 137 26 233 -58 233c-71 0 -140 -62 -175 -157c-26 -71 -35 -141 -26 -193c6 -40 35 -64 74 -64c75 0 144 68 185 181z" />
    <glyph glyph-name="uni020E" unicode="&#x20e;" horiz-adv-x="722" 
d="M906.895 736h-26c5 58 -39 82 -101 82s-122 -24 -159 -82h-26c25 70 112 138 206 138s131 -68 106 -138zM807 327c-73 -201 -260 -341 -457 -341c-88 0 -163 39 -198 102c-33 58 -32 149 2 243c73 201 262 345 453 345c96 0 167 -36 205 -105c33 -60 31 -145 -5 -244z
M693 328c43 119 47 213 11 262c-24 32 -64 50 -110 50c-55 0 -112 -22 -167 -65c-59 -47 -122 -144 -159 -246c-40 -111 -44 -212 -9 -258c24 -31 62 -49 108 -49c53 0 104 18 152 53c31 23 58 48 76 73c39 52 77 121 98 180z" />
    <glyph glyph-name="uni020F" unicode="&#x20f;" 
d="M643.356 520h-29c10 67 -12 97 -76 97c-58 0 -91 -21 -147 -97h-29c51 106 115 157 199 157c47 0 81 -19 93 -54c9 -28 7 -52 -11 -103zM555 234c-50 -138 -185 -244 -311 -244s-182 101 -133 236c50 138 176 234 306 234c128 0 186 -95 138 -226zM452 199
c50 137 26 233 -58 233c-71 0 -140 -62 -175 -157c-26 -71 -35 -141 -26 -193c6 -40 35 -64 74 -64c75 0 144 68 185 181z" />
    <glyph glyph-name="Rdblgrave" unicode="&#x210;" horiz-adv-x="667" 
d="M420 736h-43l-138 80c-19 9 -25 20 -20 33c6 16 24 26 48 26c16 0 24 -4 39 -19zM580 736h-43l-138 80c-19 9 -25 20 -20 33c6 16 24 26 48 26c16 0 24 -4 39 -19zM659 0h-161l-126 308l-57 -2l-71 -197c-26 -72 -18 -85 57 -90l-7 -19h-277l7 19c77 6 92 18 122 101
l157 433c26 71 20 82 -52 90l7 19h276c94 0 168 -26 191 -67c15 -29 15 -66 -1 -109c-17 -47 -52 -89 -93 -115c-43 -27 -77 -39 -149 -52l114 -253c17 -34 33 -44 70 -47zM616 488c34 94 -9 137 -134 137c-40 0 -54 -8 -64 -36l-89 -246c97 2 134 8 189 34
c43 19 80 61 98 111z" />
    <glyph glyph-name="rdblgrave" unicode="&#x211;" horiz-adv-x="333" 
d="M343.808 520h-40l-119 97c-16 13 -21 26 -15 42c7 20 25 32 47 32c15 0 23 -5 34 -23zM509.808 520h-40l-119 97c-16 13 -21 26 -15 42c7 20 25 32 47 32c15 0 23 -5 34 -23zM483 407c-10 -28 -30.998 -45 -54.998 -45c-13 0 -22 6 -33 20c-7 10 -15 15 -21 15
c-27 0 -87 -50 -99 -82c-34.6826 -94.6514 -68.7568 -189.911 -104.001 -284.001l-95 -31c41.1104 110.89 81.3496 222.65 121.999 334.001c7 19 18 55 21 65c1 7 -8 15 -16 15c-10 0 -29 -10 -45 -27l-47 -51l-13 11c67 84 108 114 157 114c48 0 53 -39 38 -95
c75 71 112 94 154 94c34 0 48 -20 36 -53z" />
    <glyph glyph-name="uni0212" unicode="&#x212;" horiz-adv-x="667" 
d="M635 736h-26c5 58 -39 82 -101 82s-122 -24 -159 -82h-26c25 70 112 138 206 138s131 -68 106 -138zM659 0h-161l-126 308l-57 -2l-71 -197c-26 -72 -18 -85 57 -90l-7 -19h-277l7 19c77 6 92 18 122 101l157 433c26 71 20 82 -52 90l7 19h276c94 0 168 -26 191 -67
c15 -29 15 -66 -1 -109c-17 -47 -52 -89 -93 -115c-43 -27 -77 -39 -149 -52l114 -253c17 -34 33 -44 70 -47zM616 488c34 94 -9 137 -134 137c-40 0 -54 -8 -64 -36l-89 -246c97 2 134 8 189 34c43 19 80 61 98 111z" />
    <glyph glyph-name="uni0213" unicode="&#x213;" horiz-adv-x="333" 
d="M546.808 520h-29c10 67 -12 97 -76 97c-58 0 -91 -21 -147 -97h-29c51 106 115 157 199 157c47 0 81 -19 93 -54c9 -28 7 -52 -11 -103zM483 407c-10 -28 -30.998 -45 -54.998 -45c-13 0 -22 6 -33 20c-7 10 -15 15 -21 15c-27 0 -87 -50 -99 -82
c-34.6826 -94.6514 -68.7568 -189.911 -104.001 -284.001l-95 -31c41.1104 110.89 81.3496 222.65 121.999 334.001c7 19 18 55 21 65c1 7 -8 15 -16 15c-10 0 -29 -10 -45 -27l-47 -51l-13 11c67 84 108 114 157 114c48 0 53 -39 38 -95c75 71 112 94 154 94
c34 0 48 -20 36 -53z" />
    <glyph glyph-name="Udblgrave" unicode="&#x214;" horiz-adv-x="722" 
d="M708.677 736h-43l-138 80c-19 9 -25 20 -20 33c6 16 24 26 48 26c16 0 24 -4 39 -19zM868.677 736h-43l-138 80c-19 9 -25 20 -20 33c6 16 24 26 48 26c16 0 24 -4 39 -19zM939 643c-86 -10 -103.999 -26 -140.999 -128l-95 -261c-28 -77 -54 -123 -93 -165
c-64 -68 -151 -103 -260 -103c-170 0 -221 82 -158 255l113 312c27 73 20 84 -57 90l7 19h283l-7 -19c-83 -7 -98 -18 -124 -90l-116 -320c-43.2549 -118.479 -39.6709 -203 97.999 -203c75 0 151 31 195 79c27 30 47 68 72 136l98 270c36 100 29 122 -47 128l7 19h232z" />
    <glyph glyph-name="udblgrave" unicode="&#x215;" 
d="M406 520h-40l-119 97c-16 13 -21 26 -15 42c7 20 25 32 47 32c15 0 23 -5 34 -23zM572 520h-40l-119 97c-16 13 -21 26 -15 42c7 20 25 32 47 32c15 0 23 -5 34 -23zM492 36c-56 -14 -96 -25 -153 -45l-4 2l31 83l-59 -43c-37 -27 -82 -43 -119 -43
c-73 0 -102 51 -73 130l78 214c7 19 18 55 21 65c1 7 -8 15 -16 15c-10 0 -29 -10 -45 -27l-47 -51l-13 11c67 84 108 114 157 114c59 0 52 -58 24 -134l-74 -203c-15 -42 4 -76 43 -76c31 0 67 12 104 36c15 9 25 24 35 51l115 315h84l-125 -343c-17 -46 -10 -57 36 -57h5z
" />
    <glyph glyph-name="uni0216" unicode="&#x216;" horiz-adv-x="722" 
d="M923.677 736h-26c5 58 -39 82 -101 82s-122 -24 -159 -82h-26c25 70 112 138 206 138s131 -68 106 -138zM939 643c-86 -10 -103.999 -26 -140.999 -128l-95 -261c-28 -77 -54 -123 -93 -165c-64 -68 -151 -103 -260 -103c-170 0 -221 82 -158 255l113 312
c27 73 20 84 -57 90l7 19h283l-7 -19c-83 -7 -98 -18 -124 -90l-116 -320c-43.2549 -118.479 -39.6709 -203 97.999 -203c75 0 151 31 195 79c27 30 47 68 72 136l98 270c36 100 29 122 -47 128l7 19h232z" />
    <glyph glyph-name="uni0217" unicode="&#x217;" 
d="M609 520h-29c10 67 -12 97 -76 97c-58 0 -91 -21 -147 -97h-29c51 106 115 157 199 157c47 0 81 -19 93 -54c9 -28 7 -52 -11 -103zM492 36c-56 -14 -96 -25 -153 -45l-4 2l31 83l-59 -43c-37 -27 -82 -43 -119 -43c-73 0 -102 51 -73 130l78 214c7 19 18 55 21 65
c1 7 -8 15 -16 15c-10 0 -29 -10 -45 -27l-47 -51l-13 11c67 84 108 114 157 114c59 0 52 -58 24 -134l-74 -203c-15 -42 4 -76 43 -76c31 0 67 12 104 36c15 9 25 24 35 51l115 315h84l-125 -343c-17 -46 -10 -57 36 -57h5z" />
    <glyph glyph-name="uni0218" unicode="&#x218;" horiz-adv-x="556" 
d="M349.5 -178c-4 0 -21 -4 -28 -4c-36 0 -53 19 -41 51c12 34 45 57 80 57c45 0 66 -39 48 -89c-22 -60 -89 -121 -168 -154l-2 19c67 37 108 74 120 106c3 8 -1 14 -9 14zM552 168c-37 -103 -154 -182 -270 -182c-40 0 -77 8 -110 23c-16 7 -32 11 -43 11
c-15 0 -32 -14 -40 -33h-22l47 212h23c6 -122 48 -177 138 -177c73 0 140 46 164 112c9 25 11 45 7 59c-11 38 -48 78 -106 117c-91 59 -115 115 -86 194c20 55 55 98 106 130c41 26 89 42 128 42c35 0 68 -8 100 -22c15 -8 30 -12 40 -12c17 0 32 12 44 34h21l-55 -213h-25
c5 59 0 85 -19 117c-22 36 -57 55 -102 55c-62 0 -117 -37 -137 -92s6 -99 90 -156c106 -72 137 -136 107 -219z" />
    <glyph glyph-name="uni0219" unicode="&#x219;" horiz-adv-x="389" 
d="M212 -174c-4 0 -21 -4 -28 -4c-36 0 -53 19 -41 51c12 34 45 57 80 57c45 0 66 -39 48 -89c-22 -60 -89 -121 -168 -154l-2 19c67 37 108 74 120 106c3 8 -1 14 -9 14zM444 440c3 0 10 3 20 10h11l-46 -136h-15c10 90 -8 123 -65 123c-46 0 -87 -27 -102 -68
c-10 -27 -3 -52 19 -68l84 -64c48 -36 59 -69 41 -119c-25 -70 -111 -128 -187 -128c-21 0 -44 4 -70 10c-22 6 -32 8 -43 8c-12 0 -16 -2 -27 -12h-13l56 156h16c-14 -102 7 -140 76 -140c51 0 94 28 110 72c11 31 3 55 -25 75l-46 33c-67 49 -85 88 -65 144
c27 73 101 123 183 123c24 0 46 -4 64 -12c9 -5 18 -7 24 -7z" />
    <glyph glyph-name="uni021A" unicode="&#x21a;" horiz-adv-x="611" 
d="M374 -164c-4 0 -21 -4 -28 -4c-36 0 -53 19 -41 51c12 34 45 57 80 57c45 0 66 -39 48 -89c-22 -60 -89 -121 -168 -154l-2 19c67 37 108 74 120 106c3 8 -1 14 -9 14zM772 492h-24c17 110 2 128 -112 128h-54l-186 -511c-27 -73 -18 -86 63 -90l-7 -19h-292l7 19
c85 5 100 16 131 101l182 500h-54c-112 0 -142 -18 -206 -128h-24l68 170h564z" />
    <glyph glyph-name="uni021B" unicode="&#x21b;" horiz-adv-x="278" 
d="M136.515 -174c-4 0 -21 -4 -28 -4c-36 0 -53 19 -41 51c12 34 45 57 80 57c45 0 66 -39 48 -89c-22 -60 -89 -121 -168 -154l-2 19c67 37 108 74 120 106c3 8 -1 14 -9 14zM303 66c-52 -52 -99 -75.999 -149 -75.999c-58 0 -72 43 -41 127l109 301h-53
c-8.83887 8.83887 10.6768 19.8379 23 25.999c31 15 79 52 136 107c10 9 20 18 30 28c5 0 6 -3 2 -13l-42 -116h101l-12 -32h-101l-104 -286c-23 -64 -18 -90 19 -90c22 0 42 9 73 35z" />
    <glyph glyph-name="uni021E" unicode="&#x21e;" horiz-adv-x="722" 
d="M884.75 865l-181 -129h-77l-88 129h48l96 -79l154 79h48zM702 0h-278l7 19c80 5 94 17 125 101l71 195h-303l-75 -206c-26 -71 -18 -84 55 -90l-7 -19h-278l7 19c80 5 94 17 125 101l157 433c26 72 19 83 -55 90l7 19h278l-7 -19c-80 -7 -95 -18 -121 -90l-70 -194h303
l70 194c26 72 19 83 -55 90l7 19h278l-7 -19c-80 -7 -95 -18 -121 -90l-161 -444c-26 -71 -18 -84 55 -90z" />
    <glyph glyph-name="uni021F" unicode="&#x21f;" 
d="M803 910l-185 -167h-62l-64 167h34l84 -103l159 103h34zM537 301l-68.001 -184.999c-7 -19 -18 -55 -21 -65c-1 -7 7 -15 15 -15c10 0 30 10 46 27l47 51l13 -11c-67 -84 -108 -114 -157 -114c-59 0 -52 58 -24 134l64 177c25 70 14 106 -36 106c-39 0 -75 -17 -134 -63
c-38 -104 -75.916 -208.084 -113.999 -312.001l-95 -31c69.3564 191.31 139.356 381.977 209 573c16 43 10 51 -33 51c-5 0 -8 0 -12 -1l6 16l29 8c62 16 91 24 129 36l3 -3l-110 -304c68 60 118 84 177 84c81 0 104 -54 66 -159z" />
    <glyph glyph-name="uni0226" unicode="&#x226;" horiz-adv-x="722" 
d="M758.5 787c-11 -29 -40 -51 -69 -51c-28 0 -44 22 -33 51c10 28 42 51 70 51c29 0 42 -23 32 -51zM458 19c76.543 0 93.4668 24.4658 88 101l-6 96h-262l-89 -117c-10 -13 -18 -27 -22 -39c-10 -28 5 -41 53 -41l-7 -19h-198l7 19c49 3 67 18 184 164l386 491h20l43 -568
c8 -74 14 -84 58 -87l-7 -19h-255zM541 257l-16 275l-215 -275h231z" />
    <glyph glyph-name="uni0227" unicode="&#x227;" 
d="M554.185 571c-11 -29 -41 -51 -70 -51c-28 0 -43 22 -32 51c10 28 41 51 69 51c29 0 43 -23 33 -51zM466 116c-7 -19 -18 -55 -21 -65c-1 -7 7 -15 15 -15c10 0 30 10 46 27l47 51l13 -11c-67 -84 -108 -114 -157 -114c-40 0 -55 27 -48 68c-51 -47 -97 -67 -153 -67
c-110 0 -153 87 -106 215c52 142 185 255 300 255c40 0 64 -11 90 -43l1 2l95 31zM377 102l84 230c19 53 -13 100 -66 100c-76 0 -152 -74 -193 -187c-45 -123 -19 -203 64 -203c29 0 58 10 83 30c14 11 25 23 28 30z" />
    <glyph glyph-name="uni0228" unicode="&#x228;" horiz-adv-x="611" 
d="M477 -129c-19 -52 -78 -84 -155 -84c-32 0 -53 4 -78 16l25 31c25 -9 39 -12 60 -12c34 0 61 17 71 44c9 26 -1 36 -39 36c-11 0 -21 -1 -30 -4l-5 5l79 104h35l-51 -70c11 2 17 3 27 3c54 0 77 -26 61 -69zM659 169l-107 -169h-540l7 19c75 5 94 19 120 90l161 444
c26 71 18 84 -54 90l7 19h531l-49 -143h-25c16 90 -1 105 -114 105h-135c-27 0 -35 -6 -45 -34l-81 -222h154c81 0 102 13 145 95h23l-85 -232h-23c17 83 7 96 -75 96h-154l-90 -247c-7 -19 -9 -28 -4 -32c6 -7 45 -11 93 -11h27c143 0 196 24 285 132h28z" />
    <glyph glyph-name="uni0229" unicode="&#x229;" horiz-adv-x="444" 
d="M320.104 -139c-19 -52 -78 -84 -155 -84c-32 0 -53 4 -78 16l25 31c25 -9 39 -12 60 -12c34 0 61 17 71 44c9 26 -1 36 -39 36c-11 0 -21 -1 -30 -4l-5 5l79 104h35l-51 -70c11 2 17 3 27 3c54 0 77 -26 61 -69zM481 157c-81 -108 -177 -167 -273 -167
c-115 0 -155 86 -105 224c53 146 174 246 298 246c52 0 91 -21 108 -57c13 -32 13 -61 -3 -126h-308c-21 -64 -26 -99 -20 -138c9 -54 41 -80 96 -80c64 0 118 29 194 105zM415 309c19 87 5 115 -56 115s-108 -36 -148 -115h204z" />
    <glyph glyph-name="uni022A" unicode="&#x22a;" horiz-adv-x="722" 
d="M962.895 895h-311l19 54h311zM717.895 785c-10 -27 -40 -49 -68 -49c-27 0 -40 22 -30 50c9 26 41 49 66 49c28 0 42 -23 32 -50zM916.895 785c-10 -27 -40 -49 -68 -49c-27 0 -40 22 -30 50c9 26 41 49 66 49c28 0 42 -23 32 -50zM807 327c-73 -201 -260 -341 -457 -341
c-88 0 -163 39 -198 102c-33 58 -32 149 2 243c73 201 262 345 453 345c96 0 167 -36 205 -105c33 -60 31 -145 -5 -244zM693 328c43 119 47 213 11 262c-24 32 -64 50 -110 50c-55 0 -112 -22 -167 -65c-59 -47 -122 -144 -159 -246c-40 -111 -44 -212 -9 -258
c24 -31 62 -49 108 -49c53 0 104 18 152 53c31 23 58 48 76 73c39 52 77 121 98 180z" />
    <glyph glyph-name="uni022B" unicode="&#x22b;" 
d="M715.356 679h-311l20 54h311zM471.356 569c-10 -27 -41 -49 -69 -49c-27 0 -40 22 -30 50c9 26 41 49 66 49c28 0 43 -23 33 -50zM670.356 569c-10 -27 -41 -49 -69 -49c-27 0 -40 22 -30 50c9 26 41 49 66 49c28 0 43 -23 33 -50zM555 234c-50 -138 -185 -244 -311 -244
s-182 101 -133 236c50 138 176 234 306 234c128 0 186 -95 138 -226zM452 199c50 137 26 233 -58 233c-71 0 -140 -62 -175 -157c-26 -71 -35 -141 -26 -193c6 -40 35 -64 74 -64c75 0 144 68 185 181z" />
    <glyph glyph-name="uni022C" unicode="&#x22c;" horiz-adv-x="722" 
d="M1117.89 902h-311l19 54h311zM954.895 842c-49 -76 -89 -106 -144 -106c-25 0 -38 4 -72 24l-19 11c-12 7 -25 11 -37 11c-23 0 -46 -15 -68 -46h-29c39 65 88 101 138 101c22 0 44 -6 63 -18l20 -12c16 -9 33 -15 48 -15c23 0 40 12 71 50h29zM807 327
c-73 -201 -260 -341 -457 -341c-88 0 -163 39 -198 102c-33 58 -32 149 2 243c73 201 262 345 453 345c96 0 167 -36 205 -105c33 -60 31 -145 -5 -244zM693 328c43 119 47 213 11 262c-24 32 -64 50 -110 50c-55 0 -112 -22 -167 -65c-59 -47 -122 -144 -159 -246
c-40 -111 -44 -212 -9 -258c24 -31 62 -49 108 -49c53 0 104 18 152 53c31 23 58 48 76 73c39 52 77 121 98 180z" />
    <glyph glyph-name="uni022D" unicode="&#x22d;" 
d="M870.356 686h-311l20 54h311zM1130.36 254c-69 -64 -108 -85 -154 -85c-45 0 -61 7 -133 54c-14 9 -33 14 -54 14c-31 0 -52 -12 -92 -51l-42 32c69 64 107 85 153 85c45 0 61 -7 133 -54c14 -9 33 -14 54 -14c31 0 52 12 92 51zM555 234c-50 -138 -185 -244 -311 -244
s-182 101 -133 236c50 138 176 234 306 234c128 0 186 -95 138 -226zM452 199c50 137 26 233 -58 233c-71 0 -140 -62 -175 -157c-26 -71 -35 -141 -26 -193c6 -40 35 -64 74 -64c75 0 144 68 185 181z" />
    <glyph glyph-name="uni022E" unicode="&#x22e;" horiz-adv-x="722" 
d="M819.895 787c-11 -29 -40 -51 -69 -51c-28 0 -44 22 -33 51c10 28 42 51 70 51c29 0 42 -23 32 -51zM807 327c-73 -201 -260 -341 -457 -341c-88 0 -163 39 -198 102c-33 58 -32 149 2 243c73 201 262 345 453 345c96 0 167 -36 205 -105c33 -60 31 -145 -5 -244z
M693 328c43 119 47 213 11 262c-24 32 -64 50 -110 50c-55 0 -112 -22 -167 -65c-59 -47 -122 -144 -159 -246c-40 -111 -44 -212 -9 -258c24 -31 62 -49 108 -49c53 0 104 18 152 53c31 23 58 48 76 73c39 52 77 121 98 180z" />
    <glyph glyph-name="uni022F" unicode="&#x22f;" 
d="M573.356 571c-11 -29 -41 -51 -70 -51c-28 0 -43 22 -32 51c10 28 41 51 69 51c29 0 43 -23 33 -51zM555 234c-50 -138 -185 -244 -311 -244s-182 101 -133 236c50 138 176 234 306 234c128 0 186 -95 138 -226zM452 199c50 137 26 233 -58 233c-71 0 -140 -62 -175 -157
c-26 -71 -35 -141 -26 -193c6 -40 35 -64 74 -64c75 0 144 68 185 181z" />
    <glyph glyph-name="uni0230" unicode="&#x230;" horiz-adv-x="722" 
d="M965.895 898h-311l19 54h311zM819.895 787c-11 -29 -40 -51 -69 -51c-28 0 -44 22 -33 51c10 28 42 51 70 51c29 0 42 -23 32 -51zM807 327c-73 -201 -260 -341 -457 -341c-88 0 -163 39 -198 102c-33 58 -32 149 2 243c73 201 262 345 453 345c96 0 167 -36 205 -105
c33 -60 31 -145 -5 -244zM693 328c43 119 47 213 11 262c-24 32 -64 50 -110 50c-55 0 -112 -22 -167 -65c-59 -47 -122 -144 -159 -246c-40 -111 -44 -212 -9 -258c24 -31 62 -49 108 -49c53 0 104 18 152 53c31 23 58 48 76 73c39 52 77 121 98 180z" />
    <glyph glyph-name="uni0231" unicode="&#x231;" 
d="M718.356 682h-311l20 54h311zM573.356 571c-11 -29 -41 -51 -70 -51c-28 0 -43 22 -32 51c10 28 41 51 69 51c29 0 43 -23 33 -51zM555 234c-50 -138 -185 -244 -311 -244s-182 101 -133 236c50 138 176 234 306 234c128 0 186 -95 138 -226zM452 199
c50 137 26 233 -58 233c-71 0 -140 -62 -175 -157c-26 -71 -35 -141 -26 -193c6 -40 35 -64 74 -64c75 0 144 68 185 181z" />
    <glyph glyph-name="uni0232" unicode="&#x232;" horiz-adv-x="722" 
d="M913.5 736h-311l19 54h311zM937 643c-52 -4 -86.001 -26 -179.001 -114l-231 -226l-70 -194c-28 -76 -18 -88 70 -90l-7 -19h-306l7 19c92 4 106 14 138 101l63 174l-61 192c-49 141 -58 155 -105 157l7 19h280l-7 -19c-11 -1 -21 -1 -25 -1
c-47.5547 -2.88184 -71.5693 -23.1758 -55.999 -73l67 -222l226 226c14 15 23 27 27 37c9 24 -5 32 -57 33l7 19h219z" />
    <glyph glyph-name="uni0233" unicode="&#x233;" 
d="M701.543 520h-311l20 54h311zM633 435c-25 -3 -39 -13 -64 -45l-303 -408c-106 -144 -174 -200 -241 -200c-42 0 -65 25 -53 58c9 24 36 44 59 44c17 0 33 -4 49 -11c8 -5 16 -7 22 -7c14 0 44 19 67 45c28 30 74 93 79 108c3 8 3 20 2 37l-38 348c-1 6 -5 13 -12 13
c-9 0 -27 -9 -41 -23l-51 -55l-12 11c64 82 108 111 154 111c26 0 43 -9 50 -32l7 -59l23 -253l197 276c19.418 22.6543 16.625 42 -29 42l6 15h135z" />
    <glyph glyph-name="ereversed" unicode="&#x258;" horiz-adv-x="444" 
d="M502 214c-50 -138 -154 -224 -269 -224c-96 0 -148 59 -151 167l19 7c20 -76 52 -105 116 -105c55 0 107 26 156 80c34 39 55 74 80 138h-308c32 65 52 94 89 126c43 36 96 57 148 57c124 0 173 -100 120 -246zM462 309c18 79 -3 115 -64 115s-95 -28 -140 -115h204z" />
    <glyph glyph-name="schwa" unicode="&#x259;" horiz-adv-x="444" 
d="M510 236c-53 -146 -175 -246 -299 -246c-52 0 -90 21 -107 57c-13 32 -13 61 3 126h308c21 64 26 99 20 138c-9 54 -42 80 -97 80c-64 0 -117 -29 -193 -105l-13 7c81 108 176 167 272 167c115 0 156 -86 106 -224zM401 141h-204c-19 -87 -5 -115 56 -115s108 36 148 115
z" />
    <glyph glyph-name="uni0269" unicode="&#x269;" horiz-adv-x="322" 
d="M323 113c-23 -62 -65 -127 -118 -127c-71 0 -110 56 -84 127l123 337h84l-123 -337c-17 -47 -30 -99 10 -99s63 52 80 99h28z" />
    </font>
</defs>
</svg>
