<?xml version="1.0" standalone="no"?>
<!DOCTYPE svg PUBLIC "-//W3C//DTD SVG 20010904//EN"
 "http://www.w3.org/TR/2001/REC-SVG-20010904/DTD/svg10.dtd">
<svg version="1.0" xmlns="http://www.w3.org/2000/svg"
 width="512.000000pt" height="512.000000pt" viewBox="0 0 512.000000 512.000000"
 preserveAspectRatio="xMidYMid meet">
<metadata>
Created by potrace 1.11, written by Peter Selinger 2001-2013
</metadata>
<g transform="translate(0.000000,512.000000) scale(0.100000,-0.100000)"
fill="#000000" stroke="none">
<path d="M2345 5014 c-16 -2 -73 -9 -125 -15 -602 -69 -1192 -393 -1590 -873
-287 -346 -477 -774 -546 -1231 -25 -165 -25 -522 0 -685 96 -624 389 -1149
866 -1555 349 -297 815 -497 1295 -556 138 -17 464 -15 600 4 908 125 1658
715 1990 1567 252 646 206 1411 -122 2030 -372 701 -1041 1174 -1833 1295 -99
15 -468 28 -535 19z m362 -74 c602 -49 1145 -307 1552 -737 340 -357 552 -781
637 -1273 22 -129 30 -487 14 -633 -60 -551 -298 -1046 -690 -1437 -392 -392
-891 -631 -1438 -690 -147 -16 -504 -8 -627 14 -259 47 -443 106 -663 211
-1199 577 -1699 2023 -1112 3210 303 611 846 1066 1495 1250 275 78 561 108
832 85z"/>
<path d="M1942 4343 c-170 -3 -183 -5 -177 -21 25 -61 58 -168 73 -237 15 -71
17 -147 17 -665 0 -632 -1 -642 -55 -810 -16 -47 -31 -93 -35 -102 -7 -17 19
-18 451 -18 253 0 500 5 549 10 353 40 534 203 535 481 0 226 -133 385 -377
449 -43 12 -85 23 -93 26 -8 3 16 16 53 29 140 49 236 129 290 243 31 64 32
72 32 192 0 116 -2 129 -28 181 -67 136 -219 215 -463 239 -92 9 -331 10 -772
3z m673 -78 c134 -69 202 -244 174 -449 -16 -120 -43 -182 -108 -247 -74 -74
-120 -89 -268 -89 l-113 0 0 404 c0 314 3 406 13 410 6 3 64 4 128 3 107 -2
120 -4 174 -32z m17 -862 c103 -47 173 -142 198 -270 19 -94 8 -282 -20 -362
-50 -142 -165 -228 -317 -238 -44 -3 -106 -2 -137 1 l-56 7 0 446 0 445 143
-4 c119 -3 150 -7 189 -25z"/>
<path d="M790 2065 l0 -35 1740 0 1740 0 0 35 0 35 -1740 0 -1740 0 0 -35z"/>
<path d="M1750 1656 c0 -3 14 -26 31 -51 44 -66 89 -174 244 -598 l139 -378
39 3 39 3 143 345 c111 267 145 340 152 325 4 -11 58 -166 119 -345 l110 -325
40 -3 39 -3 145 373 c161 417 198 498 270 589 l49 64 -116 3 c-64 1 -117 1
-119 -1 -2 -2 4 -19 13 -38 14 -26 18 -58 18 -134 0 -99 0 -101 -65 -267 -36
-92 -68 -168 -71 -168 -3 0 -30 78 -59 173 -52 164 -55 177 -55 282 0 61 4
120 8 133 l8 22 -246 0 c-194 0 -245 -3 -239 -12 5 -7 18 -28 30 -46 12 -18
39 -75 60 -126 l37 -94 -73 -182 c-40 -100 -76 -178 -80 -173 -4 4 -35 92 -69
194 -76 233 -86 325 -46 422 7 16 -9 17 -244 17 -138 0 -251 -2 -251 -4z"/>
</g>
</svg>
